{"glyphs":{"0":{"ha":925,"x_min":176,"x_max":1023,"o":"m 473 37 q 659 125 575 37 q 845 512 775 248 q 886 772 886 668 q 864 899 886 849 q 727 987 824 987 q 545 898 633 987 q 354 512 425 779 q 313 252 313 357 q 335 125 313 176 q 473 37 373 37 m 459 -14 q 240 91 317 -14 q 176 313 176 180 q 205 512 176 402 q 466 933 277 781 q 741 1038 595 1038 q 960 933 886 1038 q 1023 710 1023 842 q 994 512 1023 621 q 735 94 921 239 q 459 -14 597 -14 z "},"1":{"ha":420,"x_min":149,"x_max":559,"o":"m 176 0 q 149 21 149 0 q 151 34 149 26 l 323 675 q 332 732 332 707 q 251 834 332 811 q 254 844 252 839 q 549 1051 431 907 l 559 1051 l 287 34 q 244 0 278 0 l 176 0 z "},"2":{"ha":869,"x_min":79,"x_max":954,"o":"m 79 -7 q 322 304 181 182 q 595 512 465 428 q 786 747 751 611 q 796 820 796 787 q 779 900 796 867 q 635 972 739 972 q 459 913 539 972 q 353 791 391 862 q 372 793 361 793 q 434 768 408 793 q 459 705 459 743 q 434 642 459 668 q 372 616 408 616 q 309 642 335 616 q 283 705 283 668 q 427 943 283 828 q 706 1038 546 1038 q 911 953 849 1038 q 954 827 954 895 q 945 760 954 794 q 692 473 898 583 q 411 307 499 370 q 227 130 279 211 q 379 177 298 177 q 508 146 430 177 q 641 115 584 115 q 826 182 734 115 l 836 182 q 543 -7 724 -7 q 410 29 499 -7 q 273 54 347 54 q 90 -7 178 54 l 79 -7 z "},"3":{"ha":783,"x_min":105,"x_max":838,"o":"m 340 -14 q 177 39 242 -14 q 105 174 105 98 q 113 218 105 197 q 139 260 121 242 q 204 288 168 288 q 266 261 241 288 q 292 198 292 235 q 266 135 292 161 q 203 109 240 109 q 165 119 183 109 q 330 37 226 37 q 529 123 435 37 q 637 319 604 191 q 649 399 649 362 q 607 512 649 468 q 452 581 554 567 l 454 591 q 618 675 553 619 q 699 817 675 724 q 709 882 709 852 q 700 933 709 910 q 597 994 676 994 q 431 916 491 994 q 495 893 472 916 q 519 836 519 870 q 493 772 519 798 q 431 746 467 746 q 368 770 391 746 q 344 828 344 795 q 354 879 344 854 q 433 979 376 935 q 624 1038 507 1038 q 791 981 733 1038 q 838 870 838 935 q 829 810 838 842 q 720 657 804 720 q 603 601 678 626 q 769 513 719 592 q 799 404 799 467 q 787 319 799 365 q 605 71 747 168 q 340 -14 484 -14 z "},"4":{"ha":751,"x_min":83,"x_max":890,"o":"m 507 0 q 480 21 480 0 q 482 34 480 26 l 538 244 l 100 244 q 83 255 83 244 q 85 264 83 260 l 89 278 q 115 315 94 295 l 880 1051 l 890 1051 l 691 305 l 772 305 q 788 292 788 305 q 787 285 788 290 l 781 264 q 755 244 774 244 l 674 244 l 618 34 q 575 0 609 0 l 507 0 m 555 305 l 682 778 l 191 305 l 555 305 z "},"5":{"ha":783,"x_min":105,"x_max":937,"o":"m 340 -14 q 177 39 242 -14 q 105 174 105 98 q 113 218 105 197 q 139 260 121 242 q 204 288 168 288 q 266 261 241 288 q 292 198 292 235 q 266 135 292 161 q 203 109 240 109 q 165 119 183 109 q 330 37 226 37 q 529 123 435 37 q 637 319 604 191 q 650 406 650 367 q 621 502 650 465 q 469 566 569 566 q 359 534 414 566 l 266 611 l 487 1024 l 937 1024 q 687 895 838 895 q 515 991 569 895 l 412 606 q 536 621 471 621 q 742 547 667 621 q 799 404 799 490 q 787 319 799 365 q 605 71 747 168 q 340 -14 484 -14 z "},"6":{"ha":886,"x_min":181,"x_max":985,"o":"m 758 1038 q 917 985 857 1038 q 985 850 985 927 q 978 806 985 827 q 951 764 970 782 q 886 736 924 736 q 824 763 850 736 q 799 826 799 789 q 825 889 799 863 q 887 916 850 916 q 926 905 907 916 q 760 987 859 987 q 547 878 648 987 q 388 579 436 758 q 639 702 505 702 q 861 601 788 702 q 911 444 911 532 q 897 345 911 397 q 724 88 857 193 q 447 -14 595 -14 q 227 100 295 -14 q 181 284 181 175 q 210 478 181 371 q 478 930 289 774 q 758 1038 609 1038 m 456 39 q 652 141 563 39 q 747 345 709 205 q 769 488 769 430 q 762 547 769 522 q 619 650 729 650 q 427 547 513 650 q 333 345 370 480 q 310 200 310 259 q 317 141 310 166 q 456 39 350 39 z "},"7":{"ha":733,"x_min":239,"x_max":996,"o":"m 365 -14 q 286 33 317 -14 q 259 133 259 72 q 275 243 259 181 q 432 519 315 391 q 543 626 488 580 q 657 715 599 673 q 836 878 771 800 q 705 848 766 848 q 568 878 645 848 q 435 909 490 909 q 250 842 341 909 l 239 842 q 532 1031 352 1031 q 666 995 576 1031 q 802 970 728 970 q 985 1031 897 970 l 996 1031 q 749 731 891 853 q 621 616 659 654 q 502 479 540 536 q 425 309 446 395 q 416 245 416 275 q 448 146 416 188 q 470 85 470 119 q 467 62 470 74 q 434 8 460 29 q 365 -14 406 -14 z "},"8":{"ha":803,"x_min":128,"x_max":883,"o":"m 643 606 q 773 808 741 688 q 785 883 785 850 q 774 937 785 914 q 680 991 747 991 q 559 941 613 991 q 492 822 509 891 q 485 772 485 795 q 545 665 485 701 l 643 606 m 393 -14 q 180 68 248 -14 q 128 212 128 132 q 138 288 128 248 q 441 579 191 489 q 351 742 351 650 q 359 795 351 768 q 494 979 390 912 q 690 1038 585 1038 q 841 982 791 1038 q 883 869 883 934 q 875 808 883 841 q 674 585 835 652 q 832 366 832 496 q 822 298 832 334 q 660 76 786 172 q 393 -14 543 -14 m 475 553 q 239 284 290 475 q 226 197 226 236 q 246 114 226 149 q 406 35 292 35 q 580 106 495 35 q 682 271 656 169 q 689 327 689 300 q 595 479 689 422 l 475 553 z "},"9":{"ha":886,"x_min":176,"x_max":980,"o":"m 404 -14 q 244 39 304 -14 q 176 174 176 97 q 183 218 176 197 q 210 260 191 242 q 275 288 237 288 q 337 261 311 288 q 362 198 362 235 q 336 135 362 161 q 274 109 311 109 q 235 119 254 109 q 401 37 302 37 q 614 146 513 37 q 773 445 725 266 q 522 322 656 322 q 300 423 373 322 q 250 580 250 492 q 264 680 250 627 q 437 936 304 831 q 714 1038 566 1038 q 935 924 866 1038 q 980 740 980 849 q 951 546 980 653 q 683 94 872 250 q 404 -14 552 -14 m 705 985 q 509 883 598 985 q 414 680 452 819 q 392 536 392 594 q 399 477 392 502 q 542 374 432 374 q 734 477 648 374 q 828 680 791 544 q 851 824 851 765 q 844 883 851 858 q 705 985 811 985 z "}," ":{"ha":407,"x_min":0,"x_max":0,"o":""},"!":{"ha":447,"x_min":156,"x_max":568,"o":"m 306 13 q 293 -1 306 13 q 244 -14 281 -14 q 182 13 208 -14 q 156 76 156 39 q 182 139 156 113 q 244 165 208 165 q 306 139 281 165 q 332 76 332 113 q 306 13 332 39 m 423 1012 q 490 1038 450 1038 q 552 1008 530 1038 q 568 958 568 988 q 559 913 568 937 l 321 237 q 296 217 314 217 l 267 217 q 252 231 252 217 q 252 237 252 234 l 387 933 q 390 948 388 939 q 423 1012 399 988 z "},"\"":{"ha":427,"x_min":262,"x_max":650,"o":"m 513 1051 q 636 1051 513 1051 q 650 984 650 1019 q 644 935 650 960 q 542 774 623 859 l 460 774 q 532 911 515 848 q 539 964 539 939 q 513 1051 539 1011 m 315 1051 l 438 1051 q 452 984 452 1019 q 446 935 452 960 q 344 774 425 859 l 262 774 q 334 911 317 848 q 341 964 341 939 q 315 1051 341 1011 z "},"#":{"ha":918,"x_min":235,"x_max":957,"o":"m 549 834 q 585 834 549 834 q 606 819 606 834 q 604 807 606 814 l 568 671 l 710 671 l 747 807 q 781 834 754 834 l 817 834 q 838 819 838 834 q 836 807 838 814 l 800 671 l 935 671 q 957 654 957 671 q 956 644 957 649 l 946 610 q 911 583 939 583 l 776 583 l 738 439 l 873 439 q 895 422 895 439 q 894 412 895 417 l 884 378 q 850 351 876 351 l 714 351 l 677 214 q 643 187 670 187 l 608 187 q 586 202 586 187 q 588 214 586 207 l 625 351 l 482 351 l 446 214 q 411 187 438 187 l 376 187 q 354 202 354 187 q 356 214 354 207 l 393 351 l 257 351 q 235 368 235 351 q 237 378 235 373 l 246 412 q 281 439 254 439 l 416 439 l 454 583 l 319 583 q 297 600 297 583 q 298 610 297 605 l 309 644 q 342 671 317 671 l 478 671 l 515 807 q 549 834 522 834 m 506 439 l 648 439 l 686 583 l 544 583 l 506 439 z "},"$":{"ha":855,"x_min":137,"x_max":920,"o":"m 383 -14 q 193 68 267 -14 q 137 209 137 132 q 144 258 137 235 q 172 306 154 287 q 237 334 199 334 q 299 308 274 334 q 325 244 325 281 q 299 181 325 207 q 237 155 273 155 q 198 165 216 155 q 397 37 255 37 l 530 537 l 503 551 q 360 740 360 623 q 370 806 360 771 q 495 975 395 903 q 664 1036 566 1027 l 681 1099 q 715 1126 688 1126 l 729 1126 q 750 1110 750 1126 q 749 1099 750 1104 l 732 1037 q 912 913 873 1026 q 920 868 920 892 q 912 817 920 840 q 884 771 905 793 q 817 743 857 743 q 755 769 781 743 q 730 833 730 795 q 755 896 730 870 q 818 922 781 922 q 857 912 838 922 q 719 987 809 987 l 627 644 l 707 606 q 867 393 867 528 q 857 312 867 350 q 684 77 821 177 q 452 -11 583 3 l 435 -75 q 400 -102 427 -102 l 387 -102 q 365 -87 365 -102 q 367 -75 365 -82 l 383 -14 m 568 675 l 648 978 q 575 943 607 967 q 498 829 519 899 q 493 792 493 810 q 568 675 493 719 m 591 507 l 467 44 q 621 127 557 62 q 716 288 691 197 q 724 343 724 317 q 610 498 724 441 l 591 507 z "},"%":{"ha":1078,"x_min":208,"x_max":1143,"o":"m 728 395 q 884 450 804 450 q 1010 395 964 450 q 1045 292 1045 353 q 1034 218 1045 258 q 916 42 1004 107 q 760 -14 840 -14 q 634 42 680 -14 q 600 144 600 83 q 610 218 600 180 q 728 395 640 331 m 873 410 q 786 363 829 410 q 721 218 747 319 q 703 106 703 148 q 707 72 703 85 q 770 26 722 26 q 857 74 815 26 q 923 218 897 119 q 941 329 941 287 q 935 368 941 352 q 873 410 921 410 m 436 982 q 592 1038 512 1038 q 718 982 672 1038 q 753 880 753 940 q 742 806 753 846 q 624 629 712 694 q 468 574 548 574 q 342 629 388 574 q 307 732 307 671 q 317 806 307 766 q 436 982 347 918 m 581 998 q 494 950 536 998 q 429 806 454 907 q 410 693 410 735 q 415 659 410 672 q 477 614 430 614 q 565 661 523 614 q 631 806 605 706 q 648 916 648 874 q 643 955 648 939 q 581 998 629 998 m 265 -27 q 248 -21 257 -27 l 220 -2 q 208 18 208 6 q 209 24 208 21 q 220 44 211 33 l 1055 1032 q 1086 1051 1072 1051 q 1105 1045 1096 1051 l 1132 1026 q 1143 1006 1143 1018 q 1143 999 1143 1002 q 1132 980 1141 990 l 298 -8 q 265 -27 281 -27 z "},"&":{"ha":1107,"x_min":155,"x_max":1125,"o":"m 848 0 q 806 34 816 0 l 777 140 q 714 81 753 114 q 456 -14 602 -14 q 216 71 292 -14 q 155 231 155 138 q 167 319 155 272 q 288 512 198 436 q 501 601 382 592 q 416 657 446 619 q 380 757 380 702 q 388 810 380 783 q 518 981 416 916 q 711 1038 606 1038 q 869 959 819 1038 q 897 871 897 917 q 889 821 897 845 q 861 774 880 793 q 796 746 834 746 q 734 772 760 746 q 709 836 709 798 q 734 899 709 873 q 797 925 760 925 q 842 912 818 925 q 717 994 810 994 q 583 933 638 994 q 522 817 540 886 q 511 747 511 779 q 532 673 511 703 q 779 591 576 609 l 860 290 q 1031 514 969 415 q 975 538 1000 514 q 949 602 949 564 q 975 666 949 640 q 1038 692 1001 692 q 1100 666 1074 692 q 1125 602 1125 640 q 1105 541 1125 573 q 1070 488 1096 524 q 873 238 976 356 l 930 34 q 932 18 932 24 q 905 0 932 0 l 848 0 m 657 581 q 450 512 532 567 q 316 319 350 446 q 300 212 300 258 q 320 123 300 159 q 474 37 368 37 q 686 114 587 37 q 764 188 731 149 l 657 581 z "},"'":{"ha":229,"x_min":262,"x_max":452,"o":"m 315 1051 q 438 1051 315 1051 q 452 984 452 1019 q 446 935 452 960 q 344 774 425 859 l 262 774 q 334 911 317 848 q 341 964 341 939 q 315 1051 341 1011 z "},"(":{"ha":454,"x_min":235,"x_max":728,"o":"m 682 1173 l 728 1147 q 533 855 612 1010 q 403 512 454 701 q 352 172 353 325 q 388 -123 352 17 l 327 -149 q 239 141 255 -15 q 235 235 235 187 q 273 512 235 370 q 438 883 328 718 q 682 1173 531 1021 z "},")":{"ha":454,"x_min":1,"x_max":496,"o":"m 402 1173 q 490 883 471 1021 q 496 787 496 837 q 456 512 496 660 q 291 141 403 317 q 47 -149 191 -15 l 1 -123 q 192 168 110 15 q 326 512 275 321 q 380 878 380 713 q 341 1147 380 1021 l 402 1173 z "},"*":{"ha":604,"x_min":242,"x_max":781,"o":"m 578 1051 l 586 1051 l 590 878 l 680 916 l 622 839 l 781 788 l 779 781 l 593 730 l 609 650 l 543 688 l 445 515 l 437 515 l 434 688 l 344 650 l 401 727 l 242 778 l 244 785 l 431 836 l 415 916 l 481 878 l 578 1051 z "},"+":{"ha":768,"x_min":233,"x_max":810,"o":"m 581 795 l 614 795 q 642 774 642 795 q 640 761 642 768 l 586 563 l 783 563 q 810 542 810 563 q 808 529 810 536 l 800 495 q 756 461 791 461 l 559 461 l 506 263 q 463 229 497 229 l 429 229 q 402 250 402 229 q 404 263 402 256 l 457 461 l 259 461 q 233 482 233 461 q 235 495 233 488 l 243 529 q 286 563 252 563 l 484 563 l 538 761 q 581 795 547 795 z "},",":{"ha":250,"x_min":-24,"x_max":229,"o":"m 134 150 q 161 146 148 150 q 214 108 196 137 q 229 52 229 83 q 224 21 229 37 q 170 -66 212 -26 q 35 -124 108 -124 q -24 -117 5 -124 l -22 -108 q 81 -57 37 -93 q 119 -12 102 -39 q 63 24 77 -1 q 52 65 52 44 q 56 90 52 79 q 94 139 65 121 q 134 150 113 150 z "},"-":{"ha":768,"x_min":233,"x_max":810,"o":"m 286 563 l 783 563 q 810 542 810 563 q 808 529 810 536 l 800 495 q 756 461 791 461 l 259 461 q 233 482 233 461 q 235 495 233 488 l 243 529 q 286 563 252 563 z "},".":{"ha":243,"x_min":54,"x_max":230,"o":"m 204 13 q 192 -1 204 13 q 142 -14 179 -14 q 80 13 106 -14 q 54 76 54 39 q 80 139 54 113 q 142 165 106 165 q 204 139 179 165 q 230 76 230 113 q 204 13 230 39 z "},"/":{"ha":774,"x_min":-7,"x_max":1056,"o":"m 998 1127 q 1017 1121 1008 1127 l 1044 1102 q 1056 1081 1056 1093 q 1055 1076 1056 1078 q 1044 1056 1053 1067 l 81 -83 q 50 -102 65 -102 q 32 -96 41 -102 l 5 -77 q -7 -56 -7 -68 q -7 -50 -7 -53 q 5 -31 -5 -42 l 967 1108 q 998 1127 983 1127 z "},":":{"ha":243,"x_min":54,"x_max":347,"o":"m 197 577 q 210 590 197 577 q 260 603 223 603 q 322 577 296 603 q 347 513 347 551 q 322 450 347 476 q 260 424 296 424 q 197 450 223 424 q 172 513 172 476 q 197 577 172 551 m 204 13 q 192 -1 204 13 q 142 -14 179 -14 q 80 13 106 -14 q 54 76 54 39 q 80 139 54 113 q 142 165 106 165 q 204 139 179 165 q 230 76 230 113 q 204 13 230 39 z "},";":{"ha":250,"x_min":-24,"x_max":347,"o":"m 134 150 q 161 146 148 150 q 214 108 196 137 q 229 52 229 83 q 224 21 229 37 q 170 -66 212 -26 q 35 -124 108 -124 q -24 -117 5 -124 l -22 -108 q 81 -57 37 -93 q 119 -12 102 -39 q 63 24 77 -1 q 52 65 52 44 q 56 90 52 79 q 94 139 65 121 q 134 150 113 150 m 197 577 q 210 590 197 577 q 260 603 223 603 q 322 577 296 603 q 347 513 347 551 q 322 450 347 476 q 260 424 296 424 q 197 450 223 424 q 172 513 172 476 q 197 577 172 551 z "},"<":{"ha":764,"x_min":234,"x_max":839,"o":"m 816 831 q 829 819 825 831 l 838 795 q 839 785 839 789 q 838 777 839 781 q 820 762 833 769 l 349 531 l 685 317 q 698 297 698 309 q 697 292 698 294 q 685 271 695 283 l 659 241 q 628 222 644 222 q 610 229 619 222 l 257 454 q 234 489 234 469 q 236 501 234 494 l 243 529 q 290 576 251 557 l 800 827 q 816 831 808 831 z "},"=":{"ha":768,"x_min":198,"x_max":845,"o":"m 252 434 l 749 434 q 776 413 776 434 q 774 400 776 408 l 765 366 q 722 332 756 332 l 224 332 q 198 353 198 332 q 200 366 198 359 l 209 400 q 252 434 218 434 m 321 692 l 818 692 q 845 671 845 692 q 843 658 845 665 l 834 624 q 791 590 825 590 l 294 590 q 267 611 267 590 q 269 624 267 617 l 278 658 q 321 692 287 692 z "},">":{"ha":764,"x_min":208,"x_max":813,"o":"m 419 831 q 437 825 428 831 l 790 600 q 813 565 813 585 q 811 553 813 560 l 804 525 q 757 477 796 497 l 247 227 q 231 222 239 222 q 218 235 222 222 l 210 259 q 208 269 208 264 q 210 277 208 273 q 227 292 214 285 l 698 523 l 362 736 q 349 757 349 745 q 350 762 349 760 q 362 783 352 770 l 388 813 q 419 831 404 831 z "},"?":{"ha":852,"x_min":296,"x_max":964,"o":"m 718 1038 q 924 953 862 1038 q 964 831 964 899 q 954 760 964 797 q 749 498 913 607 l 591 394 q 478 237 505 338 q 452 217 473 217 l 424 217 q 408 229 408 217 q 409 237 408 233 q 549 450 441 357 l 633 524 q 798 747 770 642 q 808 820 808 787 q 791 899 808 866 q 648 972 751 972 q 471 913 551 972 q 365 791 403 862 q 384 793 374 793 q 446 768 420 793 q 471 705 471 743 q 446 642 471 668 q 384 616 420 616 q 321 642 347 616 q 296 705 296 668 q 439 943 296 828 q 718 1038 558 1038 m 467 13 q 454 -1 467 13 q 405 -14 441 -14 q 342 13 368 -14 q 317 76 317 39 q 342 139 317 113 q 405 165 368 165 q 467 139 441 165 q 492 76 492 113 q 467 13 492 39 z "},"@":{"ha":1000,"x_min":137,"x_max":982,"o":"m 743 0 q 715 21 715 0 q 718 34 715 26 q 599 -14 683 -14 q 454 43 503 -14 q 412 153 412 91 q 420 208 412 179 q 560 380 448 314 q 827 442 666 442 l 851 533 q 862 606 862 574 q 842 673 862 648 q 741 712 810 712 q 511 617 614 712 q 297 234 363 480 q 269 43 269 127 q 309 -131 269 -58 q 517 -244 371 -244 q 770 -156 648 -244 l 791 -187 q 475 -292 648 -292 q 214 -187 301 -292 q 137 48 137 -94 q 164 234 137 132 q 440 655 237 507 q 773 760 583 760 q 932 711 877 760 q 982 597 982 666 q 972 532 982 568 l 840 34 q 797 0 831 0 l 743 0 m 818 411 q 641 343 720 403 q 543 191 570 290 q 534 132 534 159 q 546 77 534 101 q 632 31 569 31 q 749 155 716 31 l 818 411 z "},"A":{"ha":859,"x_min":0,"x_max":865,"o":"m 14 0 q 0 9 0 0 q 3 17 0 13 l 602 897 l 590 990 q 589 1000 589 996 q 615 1024 590 1024 l 684 1024 q 726 990 721 1024 l 864 34 q 865 24 865 29 q 839 0 864 0 l 770 0 q 728 34 733 0 l 684 339 l 296 339 l 76 17 q 50 0 64 0 l 14 0 m 615 808 l 337 400 l 675 400 l 615 808 z "},"B":{"ha":912,"x_min":183,"x_max":956,"o":"m 210 0 q 183 21 183 0 q 185 34 183 26 l 385 780 q 429 814 394 814 l 496 814 q 523 793 523 814 q 521 780 523 787 l 335 88 q 333 75 333 81 q 360 54 333 54 l 467 54 q 689 146 594 54 q 779 313 751 206 q 788 381 788 350 q 746 492 788 447 q 568 570 692 549 q 715 643 661 592 q 810 798 785 707 q 819 856 819 829 q 804 916 819 890 q 676 977 768 977 q 193 709 420 977 l 184 714 q 707 1038 407 1038 q 923 953 864 1038 q 956 850 956 905 q 949 799 956 825 q 835 640 925 703 q 717 583 773 597 q 860 536 814 570 q 938 385 938 479 q 927 310 938 350 q 743 71 887 159 q 463 0 628 0 l 210 0 z "},"C":{"ha":827,"x_min":176,"x_max":1000,"o":"m 489 -14 q 240 91 317 -14 q 176 313 176 180 q 205 512 176 402 q 466 933 281 798 q 764 1038 608 1038 q 960 950 895 1038 q 1000 829 1000 896 q 991 768 1000 795 q 963 720 983 741 q 898 692 936 692 q 836 719 861 692 q 810 782 810 745 q 836 845 810 819 q 899 871 862 871 q 937 861 919 871 q 766 987 906 987 q 549 895 649 987 q 361 512 436 791 q 318 252 318 353 q 343 130 318 174 q 519 37 396 37 q 730 122 633 37 q 829 228 784 169 l 839 228 l 810 121 q 489 -14 667 -14 z "},"D":{"ha":979,"x_min":183,"x_max":1073,"o":"m 210 0 q 183 21 183 0 q 185 34 183 26 l 385 780 q 429 814 394 814 l 496 814 q 523 793 523 814 q 521 780 523 787 l 335 88 q 333 75 333 81 q 360 54 333 54 l 467 54 q 755 215 628 54 q 890 512 840 323 q 916 697 916 612 q 904 808 916 755 q 687 977 865 977 q 192 709 419 977 l 184 714 q 724 1038 407 1038 q 1037 859 956 1038 q 1073 683 1073 779 q 1048 511 1073 603 q 846 159 991 299 q 471 0 681 0 l 210 0 z "},"E":{"ha":778,"x_min":141,"x_max":883,"o":"m 442 -14 q 202 71 279 -14 q 141 231 141 138 q 153 319 141 272 q 274 512 184 436 q 488 601 369 592 q 402 657 432 619 q 367 757 367 702 q 374 810 367 783 q 505 981 403 916 q 697 1038 592 1038 q 856 959 805 1038 q 883 871 883 917 q 876 821 883 845 q 848 774 866 793 q 783 746 821 746 q 721 772 746 746 q 695 836 695 798 q 721 899 695 873 q 783 925 747 925 q 822 915 804 925 q 703 994 791 994 q 570 933 625 994 q 508 817 526 886 q 497 742 497 775 q 513 675 497 702 q 631 591 547 619 l 628 581 q 436 512 519 567 q 302 319 336 446 q 286 212 286 258 q 307 123 286 159 q 460 37 355 37 q 659 114 568 37 q 785 269 726 172 l 795 269 l 762 143 q 692 79 728 108 q 442 -14 575 -14 z "},"F":{"ha":734,"x_min":133,"x_max":955,"o":"m 176 0 q 149 21 149 0 q 151 34 149 26 l 252 407 l 149 407 q 133 419 133 407 q 134 427 133 422 l 140 448 q 165 468 145 468 l 268 468 l 317 651 q 505 945 368 844 q 759 1038 628 1038 q 924 964 867 1038 q 955 871 955 925 q 947 821 955 845 q 920 774 938 793 q 854 746 892 746 q 792 772 818 746 q 767 836 767 798 q 793 899 767 873 q 855 925 819 925 q 894 915 876 925 q 762 987 856 987 q 565 888 648 987 q 452 651 492 802 l 404 468 l 674 468 q 690 456 690 468 q 689 448 690 453 l 684 427 q 658 407 678 407 l 387 407 l 287 34 q 244 0 278 0 l 176 0 z "},"G":{"ha":879,"x_min":176,"x_max":1000,"o":"m 492 -14 q 232 110 315 -14 q 176 316 176 193 q 205 512 176 404 q 466 933 281 798 q 764 1038 608 1038 q 960 950 895 1038 q 1000 829 1000 896 q 991 768 1000 795 q 963 720 983 741 q 898 692 936 692 q 836 719 861 692 q 810 782 810 745 q 836 845 810 819 q 899 871 862 871 q 937 861 919 871 q 766 987 906 987 q 549 895 649 987 q 361 512 434 790 q 321 258 321 361 q 343 130 321 180 q 496 37 385 37 q 691 123 610 37 q 766 257 746 182 q 774 311 774 287 q 646 407 774 407 l 640 407 q 623 418 623 407 q 625 427 623 422 l 630 448 q 656 468 635 468 l 788 468 q 918 373 918 468 q 910 320 918 349 q 772 109 880 206 q 492 -14 638 -14 z "},"H":{"ha":921,"x_min":149,"x_max":1046,"o":"m 176 0 q 149 21 149 0 q 151 34 149 26 l 408 990 q 451 1024 416 1024 l 519 1024 q 545 1003 545 1024 q 543 990 545 998 l 404 468 l 768 468 l 908 990 q 951 1024 917 1024 l 1019 1024 q 1046 1003 1046 1024 q 1044 990 1046 998 l 787 34 q 745 0 779 0 l 677 0 q 650 21 650 0 q 652 34 650 26 l 751 407 l 387 407 l 287 34 q 244 0 278 0 l 176 0 z "},"I":{"ha":420,"x_min":149,"x_max":545,"o":"m 176 0 q 149 21 149 0 q 151 34 149 26 l 408 990 q 451 1024 416 1024 l 519 1024 q 545 1003 545 1024 q 543 990 545 998 l 287 34 q 244 0 278 0 l 176 0 z "},"J":{"ha":734,"x_min":54,"x_max":859,"o":"m 250 -14 q 84 60 141 -14 q 54 153 54 99 q 61 203 54 179 q 89 250 71 231 q 154 278 116 278 q 216 252 191 278 q 241 189 241 226 q 216 125 241 151 q 153 99 190 99 q 115 109 133 99 q 246 37 153 37 q 444 136 363 37 q 555 373 516 227 l 721 990 q 764 1024 730 1024 l 832 1024 q 859 1003 859 1024 q 857 990 859 998 l 691 373 q 504 79 639 179 q 250 -14 380 -14 z "},"K":{"ha":918,"x_min":149,"x_max":1018,"o":"m 176 0 q 149 21 149 0 q 151 34 149 26 l 408 990 q 451 1024 416 1024 l 519 1024 q 545 1003 545 1024 q 543 990 545 998 l 384 395 q 917 860 755 574 q 868 884 888 864 q 842 948 842 911 q 868 1011 842 985 q 930 1038 894 1038 q 992 1011 967 1038 q 1018 948 1018 985 q 1013 913 1018 932 q 979 844 1004 886 q 549 420 811 570 q 756 277 697 409 l 865 34 q 869 20 869 26 q 840 0 869 0 l 759 0 q 711 34 726 0 l 625 231 q 485 368 566 368 q 327 183 376 368 l 287 34 q 244 0 278 0 l 176 0 z "},"L":{"ha":792,"x_min":140,"x_max":828,"o":"m 143 -14 l 140 -7 l 408 990 q 451 1024 416 1024 l 519 1024 q 545 1003 545 1024 q 543 990 545 998 l 299 79 q 361 82 329 82 q 488 58 426 82 q 600 37 541 37 q 726 86 681 37 q 678 111 699 90 q 652 174 652 137 q 678 238 652 212 q 741 264 704 264 q 803 238 777 264 q 828 174 828 212 q 823 141 828 160 q 741 28 806 71 q 593 -14 680 -14 q 445 10 538 -14 q 336 24 391 24 q 235 12 283 24 q 143 -14 188 0 z "},"M":{"ha":1293,"x_min":128,"x_max":1344,"o":"m 142 0 q 128 13 128 0 q 129 17 128 16 l 475 853 l 456 990 q 456 1000 456 995 q 481 1024 456 1024 l 550 1024 q 592 990 587 1024 l 720 210 l 1268 1007 q 1294 1024 1280 1024 l 1330 1024 q 1344 1015 1344 1024 q 1341 1007 1344 1011 l 1293 928 l 1195 34 q 1154 0 1192 0 l 1088 0 q 1059 20 1059 0 q 1061 34 1059 22 l 1135 709 l 633 -27 l 623 -27 l 496 734 l 197 17 q 176 0 190 0 l 142 0 z "},"N":{"ha":1000,"x_min":167,"x_max":1115,"o":"m 180 0 q 167 12 167 0 q 168 17 167 14 l 398 878 l 345 990 q 342 1004 342 998 q 370 1024 342 1024 l 448 1024 q 495 990 479 1024 l 845 257 l 1046 1007 q 1067 1024 1051 1024 l 1101 1024 q 1115 1013 1115 1024 q 1114 1007 1115 1010 l 837 -27 l 827 -27 l 441 787 l 235 17 q 214 0 231 0 l 180 0 z "},"O":{"ha":926,"x_min":176,"x_max":1024,"o":"m 473 37 q 660 125 576 37 q 846 512 776 248 q 887 772 887 668 q 865 899 887 849 q 728 987 825 987 q 545 898 634 987 q 355 512 425 779 q 314 252 314 357 q 336 125 314 176 q 473 37 374 37 m 460 -14 q 241 91 317 -14 q 176 313 176 180 q 205 512 176 402 q 467 933 277 781 q 741 1038 596 1038 q 960 933 886 1038 q 1024 710 1024 842 q 995 512 1024 621 q 736 94 922 239 q 460 -14 597 -14 z "},"P":{"ha":920,"x_min":183,"x_max":1047,"o":"m 210 0 q 183 21 183 0 q 185 34 183 26 l 385 780 q 429 814 394 814 l 496 814 q 523 793 523 814 q 521 780 523 787 l 431 446 q 568 358 460 358 q 754 435 675 358 q 880 674 838 517 q 896 784 896 734 q 876 883 896 840 q 680 977 831 977 q 194 710 438 977 l 184 714 q 733 1038 403 1038 q 995 934 913 1038 q 1047 777 1047 867 q 1033 675 1047 730 q 895 442 996 537 q 591 311 753 311 q 412 373 463 311 l 321 34 q 278 0 312 0 l 210 0 z "},"Q":{"ha":925,"x_min":176,"x_max":1023,"o":"m 459 -14 q 240 91 317 -14 q 176 313 176 180 q 205 512 176 402 q 466 933 277 781 q 741 1038 595 1038 q 960 933 886 1038 q 1023 710 1023 842 q 994 512 1023 621 q 735 94 924 250 q 701 67 708 72 l 727 -146 q 728 -155 728 -151 q 692 -180 728 -180 l 629 -180 q 599 -146 603 -180 l 581 8 q 459 -14 515 -14 m 689 160 q 845 512 782 279 q 887 770 887 667 q 862 898 887 850 q 727 987 816 987 q 545 898 633 987 q 354 512 426 780 q 313 257 313 361 q 338 126 313 177 q 473 37 380 37 q 574 61 523 37 l 557 215 q 556 224 556 221 q 592 249 556 249 l 651 249 q 682 215 677 249 l 689 160 z "},"R":{"ha":962,"x_min":183,"x_max":1047,"o":"m 210 0 q 183 21 183 0 q 185 34 183 26 l 385 780 q 429 814 394 814 l 496 814 q 523 793 523 814 q 521 780 523 787 l 431 446 q 568 358 460 358 q 754 435 675 358 q 880 674 838 517 q 896 784 896 734 q 876 883 896 840 q 680 977 831 977 q 194 710 438 977 l 184 714 q 733 1038 403 1038 q 995 934 913 1038 q 1047 777 1047 867 q 1033 675 1047 730 q 895 442 997 538 q 667 318 787 342 q 793 191 743 298 l 865 34 q 869 20 869 26 q 840 0 869 0 l 759 0 q 711 34 728 0 l 646 174 q 515 319 587 299 q 412 373 437 340 l 321 34 q 278 0 312 0 l 210 0 z "},"S":{"ha":819,"x_min":116,"x_max":899,"o":"m 383 -14 q 173 66 239 -14 q 116 209 116 134 q 123 258 116 235 q 151 306 133 287 q 216 334 178 334 q 278 308 253 334 q 304 244 304 281 q 278 181 304 207 q 216 155 252 155 q 177 165 195 155 q 382 37 228 37 q 600 127 511 37 q 695 288 670 197 q 703 343 703 317 q 589 498 703 441 l 482 551 q 339 740 339 622 q 349 806 339 771 q 474 975 374 903 q 685 1038 560 1038 q 889 918 842 1038 q 899 868 899 893 q 891 818 899 839 q 863 772 882 792 q 796 743 836 743 q 734 769 760 743 q 709 833 709 795 q 734 896 709 870 q 797 922 760 922 q 836 912 817 922 q 699 987 793 987 q 554 943 612 987 q 477 829 498 899 q 472 792 472 810 q 565 665 472 710 l 686 606 q 846 393 846 528 q 836 312 846 350 q 663 77 800 177 q 383 -14 540 -14 z "},"T":{"ha":854,"x_min":180,"x_max":1084,"o":"m 694 1024 l 928 1024 q 1046 985 1004 1024 q 1084 902 1084 949 q 1078 859 1084 878 q 1050 811 1069 831 q 985 783 1023 783 q 923 809 948 783 q 897 873 897 836 q 923 937 897 910 q 985 962 946 960 l 985 963 l 671 963 q 189 695 418 963 l 180 701 q 694 1024 386 1024 m 406 0 q 379 21 379 0 q 381 34 379 26 l 581 780 q 625 814 590 814 l 692 814 q 719 793 719 814 q 717 780 719 787 l 517 34 q 474 0 508 0 l 406 0 z "},"U":{"ha":964,"x_min":211,"x_max":1088,"o":"m 720 0 q 692 21 692 0 q 694 34 692 26 l 726 146 q 668 79 707 114 q 437 -14 567 -14 q 224 113 277 -14 q 211 193 211 145 q 235 346 211 254 l 408 990 q 451 1024 416 1024 l 519 1024 q 545 1003 545 1024 q 543 990 545 998 l 370 345 q 348 208 348 261 q 351 170 348 187 q 498 67 372 67 q 704 180 621 67 q 778 346 751 245 l 950 990 q 994 1024 959 1024 l 1061 1024 q 1088 1003 1088 1024 q 1086 990 1088 998 l 830 34 q 787 0 821 0 l 720 0 z "},"V":{"ha":939,"x_min":210,"x_max":1052,"o":"m 453 -14 q 224 113 277 -14 q 210 193 210 147 q 235 346 210 252 l 408 990 q 451 1024 416 1024 l 519 1024 q 545 1003 545 1024 q 543 990 545 998 l 370 345 q 347 208 347 258 q 351 170 347 186 q 507 67 377 67 q 783 220 656 67 q 917 499 870 325 q 936 631 936 569 q 920 744 936 699 q 847 867 897 814 q 817 937 817 899 q 823 974 817 956 q 852 1017 831 1002 q 918 1038 880 1038 q 1019 962 988 1038 q 1052 772 1052 881 q 1021 560 1052 674 q 853 216 966 356 q 453 -14 668 -14 z "},"W":{"ha":1482,"x_min":210,"x_max":1594,"o":"m 437 -14 q 224 113 277 -14 q 210 193 210 146 q 235 346 210 252 l 408 990 q 451 1024 416 1024 l 519 1024 q 545 1003 545 1024 q 543 990 545 998 l 370 345 q 348 208 348 261 q 351 170 348 187 q 498 67 370 67 q 704 180 621 67 q 778 346 751 245 l 950 990 q 994 1024 959 1024 l 1061 1024 q 1088 1003 1088 1024 q 1086 990 1088 998 l 913 345 q 890 208 890 258 q 894 170 890 186 q 1050 67 920 67 q 1326 220 1197 67 q 1459 499 1412 323 q 1478 631 1478 569 q 1463 744 1478 699 q 1390 867 1440 814 q 1359 937 1359 899 q 1365 974 1359 956 q 1395 1017 1374 1002 q 1461 1038 1422 1038 q 1561 962 1531 1038 q 1594 772 1594 881 q 1564 560 1594 674 q 1396 216 1509 356 q 996 -14 1210 -14 q 768 112 817 -14 q 755 175 758 138 q 677 81 724 123 q 437 -14 574 -14 z "},"X":{"ha":769,"x_min":70,"x_max":987,"o":"m 79 0 q 70 7 70 0 q 78 20 70 14 q 470 311 298 168 l 313 990 q 312 1000 312 993 q 338 1024 313 1024 l 406 1024 q 448 990 440 1024 l 583 406 q 896 860 767 587 q 838 884 862 860 q 812 948 812 911 q 838 1011 812 985 q 900 1038 863 1038 q 962 1011 937 1038 q 987 948 987 985 q 984 922 987 936 q 960 857 979 900 q 599 338 812 537 l 669 34 q 670 24 670 31 q 644 0 669 0 l 576 0 q 534 34 541 0 l 486 243 q 178 18 338 117 q 130 0 149 0 l 79 0 z "},"Y":{"ha":922,"x_min":223,"x_max":1047,"o":"m 429 -14 q 254 60 311 -14 q 223 153 223 99 q 231 203 223 179 q 258 250 240 231 q 323 278 286 278 q 386 252 360 278 q 411 189 411 226 q 385 125 411 151 q 323 99 359 99 q 284 109 302 99 q 426 37 322 37 q 632 136 545 37 q 744 373 701 214 l 770 471 q 696 405 742 437 q 503 346 612 346 q 319 435 371 346 q 296 529 296 474 q 310 624 296 570 l 408 990 q 451 1024 416 1024 l 519 1024 q 545 1003 545 1024 q 543 990 545 998 l 446 624 q 433 544 433 578 q 439 501 433 519 q 574 421 467 421 q 753 502 680 421 q 812 624 790 542 l 909 990 q 953 1024 918 1024 l 1021 1024 q 1047 1003 1047 1024 q 1045 990 1047 998 l 880 373 q 692 79 827 179 q 429 -14 569 -14 z "},"Z":{"ha":881,"x_min":39,"x_max":1086,"o":"m 44 -14 q 39 -4 44 -14 l 845 936 q 693 960 783 936 q 561 981 616 981 q 414 938 452 981 q 461 913 441 934 q 487 850 487 887 q 461 786 487 812 q 399 760 435 760 q 337 786 362 760 q 311 850 311 812 q 316 886 311 867 q 398 996 334 952 q 566 1038 459 1038 q 746 1014 643 1038 q 889 999 810 999 q 1082 1038 979 999 l 1086 1028 l 283 87 q 453 64 366 87 q 619 43 530 43 q 766 86 728 43 q 719 111 739 90 q 693 174 693 137 q 719 238 693 212 q 781 264 745 264 q 843 238 818 264 q 869 174 869 212 q 864 138 869 157 q 782 28 846 72 q 614 -14 721 -14 q 419 9 517 -14 q 257 25 349 25 q 44 -14 148 25 z "},"[":{"ha":519,"x_min":139,"x_max":791,"o":"m 514 1160 q 779 1160 514 1160 q 791 1149 791 1160 q 791 1143 791 1145 l 782 1109 q 760 1092 777 1092 l 584 1092 l 273 -71 l 449 -71 q 462 -81 462 -71 q 461 -88 462 -85 l 452 -122 q 431 -139 448 -139 l 166 -139 q 139 -118 139 -139 q 141 -105 139 -113 l 471 1126 q 514 1160 480 1160 z "},"\\":{"ha":755,"x_min":296,"x_max":736,"o":"m 360 1127 q 382 1108 376 1127 l 734 -31 q 736 -42 736 -37 q 734 -51 736 -46 q 709 -77 730 -66 l 693 -85 q 673 -91 681 -91 q 650 -72 656 -91 l 298 1067 q 296 1078 296 1074 q 298 1086 296 1082 q 323 1113 302 1103 l 339 1121 q 360 1127 351 1127 z "},"]":{"ha":519,"x_min":1,"x_max":653,"o":"m 626 1160 q 653 1139 653 1160 q 651 1126 653 1133 l 321 -105 q 278 -139 312 -139 l 14 -139 q 1 -128 1 -139 q 1 -122 1 -125 l 10 -88 q 32 -71 15 -71 l 208 -71 l 519 1092 l 343 1092 q 330 1102 330 1092 q 331 1109 330 1106 l 340 1143 q 361 1160 345 1160 l 626 1160 z "},"^":{"ha":469,"x_min":232,"x_max":639,"o":"m 505 1038 q 533 1038 505 1038 q 572 1004 562 1038 l 637 772 q 639 760 639 764 q 635 746 639 753 q 612 726 627 730 l 572 712 q 551 705 552 705 q 530 724 535 705 l 473 929 l 296 718 q 275 705 285 705 q 261 709 267 705 l 241 724 q 232 736 232 730 q 233 741 232 739 q 240 755 235 750 l 449 1004 q 505 1038 477 1038 z "},"_":{"ha":836,"x_min":65,"x_max":719,"o":"m 113 -59 l 692 -59 q 711 -86 719 -59 q 705 -109 711 -86 q 671 -136 698 -136 l 92 -136 q 73 -109 65 -136 l 79 -86 q 113 -59 86 -59 z "},"`":{"ha":301,"x_min":284,"x_max":481,"o":"m 302 986 q 354 1006 320 1006 q 405 968 388 1006 l 481 799 l 467 787 l 321 878 q 284 934 284 902 q 302 986 284 966 z "},"a":{"ha":779,"x_min":140,"x_max":843,"o":"m 616 0 l 562 0 q 535 21 535 0 q 537 34 535 26 l 545 64 q 366 -14 480 -14 q 175 98 243 -14 q 140 234 140 154 q 161 372 140 296 q 322 648 205 538 q 573 760 441 760 q 711 682 684 760 l 719 712 q 762 746 727 746 l 817 746 q 843 725 843 746 q 841 712 843 720 l 659 34 q 616 0 650 0 m 401 37 q 506 77 460 37 q 586 216 562 126 l 670 530 q 681 602 681 570 q 664 669 681 642 q 581 709 640 709 q 401 605 485 709 q 297 373 338 527 q 269 203 270 271 q 277 141 269 168 q 401 37 305 37 z "},"b":{"ha":779,"x_min":191,"x_max":838,"o":"m 407 -14 q 217 75 269 -14 q 191 180 191 119 q 211 305 191 232 l 394 990 q 437 1024 403 1024 l 492 1024 q 518 1003 518 1024 q 516 990 518 998 l 434 682 q 613 760 503 760 q 804 648 745 760 q 838 506 838 586 q 818 372 838 444 q 657 98 770 195 q 407 -14 529 -14 m 398 37 q 578 141 494 37 q 682 373 642 219 q 710 543 709 475 q 703 605 710 578 q 578 709 674 709 q 473 669 519 709 q 393 530 417 620 l 309 216 q 298 145 298 177 q 315 77 298 104 q 398 37 340 37 z "},"c":{"ha":692,"x_min":142,"x_max":797,"o":"m 393 -14 q 191 79 257 -14 q 142 243 142 147 q 161 373 142 302 q 349 667 212 566 q 604 760 472 760 q 766 685 709 760 q 797 593 797 644 q 789 543 797 566 q 761 495 780 515 q 696 468 734 468 q 634 494 659 468 q 608 557 608 520 q 634 621 608 595 q 696 647 660 647 q 735 637 717 647 q 609 709 700 709 q 409 610 493 709 q 300 373 342 532 q 273 205 273 272 q 282 136 273 165 q 437 37 315 37 q 618 114 534 37 q 659 155 640 133 l 669 155 l 649 79 q 393 -14 536 -14 z "},"d":{"ha":779,"x_min":140,"x_max":918,"o":"m 616 0 l 562 0 q 535 21 535 0 q 537 34 535 26 l 545 64 q 366 -14 484 -14 q 175 98 243 -14 q 140 235 140 154 q 161 372 140 296 q 322 648 205 541 q 573 760 442 760 q 711 682 684 760 l 793 990 q 837 1024 802 1024 l 891 1024 q 918 1003 918 1024 q 916 990 918 998 l 659 34 q 616 0 650 0 m 401 37 q 506 77 460 37 q 586 216 562 126 l 670 530 q 681 602 681 570 q 664 669 681 642 q 581 709 640 709 q 401 605 485 709 q 297 373 338 527 q 269 203 270 271 q 277 141 269 168 q 401 37 305 37 z "},"e":{"ha":745,"x_min":142,"x_max":823,"o":"m 393 -14 q 191 79 257 -14 q 142 243 142 147 q 161 373 142 302 q 349 667 210 554 q 590 760 461 760 q 784 671 722 760 q 823 552 823 617 q 813 484 823 519 q 667 342 785 377 l 271 223 q 271 204 271 213 q 280 136 271 165 q 437 37 312 37 q 618 114 536 37 q 659 155 640 133 l 669 155 l 649 79 q 393 -14 536 -14 m 278 284 l 570 373 q 680 475 660 400 q 693 565 693 524 q 688 612 693 590 q 576 715 667 715 q 404 612 481 715 q 298 373 338 523 q 278 284 283 319 z "},"f":{"ha":635,"x_min":62,"x_max":855,"o":"m 88 -278 q 62 -257 62 -278 q 64 -244 62 -252 l 238 407 l 149 407 q 134 420 134 407 q 134 427 134 425 l 140 448 q 165 468 145 468 l 254 468 l 334 768 q 468 967 366 886 q 671 1038 557 1038 q 824 965 773 1038 q 855 871 855 921 q 848 821 855 842 q 819 773 838 793 q 753 746 793 746 q 691 772 717 746 q 666 836 666 798 q 692 899 666 873 q 754 925 718 925 q 793 915 774 925 q 678 990 761 990 q 545 936 606 990 q 456 768 488 884 l 376 468 l 572 468 q 588 455 588 468 q 587 448 588 450 l 582 427 q 556 407 576 407 l 360 407 l 186 -244 q 142 -278 177 -278 l 88 -278 z "},"g":{"ha":772,"x_min":60,"x_max":843,"o":"m 401 37 q 506 77 460 37 q 586 216 562 126 l 670 530 q 681 602 681 570 q 664 669 681 642 q 581 709 640 709 q 401 605 485 709 q 297 373 338 527 q 269 203 270 271 q 277 141 269 168 q 401 37 305 37 m 366 -14 q 175 98 243 -14 q 140 234 140 154 q 161 372 140 296 q 322 648 205 538 q 573 760 441 760 q 711 682 684 760 l 719 712 q 762 746 727 746 l 817 746 q 843 725 843 746 q 841 712 843 720 l 669 68 q 495 -205 621 -110 q 250 -292 380 -292 q 117 -258 165 -292 q 60 -152 60 -218 q 73 -96 60 -121 q 97 -64 81 -78 q 160 -39 123 -39 q 222 -65 197 -39 q 248 -128 248 -91 q 222 -192 248 -165 q 159 -218 196 -218 q 121 -208 139 -218 q 243 -250 171 -250 q 434 -167 352 -250 q 528 0 503 -98 l 545 64 q 366 -14 480 -14 z "},"h":{"ha":821,"x_min":136,"x_max":836,"o":"m 163 0 q 136 21 136 0 q 138 34 136 26 l 394 990 q 437 1024 403 1024 l 492 1024 q 518 1003 518 1024 q 516 990 518 998 l 416 616 q 495 701 448 665 q 665 760 571 760 q 820 669 777 760 q 836 587 836 634 q 821 481 836 540 q 701 34 821 481 q 659 0 692 0 l 604 0 q 577 21 577 0 q 579 34 577 26 l 699 481 q 712 569 712 532 q 708 605 712 589 q 592 684 687 684 q 437 604 503 684 q 380 481 400 557 l 260 34 q 217 0 251 0 l 163 0 z "},"i":{"ha":380,"x_min":136,"x_max":513,"o":"m 363 953 q 376 966 363 953 q 426 979 389 979 q 488 953 463 979 q 513 890 513 927 q 488 826 513 852 q 426 800 463 800 q 363 826 389 800 q 338 890 338 852 q 363 953 338 927 m 163 0 q 136 21 136 0 q 138 34 136 26 l 320 712 q 363 746 329 746 l 417 746 q 444 725 444 746 q 442 712 444 720 l 260 34 q 217 0 251 0 l 163 0 z "},"j":{"ha":380,"x_min":-78,"x_max":513,"o":"m 363 953 q 376 966 363 953 q 426 979 389 979 q 488 953 463 979 q 513 890 513 927 q 488 826 513 852 q 426 800 463 800 q 363 826 389 800 q 338 890 338 852 q 363 953 338 927 m -78 -292 q -75 -281 -78 -292 q 129 0 74 -205 l 320 712 q 363 746 329 746 l 417 746 q 444 725 444 746 q 442 712 444 720 l 251 0 q -78 -292 188 -235 z "},"k":{"ha":745,"x_min":136,"x_max":869,"o":"m 163 0 q 136 21 136 0 q 138 34 136 26 l 394 990 q 437 1024 403 1024 l 492 1024 q 518 1003 518 1024 q 516 990 518 998 l 318 250 q 703 729 490 559 q 780 760 741 760 q 844 733 819 760 q 869 670 869 707 q 843 607 869 633 q 781 581 818 581 q 719 606 745 581 q 695 652 700 626 q 472 392 570 547 q 701 234 701 391 q 686 136 701 191 l 659 34 q 616 0 650 0 l 562 0 q 535 21 535 0 q 537 34 535 26 l 571 163 q 582 233 582 204 q 441 344 582 331 q 260 34 333 180 q 217 0 243 0 l 163 0 z "},"l":{"ha":380,"x_min":136,"x_max":518,"o":"m 163 0 q 136 21 136 0 q 138 34 136 26 l 394 990 q 437 1024 403 1024 l 492 1024 q 518 1003 518 1024 q 516 990 518 998 l 260 34 q 217 0 251 0 l 163 0 z "},"m":{"ha":1262,"x_min":136,"x_max":1277,"o":"m 163 0 q 136 21 136 0 q 138 34 136 26 l 320 712 q 363 746 329 746 l 417 746 q 444 725 444 746 q 442 712 444 720 l 416 616 q 495 701 448 665 q 665 760 571 760 q 820 669 776 760 q 837 597 834 639 q 933 701 872 656 q 1105 760 1013 760 q 1261 669 1218 760 q 1277 587 1277 634 q 1261 481 1277 540 l 1142 34 q 1099 0 1133 0 l 1045 0 q 1018 21 1018 0 q 1020 34 1018 26 l 1139 481 q 1153 569 1153 532 q 1149 605 1153 589 q 1034 684 1128 684 q 878 604 943 684 q 821 481 841 557 l 701 34 q 658 0 692 0 l 604 0 q 576 21 576 0 q 578 34 576 26 l 699 481 q 712 569 712 532 q 708 605 712 589 q 593 684 687 684 q 437 604 503 684 q 380 481 400 557 l 260 34 q 217 0 251 0 l 163 0 z "},"n":{"ha":821,"x_min":136,"x_max":836,"o":"m 163 0 q 136 21 136 0 q 138 34 136 26 l 320 712 q 363 746 329 746 l 417 746 q 444 725 444 746 q 442 712 444 720 q 416 616 442 712 q 495 701 448 665 q 665 760 571 760 q 820 669 777 760 q 836 587 836 634 q 821 481 836 540 l 701 34 q 659 0 692 0 l 604 0 q 577 21 577 0 q 579 34 577 26 l 699 481 q 712 570 712 532 q 708 605 712 590 q 591 684 686 684 q 437 604 503 684 q 380 481 400 557 l 260 34 q 217 0 251 0 l 163 0 z "},"o":{"ha":765,"x_min":142,"x_max":823,"o":"m 391 31 q 564 134 487 31 q 669 373 627 220 q 698 555 698 480 q 692 612 698 587 q 574 715 671 715 q 403 612 479 715 q 296 373 337 523 q 269 195 269 270 q 274 134 269 162 q 391 31 295 31 m 379 -14 q 191 79 253 -14 q 142 246 142 150 q 161 373 142 305 q 349 667 210 554 q 589 760 461 760 q 774 667 711 760 q 823 502 823 597 q 804 373 823 442 q 616 79 755 192 q 379 -14 504 -14 z "},"p":{"ha":779,"x_min":61,"x_max":838,"o":"m 406 -14 q 267 64 295 -14 l 185 -244 q 142 -278 176 -278 l 87 -278 q 61 -257 61 -278 q 63 -244 61 -252 l 319 712 q 362 746 328 746 l 416 746 q 444 725 444 746 q 441 712 444 720 l 433 682 q 612 760 498 760 q 804 648 735 760 q 838 512 838 592 q 818 374 838 450 q 656 98 773 208 q 406 -14 538 -14 m 397 37 q 578 141 494 37 q 682 373 641 219 q 709 543 709 475 q 702 605 709 578 q 577 709 673 709 q 473 669 519 709 q 392 530 416 620 l 308 216 q 297 145 297 177 q 315 77 297 104 q 397 37 339 37 z "},"q":{"ha":780,"x_min":140,"x_max":843,"o":"m 366 -14 q 175 98 243 -14 q 140 234 140 154 q 161 372 140 296 q 322 648 205 538 q 573 760 441 760 q 711 682 684 760 l 719 712 q 762 746 727 746 l 817 746 q 843 725 843 746 q 841 712 843 720 l 585 -244 q 543 -278 576 -278 l 488 -278 q 461 -257 461 -278 q 463 -244 461 -252 l 545 64 q 366 -14 480 -14 m 401 37 q 506 77 460 37 q 586 216 562 126 l 670 530 q 681 602 681 570 q 664 669 681 642 q 581 709 640 709 q 401 605 485 709 q 297 373 338 527 q 269 203 270 271 q 277 141 269 168 q 401 37 305 37 z "},"r":{"ha":634,"x_min":136,"x_max":780,"o":"m 163 0 q 136 21 136 0 q 138 34 136 26 l 320 712 q 363 746 329 746 l 417 746 q 444 725 444 746 q 442 712 444 720 q 595 760 507 760 q 749 687 698 760 q 780 593 780 643 q 772 543 780 564 q 744 495 763 515 q 678 468 718 468 q 616 494 642 468 q 591 557 591 520 q 616 621 591 595 q 679 647 642 647 q 718 637 699 647 q 603 712 686 712 q 471 658 531 712 q 382 490 413 606 l 260 34 q 217 0 251 0 l 163 0 z "},"s":{"ha":665,"x_min":106,"x_max":724,"o":"m 332 -14 q 154 58 218 -14 q 106 170 106 111 q 114 221 106 197 q 142 265 121 244 q 208 292 171 292 q 270 266 245 292 q 296 202 296 239 q 270 139 296 165 q 208 113 244 113 q 169 123 187 113 q 329 41 220 41 q 460 84 403 41 q 541 195 524 132 q 545 233 545 212 q 479 328 545 293 l 379 382 q 273 528 273 439 q 286 597 273 564 q 397 718 313 669 q 554 760 467 760 q 688 705 639 760 q 724 618 724 666 q 715 569 724 592 q 687 527 707 547 q 622 502 661 502 q 560 528 585 502 q 534 591 534 554 q 560 655 534 629 q 623 681 586 681 q 661 671 643 681 q 565 710 625 710 q 455 679 499 710 q 390 591 404 643 q 387 568 387 579 q 456 474 387 511 l 549 426 q 668 269 668 363 q 654 186 668 224 q 536 44 622 102 q 332 -14 452 -14 z "},"t":{"ha":454,"x_min":174,"x_max":647,"o":"m 201 0 q 174 21 174 0 q 176 34 174 26 l 350 685 l 208 685 q 191 697 191 685 q 193 705 191 700 l 198 726 q 224 746 203 746 l 366 746 l 432 990 q 475 1024 441 1024 l 530 1024 q 556 1003 556 1024 q 554 990 556 998 l 488 746 l 631 746 q 647 733 647 746 q 646 726 647 730 l 640 705 q 614 685 635 685 l 472 685 l 298 34 q 255 0 289 0 l 201 0 z "},"u":{"ha":821,"x_min":184,"x_max":885,"o":"m 658 0 l 604 0 q 576 21 576 0 q 578 34 576 26 l 605 130 q 526 45 572 81 q 356 -14 450 -14 q 201 77 243 -14 q 184 159 184 112 q 200 264 184 206 l 319 712 q 362 746 328 746 l 416 746 q 444 725 444 746 q 441 712 444 720 l 322 264 q 309 176 309 214 q 313 141 309 156 q 429 62 334 62 q 583 142 518 62 q 641 264 621 189 l 761 712 q 804 746 770 746 l 858 746 q 885 725 885 746 q 883 712 885 720 l 701 34 q 658 0 692 0 z "},"v":{"ha":795,"x_min":186,"x_max":859,"o":"m 388 -14 q 211 73 262 -14 q 186 172 186 115 q 199 260 186 212 l 319 712 q 362 746 328 746 l 416 746 q 444 725 444 746 q 441 712 444 720 l 320 258 q 309 182 309 215 q 320 121 309 148 q 450 54 348 54 q 663 156 575 54 q 744 317 719 222 q 757 415 757 367 q 743 509 757 466 q 694 585 728 554 q 652 672 652 625 q 655 696 652 684 q 686 744 662 726 q 739 760 707 760 q 845 658 812 760 q 859 545 859 614 q 835 378 859 468 q 709 145 800 249 q 388 -14 571 -14 z "},"w":{"ha":1236,"x_min":184,"x_max":1301,"o":"m 357 -14 q 201 77 245 -14 q 184 161 184 113 q 200 264 184 206 l 319 712 q 362 746 328 746 l 416 746 q 444 725 444 746 q 441 712 444 720 l 321 263 q 309 176 309 215 q 313 141 309 156 q 426 61 334 61 q 583 142 518 61 q 640 260 622 191 l 761 712 q 804 746 770 746 l 859 746 q 885 725 885 746 q 883 712 885 720 l 762 258 q 751 182 751 218 q 762 121 751 148 q 891 54 789 54 q 1104 156 1017 54 q 1185 317 1160 222 q 1198 415 1198 367 q 1184 509 1198 466 q 1136 585 1169 554 q 1094 672 1094 625 q 1097 696 1094 684 q 1127 744 1103 726 q 1180 760 1148 760 q 1286 658 1253 760 q 1301 545 1301 614 q 1276 378 1301 468 q 1151 145 1242 249 q 829 -14 1013 -14 q 652 73 699 -14 q 629 146 634 106 q 532 42 593 90 q 357 -14 459 -14 z "},"x":{"ha":618,"x_min":53,"x_max":770,"o":"m 63 0 q 53 7 53 0 q 60 17 53 12 q 355 231 239 133 l 221 712 q 220 722 220 715 q 246 746 221 746 l 302 746 q 344 712 334 746 l 456 313 q 671 582 581 440 q 621 606 646 582 q 595 670 595 631 q 621 733 595 707 q 683 760 646 760 q 745 733 720 760 q 770 670 770 707 q 751 608 770 642 q 715 553 739 588 q 471 260 615 406 l 534 34 q 534 24 534 31 q 509 0 534 0 l 452 0 q 410 34 419 0 l 370 177 q 144 13 272 96 q 107 0 125 0 l 63 0 z "},"y":{"ha":821,"x_min":101,"x_max":884,"o":"m 356 -14 q 201 77 244 -14 q 184 161 184 113 q 199 264 184 206 l 319 712 q 362 746 328 746 l 416 746 q 444 725 444 746 q 441 712 444 720 l 321 264 q 308 178 308 214 q 312 142 308 157 q 429 62 334 62 q 583 142 517 62 q 640 264 620 189 l 760 712 q 804 746 769 746 l 858 746 q 884 725 884 746 q 882 712 884 720 l 710 68 q 536 -205 663 -110 q 292 -292 421 -292 q 159 -258 206 -292 q 101 -152 101 -218 q 114 -96 101 -121 q 138 -64 123 -78 q 201 -39 165 -39 q 263 -65 238 -39 q 289 -128 289 -91 q 263 -192 289 -165 q 201 -218 237 -218 q 162 -208 180 -218 q 284 -250 212 -250 q 475 -167 383 -250 q 570 0 541 -107 l 604 130 q 526 45 572 81 q 356 -14 450 -14 z "},"z":{"ha":686,"x_min":18,"x_max":864,"o":"m 26 -14 q 18 -7 26 -14 l 641 667 q 519 688 572 667 q 432 709 466 709 q 310 663 359 709 q 357 637 336 659 q 383 574 383 612 q 357 511 383 537 q 295 485 332 485 q 233 511 258 485 q 208 574 208 537 q 212 605 208 589 q 294 718 231 675 q 440 760 355 760 q 565 736 473 760 q 698 722 620 722 q 857 760 771 722 l 864 753 l 241 79 q 378 58 323 79 q 483 37 431 37 q 606 83 556 37 q 558 109 579 87 q 532 172 532 134 q 558 235 532 209 q 621 261 584 261 q 683 235 657 261 q 708 172 708 209 q 704 141 708 157 q 621 28 685 71 q 475 -14 560 -14 q 332 10 424 -14 q 205 24 277 24 q 26 -14 121 24 z "},"{":{"ha":497,"x_min":171,"x_max":770,"o":"m 410 -136 q 235 -67 288 -136 q 195 58 195 -15 q 208 145 195 97 l 257 327 q 266 389 266 359 q 171 512 266 479 q 356 697 317 553 l 405 879 q 546 1091 439 1007 q 757 1160 633 1160 q 770 1149 770 1160 q 769 1143 770 1145 l 764 1121 q 742 1104 760 1104 q 628 1067 679 1104 q 528 882 567 1024 l 478 696 q 291 512 437 547 q 388 389 388 482 q 379 328 388 361 l 330 142 q 311 25 311 71 q 330 -43 311 -22 q 425 -80 362 -80 q 438 -91 438 -80 q 437 -97 438 -94 l 431 -119 q 410 -136 427 -136 z "},"|":{"ha":444,"x_min":149,"x_max":569,"o":"m 505 1126 l 543 1126 q 569 1105 569 1126 q 567 1092 569 1099 l 256 -68 q 214 -102 248 -102 l 176 -102 q 149 -81 149 -102 q 151 -68 149 -75 l 462 1092 q 505 1126 471 1126 z "},"}":{"ha":497,"x_min":1,"x_max":600,"o":"m 14 -136 q 1 -125 1 -136 q 2 -119 1 -121 l 8 -97 q 29 -80 13 -80 q 144 -43 92 -80 q 243 142 205 0 l 293 328 q 480 512 332 473 q 382 631 382 538 q 392 696 382 661 l 442 882 q 461 999 461 953 q 441 1067 461 1046 q 347 1104 410 1104 q 334 1114 334 1104 q 334 1121 334 1118 l 340 1143 q 361 1160 344 1160 q 536 1091 486 1160 q 575 965 575 1038 q 563 879 575 924 l 514 697 q 505 635 505 665 q 600 512 505 543 q 415 327 454 470 l 366 145 q 225 -67 331 14 q 14 -136 136 -136 z "},"~":{"ha":809,"x_min":215,"x_max":868,"o":"m 431 618 q 514 596 470 618 l 660 524 q 713 508 691 508 q 855 600 791 508 l 868 600 q 652 406 802 406 q 570 427 614 406 l 424 500 q 370 515 393 515 q 229 423 293 515 l 215 423 q 431 618 279 618 z "}," ":{"ha":407,"x_min":0,"x_max":0,"o":""},"¡":{"ha":447,"x_min":79,"x_max":491,"o":"m 341 733 q 353 746 341 733 q 403 760 366 760 q 465 733 439 760 q 491 670 491 707 q 465 607 491 633 q 403 581 439 581 q 341 607 366 581 q 315 670 315 633 q 341 733 315 707 m 224 -266 q 157 -292 197 -292 q 95 -262 117 -292 q 79 -212 79 -242 q 87 -168 79 -191 l 326 509 q 351 529 333 529 l 380 529 q 395 515 395 529 q 395 509 395 512 l 260 -187 q 257 -202 259 -193 q 224 -266 248 -242 z "},"¢":{"ha":731,"x_min":155,"x_max":810,"o":"m 355 -10 q 204 79 257 4 q 155 243 155 147 q 174 373 155 302 q 362 667 227 567 q 560 754 456 737 l 578 821 q 612 848 585 848 l 626 848 q 648 833 648 848 q 646 821 648 828 l 629 760 q 779 685 724 759 q 810 593 810 644 q 803 543 810 566 q 774 495 793 515 q 709 468 748 468 q 647 494 673 468 q 622 557 622 520 q 648 621 622 595 q 710 647 673 647 q 749 637 730 647 q 631 709 713 709 q 616 708 623 709 l 436 38 q 451 37 444 37 q 632 114 547 37 q 673 155 653 133 l 683 155 l 663 79 q 422 -14 557 -8 l 406 -75 q 372 -102 399 -102 l 358 -102 q 337 -85 337 -102 q 338 -75 337 -80 l 355 -10 m 372 51 l 544 695 q 422 610 475 672 q 313 373 356 532 q 286 205 286 272 q 296 136 286 165 q 372 51 317 74 z "},"£":{"ha":826,"x_min":153,"x_max":975,"o":"m 163 -14 q 161 -7 163 -14 l 272 407 l 170 407 q 153 418 153 407 q 155 427 153 422 l 160 448 q 186 468 165 468 l 288 468 l 337 651 q 525 945 389 844 q 779 1038 648 1038 q 945 964 888 1038 q 975 871 975 925 q 968 821 975 845 q 940 774 958 793 q 875 746 913 746 q 813 772 838 746 q 787 836 787 798 q 813 899 787 873 q 876 925 839 925 q 914 915 896 925 q 783 987 876 987 q 585 888 668 987 q 473 651 513 801 q 424 468 473 651 l 593 468 q 609 456 609 468 q 608 448 609 453 l 602 427 q 576 407 597 407 l 408 407 l 319 79 q 381 82 349 82 q 509 58 446 82 q 621 37 562 37 q 746 86 701 37 q 699 111 719 90 q 673 174 673 137 q 699 238 673 212 q 761 264 724 264 q 823 238 798 264 q 848 174 848 212 q 844 141 848 160 q 762 28 826 71 q 613 -14 701 -14 q 465 10 558 -14 q 356 24 411 24 q 256 12 303 24 q 163 -14 208 0 z "},"¤":{"ha":1032,"x_min":187,"x_max":1114,"o":"m 434 274 q 568 191 469 191 q 745 274 666 191 q 865 516 822 355 q 890 672 890 607 q 875 758 890 723 q 741 841 840 841 q 564 758 644 841 q 444 516 487 678 q 419 360 419 425 q 434 274 419 309 m 759 903 q 969 808 891 903 l 1061 881 l 1114 809 l 1013 729 q 1025 640 1025 688 q 1008 516 1025 583 q 881 283 970 378 l 948 192 l 857 120 l 792 209 q 551 130 675 130 q 353 209 427 130 l 239 120 l 187 192 l 303 283 q 283 392 283 332 q 301 516 283 449 q 410 729 334 640 l 353 809 l 444 881 l 496 808 q 759 903 625 903 z "},"¥":{"ha":897,"x_min":255,"x_max":1101,"o":"m 414 0 q 387 21 387 0 q 389 34 387 26 l 448 258 l 271 258 q 255 269 255 258 q 256 278 255 273 l 262 298 q 288 319 267 319 l 465 319 l 471 345 l 459 406 l 311 406 q 294 417 294 406 q 296 426 294 420 l 301 446 q 327 467 307 467 l 446 467 l 336 990 q 336 1000 336 994 q 361 1024 336 1024 l 428 1024 q 470 990 463 1024 l 577 467 l 630 467 l 1025 1007 q 1050 1024 1037 1024 l 1086 1024 q 1101 1015 1101 1024 q 1098 1007 1101 1010 l 699 467 l 827 467 q 844 455 844 467 q 842 446 844 452 l 837 426 q 811 406 831 406 l 653 406 l 608 344 l 601 319 l 788 319 q 804 307 804 319 q 803 298 804 304 l 798 278 q 772 258 792 258 l 585 258 l 525 34 q 482 0 516 0 l 414 0 z "},"¦":{"ha":444,"x_min":149,"x_max":569,"o":"m 176 -102 q 149 -81 149 -102 q 151 -68 149 -75 l 280 414 q 323 448 289 448 l 361 448 q 387 427 387 448 q 385 414 387 420 l 256 -68 q 214 -102 248 -102 l 176 -102 m 505 1126 l 543 1126 q 569 1105 569 1126 q 567 1092 569 1099 l 438 610 q 395 576 429 576 l 358 576 q 331 597 331 576 q 333 610 331 603 l 462 1092 q 505 1126 471 1126 z "},"§":{"ha":774,"x_min":200,"x_max":849,"o":"m 370 -14 q 235 41 285 -14 q 200 128 200 80 q 208 177 200 154 q 237 219 216 199 q 302 244 262 244 q 364 218 338 244 q 389 155 389 192 q 363 91 389 117 q 301 65 338 65 q 262 75 281 65 q 360 33 299 33 q 468 63 421 33 q 526 135 514 93 q 530 163 530 150 q 458 257 530 221 l 365 304 q 234 469 234 370 q 240 515 234 491 q 374 693 267 618 l 441 650 q 359 540 378 609 q 355 512 355 526 q 437 406 355 449 l 538 353 q 640 210 640 299 q 633 163 640 188 q 532 29 612 81 q 370 -14 467 -14 m 680 1038 q 814 983 764 1038 q 849 896 849 944 q 841 847 849 870 q 812 805 833 825 q 747 780 787 780 q 685 806 711 780 q 660 869 660 832 q 686 933 660 907 q 748 959 711 959 q 787 949 768 959 q 689 991 750 991 q 581 961 628 991 q 524 889 535 931 q 519 861 519 874 q 591 767 519 803 l 684 720 q 815 555 815 654 q 809 509 815 533 q 675 331 783 406 l 608 374 q 690 484 671 415 q 694 512 694 498 q 612 618 694 575 l 511 671 q 409 814 409 725 q 416 861 409 836 q 517 995 437 943 q 680 1038 582 1038 z "},"¨":{"ha":431,"x_min":274,"x_max":637,"o":"m 503 952 q 514 964 503 952 q 559 975 526 975 q 614 952 591 975 q 637 895 637 929 q 614 837 637 860 q 559 814 591 814 q 503 837 526 814 q 479 895 479 861 q 503 952 479 928 m 297 952 q 309 964 297 952 q 353 975 320 975 q 408 952 385 975 q 431 895 431 929 q 408 837 431 860 q 353 814 385 814 q 297 837 320 814 q 274 895 274 860 q 297 952 274 929 z "},"©":{"ha":953,"x_min":259,"x_max":1042,"o":"m 734 917 q 845 870 809 917 q 870 802 870 837 q 855 752 870 772 q 810 729 838 729 q 768 746 784 729 q 752 784 752 762 q 770 827 752 810 q 820 846 787 844 q 738 885 795 885 q 643 842 689 885 q 550 651 588 791 q 529 524 529 574 q 540 465 529 488 q 615 419 562 419 q 783 513 701 419 l 789 513 l 774 455 q 601 385 697 385 q 463 439 503 385 q 430 551 430 483 q 446 655 430 597 q 576 863 483 795 q 734 917 649 917 m 755 1038 q 989 928 909 1038 q 1042 764 1042 859 q 1026 653 1042 712 q 840 372 980 479 q 545 262 694 262 q 311 371 391 262 q 259 534 259 440 q 275 647 259 587 q 460 927 321 814 q 755 1038 596 1038 m 740 994 q 489 890 622 994 q 326 646 361 790 q 311 536 311 586 q 350 402 311 455 q 560 305 420 305 q 814 410 682 305 q 976 653 938 509 q 991 760 991 711 q 950 897 991 841 q 740 994 880 994 z "},"ª":{"ha":460,"x_min":189,"x_max":637,"o":"m 230 631 l 568 631 q 590 614 590 631 q 589 604 590 610 l 583 584 q 549 557 576 557 l 210 557 q 189 574 189 557 q 191 584 189 579 l 196 604 q 230 631 203 631 m 399 710 q 444 729 421 710 q 481 796 469 750 l 522 953 q 528 991 528 975 q 524 1017 528 1008 q 487 1039 513 1039 q 415 994 447 1039 q 363 873 383 949 q 348 781 348 819 q 350 754 348 766 q 399 710 358 710 m 488 1072 q 552 1044 531 1072 q 578 1065 557 1065 l 619 1065 q 637 1052 637 1065 q 635 1044 637 1049 l 545 705 q 518 684 539 684 l 475 684 q 458 697 458 684 q 459 705 458 699 l 465 728 q 372 678 422 678 q 275 736 309 678 q 258 805 258 764 q 267 871 258 835 q 349 1013 291 959 q 488 1072 411 1072 z "},"«":{"ha":806,"x_min":235,"x_max":897,"o":"m 861 877 q 873 873 868 877 l 890 859 q 897 848 897 854 q 897 843 897 846 q 890 831 895 838 l 601 522 l 727 247 q 731 231 731 238 q 730 224 731 227 q 708 199 727 212 l 678 180 q 654 172 665 172 q 633 186 640 172 l 497 495 l 844 867 q 861 877 853 877 m 599 877 q 611 873 606 877 l 628 859 q 635 848 635 854 q 634 843 635 846 q 627 831 633 838 l 338 522 l 465 247 q 469 231 469 238 q 468 224 469 227 q 446 199 465 212 l 416 180 q 392 172 402 172 q 370 186 377 172 l 235 495 l 582 867 q 599 877 591 877 z "},"¬":{"ha":826,"x_min":233,"x_max":868,"o":"m 286 563 l 841 563 q 868 542 868 563 q 866 529 868 536 q 859 517 865 524 l 659 278 q 624 258 642 258 l 560 258 q 548 267 548 258 q 555 278 548 270 l 708 461 l 259 461 q 233 482 233 461 q 235 495 233 488 l 243 529 q 286 563 252 563 z "},"­":{"ha":768,"x_min":233,"x_max":810,"o":"m 286 563 l 783 563 q 810 542 810 563 q 808 529 810 536 l 800 495 q 756 461 791 461 l 259 461 q 233 482 233 461 q 235 495 233 488 l 243 529 q 286 563 252 563 z "},"®":{"ha":953,"x_min":259,"x_max":1042,"o":"m 755 1038 q 989 928 909 1038 q 1042 764 1042 859 q 1026 653 1042 712 q 840 372 980 479 q 545 262 694 262 q 311 371 391 262 q 259 534 259 440 q 275 647 259 587 q 460 927 321 814 q 755 1038 596 1038 m 740 994 q 489 890 622 994 q 326 646 361 790 q 311 536 311 586 q 350 402 311 455 q 560 305 420 305 q 814 410 682 305 q 976 653 938 509 q 991 760 991 711 q 950 897 991 841 q 740 994 880 994 m 449 406 q 433 418 433 406 q 435 426 433 420 l 533 798 q 558 818 538 818 l 614 818 q 629 806 629 818 q 628 798 629 804 l 584 632 q 651 599 602 599 q 720 627 691 599 q 779 739 758 664 q 788 801 788 774 q 778 849 788 829 q 693 894 756 894 q 446 760 562 894 l 433 766 q 722 931 546 931 q 864 878 821 931 q 891 796 891 843 q 884 744 891 772 q 815 629 865 677 q 708 567 766 583 q 764 504 748 551 l 791 426 q 793 417 793 420 q 777 406 793 406 l 722 406 q 696 426 703 406 l 675 495 q 616 562 657 552 q 569 576 583 569 l 530 426 q 505 406 524 406 l 449 406 z "},"¯":{"ha":441,"x_min":267,"x_max":651,"o":"m 311 933 l 630 933 q 651 916 651 933 q 650 906 651 911 l 641 872 q 606 845 634 845 l 288 845 q 267 861 267 845 q 268 872 267 867 l 277 906 q 311 933 283 933 z "},"°":{"ha":378,"x_min":268,"x_max":594,"o":"m 466 1036 q 406 1004 431 1036 q 359 902 377 969 q 347 827 347 857 q 351 800 347 811 q 395 768 361 768 q 456 800 431 768 q 503 902 485 835 q 515 978 515 949 q 511 1004 515 994 q 466 1036 500 1036 m 363 1031 q 475 1072 417 1072 q 569 1031 534 1072 q 594 958 594 1002 q 586 902 594 932 q 499 772 564 820 q 385 732 443 732 q 293 772 327 732 q 268 848 268 803 q 275 902 268 875 q 363 1031 297 984 z "},"±":{"ha":836,"x_min":189,"x_max":867,"o":"m 637 882 l 671 882 q 699 861 699 882 q 696 848 699 855 l 644 650 l 841 650 q 867 629 867 650 q 865 616 867 623 l 857 582 q 814 548 848 548 l 616 548 l 563 350 q 520 316 554 316 l 486 316 q 459 337 459 316 q 461 350 459 342 l 515 548 l 317 548 q 290 569 290 548 q 292 582 290 574 l 300 616 q 344 650 309 650 l 542 650 l 595 848 q 637 882 604 882 m 243 275 l 741 275 q 767 254 767 275 q 765 241 767 248 l 756 208 q 713 174 747 174 l 216 174 q 189 195 189 174 q 191 208 189 200 l 200 241 q 243 275 210 275 z "},"²":{"ha":450,"x_min":179,"x_max":646,"o":"m 507 1072 q 624 1028 591 1072 q 646 964 646 999 q 642 931 646 948 q 518 789 621 844 q 372 702 418 734 q 297 633 326 669 q 340 638 318 638 q 420 622 379 638 q 494 610 450 610 q 578 641 538 610 l 588 641 q 425 541 525 541 q 355 555 397 541 q 285 570 317 570 q 189 541 232 570 l 179 541 q 303 702 232 639 q 445 811 374 765 q 534 924 516 857 q 540 961 540 944 q 530 1002 540 985 q 472 1032 513 1032 q 399 1006 435 1032 q 350 958 366 983 q 386 941 371 956 q 400 904 400 926 q 387 869 400 884 q 341 849 371 849 q 296 871 311 849 q 284 908 284 886 q 299 958 284 932 q 361 1026 322 996 q 507 1072 420 1072 z "},"³":{"ha":414,"x_min":203,"x_max":597,"o":"m 476 1072 q 573 1042 543 1072 q 597 985 597 1019 q 593 956 597 971 q 487 852 574 886 q 563 805 539 842 q 576 753 576 784 q 568 701 576 730 q 482 587 551 634 q 337 540 412 540 q 252 560 286 540 q 203 644 203 591 q 222 696 203 674 q 269 715 239 715 q 309 699 292 715 q 324 659 324 683 q 310 622 324 637 q 257 600 291 601 q 327 572 278 572 q 415 611 376 572 q 469 710 453 650 q 475 751 475 733 q 457 802 475 783 q 376 838 426 833 l 379 847 q 500 959 477 869 q 506 998 506 980 q 500 1019 506 1010 q 451 1042 487 1042 q 374 1011 406 1042 q 410 999 397 1010 q 427 960 427 985 q 414 924 427 938 q 370 904 395 904 q 327 922 344 904 q 313 964 313 937 q 321 996 313 981 q 385 1054 345 1036 q 476 1072 425 1072 z "},"´":{"ha":296,"x_min":248,"x_max":515,"o":"m 454 1006 q 500 987 484 1006 q 515 943 515 970 q 473 886 515 905 l 256 787 l 248 799 l 391 976 q 454 1006 415 1006 z "},"µ":{"ha":861,"x_min":136,"x_max":905,"o":"m 624 0 q 597 21 597 0 q 599 34 597 26 l 625 130 q 546 45 593 81 q 376 -14 470 -14 q 275 13 315 -14 l 271 0 q 254 -122 254 -67 q 325 -281 254 -230 l 322 -292 q 136 -92 136 -248 q 149 0 136 -51 l 340 712 q 382 746 349 746 l 437 746 q 464 725 464 746 q 462 712 464 720 l 342 264 q 329 176 329 214 q 333 141 329 156 q 450 62 355 62 q 604 142 538 62 q 661 264 641 189 l 781 712 q 824 746 790 746 l 878 746 q 905 725 905 746 q 903 712 905 720 l 721 34 q 678 0 712 0 l 624 0 z "},"¶":{"ha":747,"x_min":299,"x_max":816,"o":"m 476 0 q 449 21 449 0 q 451 34 449 26 l 581 518 q 526 515 551 515 q 356 568 413 515 q 299 701 299 621 q 310 777 299 736 q 477 989 348 918 q 665 1038 564 1038 q 816 920 816 1038 q 806 850 816 888 l 587 34 q 544 0 578 0 l 476 0 m 543 44 l 764 870 l 724 870 l 502 44 l 543 44 z "},"·":{"ha":243,"x_min":172,"x_max":347,"o":"m 197 577 q 210 590 197 577 q 260 603 223 603 q 322 577 296 603 q 347 513 347 551 q 322 450 347 476 q 260 424 296 424 q 197 450 223 424 q 172 513 172 476 q 197 577 172 551 z "},"¸":{"ha":247,"x_min":-37,"x_max":178,"o":"m 39 0 l 94 0 l 87 -26 q 149 -54 127 -33 q 178 -117 178 -80 q 174 -151 178 -135 q 114 -245 157 -210 q -10 -292 58 -292 q -37 -271 -37 -292 q -35 -258 -37 -265 l -28 -232 q 15 -198 -20 -198 q 64 -180 41 -198 q 92 -138 85 -165 q 94 -121 94 -130 q 80 -88 94 -102 q 20 -73 62 -73 l 39 0 z "},"¹":{"ha":323,"x_min":277,"x_max":510,"o":"m 500 1078 l 510 1078 l 373 566 q 336 547 368 547 l 302 547 q 277 560 277 547 q 278 566 277 564 l 363 887 q 368 914 368 903 q 326 965 368 954 l 328 972 q 500 1078 428 1009 z "},"º":{"ha":415,"x_min":189,"x_max":625,"o":"m 230 631 l 523 631 q 545 614 545 631 q 543 604 545 609 l 538 584 q 503 557 530 557 l 210 557 q 189 573 189 557 q 191 584 189 578 l 196 604 q 230 631 203 631 m 487 1042 q 418 996 454 1042 q 361 875 381 948 q 349 789 349 825 q 352 754 349 770 q 398 709 362 709 q 467 754 432 709 q 522 875 501 799 q 536 964 536 927 q 533 997 536 982 q 487 1042 523 1042 m 495 1072 q 601 1023 569 1072 q 625 940 625 987 q 615 874 625 909 q 522 727 590 781 q 388 678 460 678 q 283 727 315 678 q 259 811 259 763 q 269 876 259 841 q 358 1019 293 967 q 495 1072 422 1072 z "},"»":{"ha":806,"x_min":190,"x_max":852,"o":"m 226 172 q 214 176 218 172 l 197 189 q 190 200 190 195 q 191 205 190 203 q 197 217 192 211 l 486 526 l 360 802 q 356 818 356 810 q 357 824 356 821 q 379 849 360 837 l 409 868 q 433 877 422 877 q 454 862 448 877 l 590 553 l 243 181 q 226 172 234 172 m 488 172 q 476 176 481 172 l 459 189 q 452 200 452 195 q 453 205 452 203 q 460 217 454 211 l 749 526 l 623 802 q 618 818 618 810 q 619 824 618 821 q 642 849 623 837 l 671 868 q 695 877 685 877 q 717 862 710 877 l 852 553 l 505 181 q 488 172 496 172 z "},"¼":{"ha":971,"x_min":119,"x_max":1054,"o":"m 176 -27 q 159 -21 168 -27 l 131 -2 q 119 18 119 6 q 119 24 119 21 q 131 44 121 33 l 966 1032 q 996 1051 982 1051 q 1015 1045 1006 1051 l 1042 1026 q 1054 1006 1054 1018 q 1053 999 1054 1002 q 1042 980 1051 990 l 208 -8 q 176 -27 192 -27 m 523 1038 l 533 1038 l 396 526 q 359 506 391 506 l 326 506 q 300 519 300 506 q 301 526 300 523 l 387 846 q 391 873 391 862 q 349 924 391 913 l 351 932 q 523 1038 451 968 m 754 0 q 728 14 728 0 q 729 20 728 17 l 756 122 l 541 122 q 529 130 529 122 q 530 135 529 132 l 532 142 q 543 159 534 152 l 951 532 l 961 532 l 861 159 l 899 159 q 909 151 909 159 q 909 146 909 149 l 905 135 q 889 122 901 122 l 851 122 l 824 20 q 788 0 819 0 l 754 0 m 766 159 l 823 370 l 593 159 l 766 159 z "},"½":{"ha":1057,"x_min":119,"x_max":1054,"o":"m 899 524 q 1017 481 984 524 q 1038 416 1038 452 q 1034 384 1038 401 q 911 241 1013 297 q 765 154 810 187 q 690 85 719 121 q 733 91 711 91 q 812 75 772 91 q 886 62 843 62 q 970 94 931 62 l 981 94 q 818 -7 918 -7 q 748 8 790 -7 q 677 22 709 22 q 582 -7 625 22 l 572 -7 q 696 155 625 92 q 838 263 767 218 q 927 376 909 309 q 932 414 932 397 q 922 455 932 437 q 865 485 905 485 q 791 459 827 485 q 743 410 758 435 q 779 393 764 408 q 793 357 793 379 q 780 321 793 337 q 734 302 764 302 q 688 323 704 302 q 677 361 677 339 q 692 410 677 385 q 753 479 715 449 q 899 524 812 524 m 176 -27 q 159 -21 168 -27 l 131 -2 q 119 18 119 6 q 119 24 119 21 q 131 44 121 33 l 966 1032 q 996 1051 982 1051 q 1015 1045 1006 1051 l 1042 1026 q 1054 1006 1054 1018 q 1053 999 1054 1002 q 1042 980 1051 990 l 208 -8 q 176 -27 192 -27 m 523 1038 l 533 1038 l 396 526 q 359 506 391 506 l 326 506 q 300 519 300 506 q 301 526 300 523 l 387 846 q 391 873 391 862 q 349 924 391 913 l 351 932 q 523 1038 451 968 z "},"¾":{"ha":1140,"x_min":260,"x_max":1223,"o":"m 533 1031 q 630 1002 600 1031 q 654 945 654 978 q 650 915 654 930 q 544 811 631 846 q 620 764 596 802 q 633 713 633 743 q 625 661 633 690 q 539 547 608 593 q 394 499 469 499 q 309 519 342 499 q 260 604 260 550 q 279 655 260 633 q 326 675 296 675 q 366 658 349 675 q 381 618 381 642 q 367 581 381 597 q 314 559 348 560 q 384 532 335 532 q 472 570 433 532 q 526 669 510 609 q 532 711 532 692 q 514 761 532 743 q 433 798 483 793 l 436 806 q 557 918 534 829 q 563 957 563 939 q 557 979 563 969 q 508 1001 544 1001 q 431 970 463 1001 q 467 958 454 970 q 484 920 484 944 q 471 883 484 897 q 427 863 452 863 q 384 881 401 863 q 370 923 370 896 q 378 956 370 940 q 442 1013 401 995 q 533 1031 481 1031 m 345 -27 q 328 -21 336 -27 l 300 -2 q 288 18 288 6 q 288 24 288 21 q 300 44 290 33 l 1135 1032 q 1165 1051 1151 1051 q 1184 1045 1175 1051 l 1211 1026 q 1223 1006 1223 1018 q 1222 999 1223 1002 q 1211 980 1220 990 l 377 -8 q 345 -27 361 -27 m 923 0 q 897 14 897 0 q 898 20 897 17 l 925 122 l 709 122 q 698 130 698 122 q 699 135 698 132 l 701 142 q 711 159 703 152 l 1120 532 l 1130 532 l 1030 159 l 1068 159 q 1078 151 1078 159 q 1078 146 1078 149 l 1074 135 q 1058 122 1070 122 l 1020 122 l 993 20 q 957 0 987 0 l 923 0 m 935 159 l 991 370 l 762 159 l 935 159 z "},"¿":{"ha":852,"x_min":88,"x_max":756,"o":"m 334 -292 q 128 -207 190 -292 q 88 -85 88 -153 q 98 -14 88 -51 q 303 248 139 139 l 461 352 q 574 509 547 408 q 600 529 579 529 l 628 529 q 644 517 644 529 q 643 509 644 513 q 503 296 611 389 l 418 222 q 254 -1 281 104 q 243 -74 243 -41 q 261 -153 243 -120 q 404 -227 301 -227 q 581 -167 500 -227 q 687 -45 649 -116 q 668 -47 678 -47 q 606 -22 631 -47 q 581 41 581 3 q 606 104 581 78 q 668 130 631 130 q 730 104 705 130 q 756 41 756 78 q 611 -197 756 -81 q 334 -292 493 -292 m 585 733 q 598 746 585 733 q 647 760 610 760 q 709 733 684 760 q 735 670 735 707 q 709 607 735 633 q 647 581 684 581 q 585 607 610 581 q 559 670 559 633 q 585 733 559 707 z "},"À":{"ha":859,"x_min":0,"x_max":865,"o":"m 14 0 q 0 9 0 0 q 3 17 0 13 l 602 897 l 590 990 q 589 1000 589 996 q 615 1024 590 1024 l 684 1024 q 726 990 721 1024 l 864 34 q 865 24 865 29 q 839 0 864 0 l 770 0 q 728 34 733 0 l 684 339 l 296 339 l 76 17 q 50 0 64 0 l 14 0 m 615 808 l 337 400 l 675 400 l 615 808 m 471 1271 q 523 1291 489 1291 q 574 1253 557 1291 l 650 1084 l 636 1072 l 490 1163 q 453 1219 453 1187 q 471 1271 453 1251 z "},"Á":{"ha":859,"x_min":0,"x_max":898,"o":"m 14 0 q 0 9 0 0 q 3 17 0 13 l 602 897 l 590 990 q 589 1000 589 996 q 615 1024 590 1024 l 684 1024 q 726 990 721 1024 l 864 34 q 865 24 865 29 q 839 0 864 0 l 770 0 q 728 34 733 0 l 684 339 l 296 339 l 76 17 q 50 0 64 0 l 14 0 m 615 808 l 337 400 l 675 400 l 615 808 m 837 1291 q 883 1272 867 1291 q 898 1228 898 1255 q 857 1171 898 1190 l 639 1072 l 631 1084 l 774 1261 q 837 1291 798 1291 z "},"Â":{"ha":859,"x_min":0,"x_max":865,"o":"m 14 0 q 0 9 0 0 q 3 17 0 13 l 602 897 l 590 990 q 589 1000 589 996 q 615 1024 590 1024 l 684 1024 q 726 990 721 1024 l 864 34 q 865 24 865 29 q 839 0 864 0 l 770 0 q 728 34 733 0 l 684 339 l 296 339 l 76 17 q 50 0 64 0 l 14 0 m 615 808 l 337 400 l 675 400 l 615 808 m 694 1276 l 728 1276 q 764 1249 753 1276 l 837 1085 l 781 1085 q 739 1112 750 1085 l 699 1212 l 606 1112 q 549 1085 581 1085 l 484 1085 l 645 1249 q 694 1276 671 1276 z "},"Ã":{"ha":859,"x_min":0,"x_max":916,"o":"m 14 0 q 0 9 0 0 q 3 17 0 13 l 602 897 l 590 990 q 589 1000 589 996 q 615 1024 590 1024 l 684 1024 q 726 990 721 1024 l 864 34 q 865 24 865 29 q 839 0 864 0 l 770 0 q 728 34 733 0 l 684 339 l 296 339 l 76 17 q 50 0 64 0 l 14 0 m 615 808 l 337 400 l 675 400 l 615 808 m 659 1262 q 712 1245 691 1262 l 783 1190 q 813 1177 798 1177 q 906 1249 857 1177 l 916 1249 q 766 1099 866 1099 q 713 1116 734 1099 l 643 1171 q 612 1183 627 1183 q 518 1112 568 1183 l 508 1112 q 659 1262 559 1262 z "},"Ä":{"ha":859,"x_min":0,"x_max":865,"o":"m 14 0 q 0 9 0 0 q 3 17 0 13 l 602 897 l 590 990 q 589 1000 589 996 q 615 1024 590 1024 l 684 1024 q 726 990 721 1024 l 864 34 q 865 24 865 29 q 839 0 864 0 l 770 0 q 728 34 733 0 l 684 339 l 296 339 l 76 17 q 50 0 64 0 l 14 0 m 615 808 l 337 400 l 675 400 l 615 808 m 730 1237 q 742 1248 730 1237 q 787 1260 754 1260 q 842 1237 819 1260 q 865 1179 865 1214 q 842 1122 865 1145 q 787 1099 819 1099 q 730 1122 754 1099 q 707 1179 707 1145 q 730 1237 707 1213 m 525 1237 q 536 1249 525 1237 q 581 1260 548 1260 q 636 1237 613 1260 q 659 1179 659 1214 q 636 1122 659 1145 q 581 1099 613 1099 q 525 1122 548 1099 q 502 1179 502 1145 q 525 1237 502 1214 z "},"Å":{"ha":859,"x_min":0,"x_max":865,"o":"m 14 0 q 0 9 0 0 q 3 17 0 13 l 602 897 l 590 990 q 589 1000 589 996 q 615 1024 590 1024 l 684 1024 q 726 990 721 1024 l 864 34 q 865 24 865 29 q 839 0 864 0 l 770 0 q 728 34 733 0 l 684 339 l 296 339 l 76 17 q 50 0 64 0 l 14 0 m 615 808 l 337 400 l 675 400 l 615 808 m 739 1236 q 729 1245 739 1236 q 693 1255 720 1255 q 648 1236 667 1255 q 629 1190 629 1217 q 648 1143 629 1162 q 693 1124 667 1124 q 739 1143 720 1124 q 758 1190 758 1162 q 739 1236 758 1217 m 693 1308 q 775 1274 741 1308 q 810 1190 810 1240 q 775 1105 810 1140 q 693 1072 741 1072 q 611 1105 646 1072 q 576 1190 576 1139 q 611 1274 576 1240 q 693 1308 645 1308 z "},"Æ":{"ha":1330,"x_min":0,"x_max":1435,"o":"m 14 0 q 0 9 0 0 q 3 17 0 13 l 602 897 l 590 990 q 589 1000 589 996 q 615 1024 590 1024 l 684 1024 q 726 990 721 1024 l 798 486 q 826 512 811 500 q 1040 601 921 592 q 954 657 984 619 q 919 757 919 702 q 926 810 919 783 q 1057 981 955 916 q 1249 1038 1144 1038 q 1408 959 1357 1038 q 1435 871 1435 917 q 1428 821 1435 845 q 1400 774 1418 793 q 1335 746 1373 746 q 1273 772 1298 746 q 1247 836 1247 798 q 1273 899 1247 873 q 1335 925 1299 925 q 1374 915 1356 925 q 1255 994 1343 994 q 1122 933 1177 994 q 1060 817 1078 886 q 1049 742 1049 775 q 1065 675 1049 702 q 1183 591 1099 619 l 1180 581 q 988 512 1071 567 q 854 319 888 446 q 838 212 838 258 q 859 123 838 159 q 1013 37 907 37 q 1211 114 1120 37 q 1337 269 1278 172 l 1347 269 l 1314 143 q 1244 79 1280 108 q 994 -14 1127 -14 q 858 5 916 -14 q 839 0 852 0 l 770 0 q 728 34 733 0 l 684 339 l 296 339 l 76 17 q 50 0 64 0 l 14 0 m 675 400 l 614 807 l 337 400 l 675 400 z "},"Ç":{"ha":827,"x_min":176,"x_max":1001,"o":"m 460 -13 q 241 91 311 -5 q 176 313 176 180 q 205 512 176 402 q 467 933 282 798 q 765 1038 609 1038 q 960 950 895 1038 q 1001 829 1001 896 q 992 768 1001 795 q 964 720 983 741 q 899 692 937 692 q 837 719 862 692 q 811 782 811 745 q 837 845 811 819 q 899 871 863 871 q 938 861 920 871 q 767 987 907 987 q 550 895 650 987 q 361 512 437 791 q 319 252 319 353 q 344 130 319 174 q 520 37 397 37 q 731 122 634 37 q 829 228 785 169 l 840 228 l 811 121 q 514 -13 678 -4 l 511 -26 q 573 -54 551 -33 q 602 -117 602 -80 q 597 -151 602 -135 q 538 -245 581 -210 q 414 -292 481 -292 q 387 -271 387 -292 q 389 -258 387 -265 l 395 -232 q 439 -198 404 -198 q 488 -180 465 -198 q 516 -138 509 -165 q 518 -121 518 -130 q 504 -88 518 -102 q 444 -73 486 -73 l 460 -13 z "},"È":{"ha":777,"x_min":140,"x_max":882,"o":"m 441 -14 q 201 71 278 -14 q 140 231 140 138 q 153 319 140 272 q 273 512 184 436 q 487 601 368 592 q 401 657 431 619 q 366 757 366 702 q 374 810 366 783 q 504 981 402 916 q 696 1038 591 1038 q 855 959 804 1038 q 882 871 882 917 q 875 821 882 845 q 847 774 865 793 q 782 746 820 746 q 720 772 745 746 q 694 836 694 798 q 720 899 694 873 q 783 925 746 925 q 821 915 803 925 q 703 994 791 994 q 569 933 624 994 q 507 817 526 886 q 496 742 496 775 q 513 675 496 702 q 630 591 547 619 l 627 581 q 435 512 518 567 q 302 319 336 446 q 286 212 286 258 q 306 123 286 159 q 460 37 354 37 q 658 114 568 37 q 784 269 726 172 l 794 269 l 761 143 q 692 79 728 108 q 441 -14 574 -14 m 545 1271 q 596 1291 562 1291 q 647 1253 630 1291 l 724 1084 l 709 1072 l 564 1163 q 526 1219 526 1187 q 545 1271 526 1251 z "},"É":{"ha":777,"x_min":140,"x_max":963,"o":"m 441 -14 q 201 71 278 -14 q 140 231 140 138 q 153 319 140 272 q 273 512 184 436 q 487 601 368 592 q 401 657 431 619 q 366 757 366 702 q 374 810 366 783 q 504 981 402 916 q 696 1038 591 1038 q 855 959 804 1038 q 882 871 882 917 q 875 821 882 845 q 847 774 865 793 q 782 746 820 746 q 720 772 745 746 q 694 836 694 798 q 720 899 694 873 q 783 925 746 925 q 821 915 803 925 q 703 994 791 994 q 569 933 624 994 q 507 817 526 886 q 496 742 496 775 q 513 675 496 702 q 630 591 547 619 l 627 581 q 435 512 518 567 q 302 319 336 446 q 286 212 286 258 q 306 123 286 159 q 460 37 354 37 q 658 114 568 37 q 784 269 726 172 l 794 269 l 761 143 q 692 79 728 108 q 441 -14 574 -14 m 902 1291 q 948 1272 932 1291 q 963 1228 963 1255 q 922 1171 963 1190 l 704 1072 l 696 1084 l 839 1261 q 902 1291 863 1291 z "},"Ê":{"ha":777,"x_min":140,"x_max":889,"o":"m 441 -14 q 201 71 278 -14 q 140 231 140 138 q 153 319 140 272 q 273 512 184 436 q 487 601 368 592 q 401 657 431 619 q 366 757 366 702 q 374 810 366 783 q 504 981 402 916 q 696 1038 591 1038 q 855 959 804 1038 q 882 871 882 917 q 875 821 882 845 q 847 774 865 793 q 782 746 820 746 q 720 772 745 746 q 694 836 694 798 q 720 899 694 873 q 783 925 746 925 q 821 915 803 925 q 703 994 791 994 q 569 933 624 994 q 507 817 526 886 q 496 742 496 775 q 513 675 496 702 q 630 591 547 619 l 627 581 q 435 512 518 567 q 302 319 336 446 q 286 212 286 258 q 306 123 286 159 q 460 37 354 37 q 658 114 568 37 q 784 269 726 172 l 794 269 l 761 143 q 692 79 728 108 q 441 -14 574 -14 m 747 1276 l 781 1276 q 817 1249 805 1276 l 889 1085 l 833 1085 q 791 1112 802 1085 l 751 1212 l 659 1112 q 602 1085 633 1085 l 536 1085 l 697 1249 q 747 1276 724 1276 z "},"Ë":{"ha":777,"x_min":140,"x_max":921,"o":"m 786 1237 q 798 1248 786 1237 q 842 1260 810 1260 q 898 1237 875 1260 q 921 1179 921 1214 q 898 1122 921 1145 q 842 1099 875 1099 q 786 1122 810 1099 q 762 1179 762 1145 q 786 1237 762 1213 m 581 1237 q 592 1249 581 1237 q 636 1260 604 1260 q 692 1237 669 1260 q 715 1179 715 1214 q 692 1122 715 1145 q 636 1099 669 1099 q 581 1122 604 1099 q 557 1179 557 1145 q 581 1237 557 1214 m 441 -14 q 201 71 278 -14 q 140 231 140 138 q 153 319 140 272 q 273 512 184 436 q 487 601 368 592 q 401 657 431 619 q 366 757 366 702 q 374 810 366 783 q 504 981 402 916 q 696 1038 591 1038 q 855 959 804 1038 q 882 871 882 917 q 875 821 882 845 q 847 774 865 793 q 782 746 820 746 q 720 772 745 746 q 694 836 694 798 q 720 899 694 873 q 783 925 746 925 q 821 915 803 925 q 703 994 791 994 q 569 933 624 994 q 507 817 526 886 q 496 742 496 775 q 513 675 496 702 q 630 591 547 619 l 627 581 q 435 512 518 567 q 302 319 336 446 q 286 212 286 258 q 306 123 286 159 q 460 37 354 37 q 658 114 568 37 q 784 269 726 172 l 794 269 l 761 143 q 692 79 728 108 q 441 -14 574 -14 z "},"Ì":{"ha":420,"x_min":149,"x_max":545,"o":"m 176 0 q 149 21 149 0 q 151 34 149 26 l 408 990 q 451 1024 416 1024 l 519 1024 q 545 1003 545 1024 q 543 990 545 998 l 287 34 q 244 0 278 0 l 176 0 m 340 1271 q 391 1291 357 1291 q 442 1253 425 1291 l 519 1084 l 505 1072 l 359 1163 q 321 1219 321 1187 q 340 1271 321 1251 z "},"Í":{"ha":420,"x_min":149,"x_max":749,"o":"m 176 0 q 149 21 149 0 q 151 34 149 26 l 408 990 q 451 1024 416 1024 l 519 1024 q 545 1003 545 1024 q 543 990 545 998 l 287 34 q 244 0 278 0 l 176 0 m 688 1291 q 734 1272 718 1291 q 749 1228 749 1255 q 708 1171 749 1190 l 490 1072 l 483 1084 l 625 1261 q 688 1291 650 1291 z "},"Î":{"ha":420,"x_min":149,"x_max":677,"o":"m 176 0 q 149 21 149 0 q 151 34 149 26 l 408 990 q 451 1024 416 1024 l 519 1024 q 545 1003 545 1024 q 543 990 545 998 l 287 34 q 244 0 278 0 l 176 0 m 535 1276 l 569 1276 q 605 1249 593 1276 l 677 1085 l 622 1085 q 580 1112 591 1085 l 540 1212 l 447 1112 q 390 1085 422 1085 l 325 1085 l 486 1249 q 535 1276 512 1276 z "},"Ï":{"ha":420,"x_min":149,"x_max":709,"o":"m 176 0 q 149 21 149 0 q 151 34 149 26 l 408 990 q 451 1024 416 1024 l 519 1024 q 545 1003 545 1024 q 543 990 545 998 l 287 34 q 244 0 278 0 l 176 0 m 574 1237 q 586 1248 574 1237 q 630 1260 597 1260 q 686 1237 663 1260 q 709 1179 709 1214 q 686 1122 709 1145 q 630 1099 663 1099 q 574 1122 597 1099 q 550 1179 550 1145 q 574 1237 550 1213 m 368 1237 q 380 1249 368 1237 q 424 1260 391 1260 q 479 1237 456 1260 q 503 1179 503 1214 q 479 1122 503 1145 q 424 1099 456 1099 q 368 1122 391 1099 q 345 1179 345 1145 q 368 1237 345 1214 z "},"Ð":{"ha":979,"x_min":170,"x_max":1073,"o":"m 210 0 q 183 21 183 0 q 185 34 183 26 l 285 406 l 185 406 q 170 419 170 406 q 170 427 170 424 l 176 447 q 201 467 181 467 l 301 467 l 385 780 q 429 814 394 814 l 496 814 q 523 793 523 814 q 521 780 523 787 l 437 467 l 608 467 q 624 454 624 467 q 623 447 624 450 l 618 427 q 592 406 612 406 l 420 406 l 335 88 q 333 75 333 81 q 360 54 333 54 l 467 54 q 755 215 628 54 q 890 512 840 323 q 916 697 916 612 q 904 808 916 755 q 687 977 865 977 q 192 709 419 977 l 184 714 q 724 1038 407 1038 q 1037 859 956 1038 q 1073 683 1073 779 q 1048 511 1073 603 q 846 159 991 299 q 471 0 681 0 l 210 0 z "},"Ñ":{"ha":1000,"x_min":167,"x_max":1115,"o":"m 180 0 q 167 12 167 0 q 168 17 167 14 l 398 878 l 345 990 q 342 1004 342 998 q 370 1024 342 1024 l 448 1024 q 495 990 479 1024 l 845 257 l 1046 1007 q 1067 1024 1051 1024 l 1101 1024 q 1115 1013 1115 1024 q 1114 1007 1115 1010 l 837 -27 l 827 -27 l 441 787 l 235 17 q 214 0 231 0 l 180 0 m 772 1262 q 825 1245 804 1262 l 895 1190 q 926 1177 911 1177 q 1019 1249 969 1177 l 1029 1249 q 879 1099 979 1099 q 826 1116 847 1099 l 755 1171 q 725 1183 740 1183 q 631 1112 681 1183 l 621 1112 q 772 1262 671 1262 z "},"Ò":{"ha":926,"x_min":176,"x_max":1024,"o":"m 473 37 q 660 125 576 37 q 846 512 776 248 q 887 772 887 668 q 865 899 887 849 q 728 987 825 987 q 545 898 634 987 q 355 512 425 779 q 314 252 314 357 q 336 125 314 176 q 473 37 374 37 m 460 -14 q 241 91 317 -14 q 176 313 176 180 q 205 512 176 402 q 467 933 277 781 q 741 1038 596 1038 q 960 933 886 1038 q 1024 710 1024 842 q 995 512 1024 621 q 736 94 922 239 q 460 -14 597 -14 m 586 1271 q 637 1291 604 1291 q 688 1253 671 1291 l 765 1084 l 751 1072 l 605 1163 q 568 1219 568 1187 q 586 1271 568 1251 z "},"Ó":{"ha":926,"x_min":176,"x_max":1024,"o":"m 473 37 q 660 125 576 37 q 846 512 776 248 q 887 772 887 668 q 865 899 887 849 q 728 987 825 987 q 545 898 634 987 q 355 512 425 779 q 314 252 314 357 q 336 125 314 176 q 473 37 374 37 m 460 -14 q 241 91 317 -14 q 176 313 176 180 q 205 512 176 402 q 467 933 277 781 q 741 1038 596 1038 q 960 933 886 1038 q 1024 710 1024 842 q 995 512 1024 621 q 736 94 922 239 q 460 -14 597 -14 m 945 1291 q 991 1272 975 1291 q 1006 1228 1006 1255 q 965 1171 1006 1190 l 747 1072 l 740 1084 l 882 1261 q 945 1291 907 1291 z "},"Ô":{"ha":926,"x_min":176,"x_max":1024,"o":"m 789 1276 q 823 1276 789 1276 q 859 1249 847 1276 l 931 1085 l 876 1085 q 833 1112 844 1085 q 793 1212 833 1112 l 701 1112 q 644 1085 675 1085 l 578 1085 l 739 1249 q 789 1276 766 1276 m 473 37 q 660 125 576 37 q 846 512 776 248 q 887 772 887 668 q 865 899 887 849 q 728 987 825 987 q 545 898 634 987 q 355 512 425 779 q 314 252 314 357 q 336 125 314 176 q 473 37 374 37 m 460 -14 q 241 91 317 -14 q 176 313 176 180 q 205 512 176 402 q 467 933 277 781 q 741 1038 596 1038 q 960 933 886 1038 q 1024 710 1024 842 q 995 512 1024 621 q 736 94 922 239 q 460 -14 597 -14 z "},"Õ":{"ha":926,"x_min":176,"x_max":1024,"o":"m 473 37 q 660 125 576 37 q 846 512 776 248 q 887 772 887 668 q 865 899 887 849 q 728 987 825 987 q 545 898 634 987 q 355 512 425 779 q 314 252 314 357 q 336 125 314 176 q 473 37 374 37 m 460 -14 q 241 91 317 -14 q 176 313 176 180 q 205 512 176 402 q 467 933 277 781 q 741 1038 596 1038 q 960 933 886 1038 q 1024 710 1024 842 q 995 512 1024 621 q 736 94 922 239 q 460 -14 597 -14 m 742 1262 q 795 1245 774 1262 l 865 1190 q 896 1177 881 1177 q 989 1249 939 1177 l 999 1249 q 849 1099 949 1099 q 796 1116 817 1099 l 726 1171 q 695 1183 710 1183 q 601 1112 651 1183 l 591 1112 q 742 1262 642 1262 z "},"Ö":{"ha":926,"x_min":176,"x_max":1024,"o":"m 828 1237 q 840 1248 828 1237 q 884 1260 852 1260 q 940 1237 917 1260 q 963 1179 963 1214 q 940 1122 963 1145 q 884 1099 917 1099 q 828 1122 852 1099 q 804 1179 804 1145 q 828 1237 804 1213 m 623 1237 q 634 1249 623 1237 q 678 1260 646 1260 q 734 1237 711 1260 q 757 1179 757 1214 q 734 1122 757 1145 q 678 1099 711 1099 q 623 1122 646 1099 q 600 1179 600 1145 q 623 1237 600 1214 m 473 37 q 660 125 576 37 q 846 512 776 248 q 887 772 887 668 q 865 899 887 849 q 728 987 825 987 q 545 898 634 987 q 355 512 425 779 q 314 252 314 357 q 336 125 314 176 q 473 37 374 37 m 460 -14 q 241 91 317 -14 q 176 313 176 180 q 205 512 176 402 q 467 933 277 781 q 741 1038 596 1038 q 960 933 886 1038 q 1024 710 1024 842 q 995 512 1024 621 q 736 94 922 239 q 460 -14 597 -14 z "},"×":{"ha":719,"x_min":228,"x_max":765,"o":"m 393 736 q 414 724 405 736 l 516 584 l 694 724 q 720 736 709 736 q 741 724 732 736 l 760 700 q 765 682 765 693 q 764 676 765 679 q 746 652 761 663 l 568 512 l 671 373 q 677 355 677 364 q 677 349 678 353 q 658 324 674 337 l 628 300 q 601 289 614 289 q 580 300 588 289 l 477 440 l 300 300 q 273 288 284 288 q 252 300 260 288 l 235 323 q 228 341 228 333 q 229 347 228 345 q 248 372 232 359 l 425 512 l 322 652 q 315 667 315 661 q 317 675 315 671 q 336 700 320 687 l 366 724 q 393 736 381 736 z "},"Ø":{"ha":926,"x_min":176,"x_max":1024,"o":"m 460 -14 q 324 18 382 -14 l 281 -51 q 254 -69 269 -69 q 241 -67 246 -69 l 230 -62 q 217 -45 217 -57 q 218 -40 217 -43 q 223 -28 219 -34 l 274 53 q 241 91 256 70 q 176 313 176 180 q 205 512 176 402 q 467 933 277 781 q 741 1038 596 1038 q 878 1007 820 1038 l 920 1075 q 947 1093 932 1093 q 959 1091 954 1093 l 970 1086 q 983 1070 983 1081 q 983 1063 983 1066 q 978 1052 981 1057 l 927 972 q 960 933 945 955 q 1024 710 1024 842 q 995 512 1024 621 q 736 94 922 239 q 460 -14 598 -14 m 366 83 q 473 37 406 37 q 660 125 576 37 q 846 512 775 247 q 887 770 887 667 q 869 882 887 837 l 366 83 m 332 143 l 834 939 q 728 987 792 987 q 545 898 634 987 q 355 512 427 780 q 315 258 315 361 q 332 143 315 190 z "},"Ù":{"ha":964,"x_min":211,"x_max":1088,"o":"m 720 0 q 692 21 692 0 q 694 34 692 26 l 726 146 q 668 79 707 114 q 437 -14 567 -14 q 224 113 277 -14 q 211 193 211 145 q 235 346 211 254 l 408 990 q 451 1024 416 1024 l 519 1024 q 545 1003 545 1024 q 543 990 545 998 l 370 345 q 348 208 348 261 q 351 170 348 187 q 498 67 372 67 q 704 180 621 67 q 778 346 751 245 l 950 990 q 994 1024 959 1024 l 1061 1024 q 1088 1003 1088 1024 q 1086 990 1088 998 l 830 34 q 787 0 821 0 l 720 0 m 610 1271 q 662 1291 628 1291 q 713 1253 696 1291 l 789 1084 l 775 1072 l 629 1163 q 592 1219 592 1187 q 610 1271 592 1251 z "},"Ú":{"ha":964,"x_min":211,"x_max":1088,"o":"m 720 0 q 692 21 692 0 q 694 34 692 26 l 726 146 q 668 79 707 114 q 437 -14 567 -14 q 224 113 277 -14 q 211 193 211 145 q 235 346 211 254 l 408 990 q 451 1024 416 1024 l 519 1024 q 545 1003 545 1024 q 543 990 545 998 l 370 345 q 348 208 348 261 q 351 170 348 187 q 498 67 372 67 q 704 180 621 67 q 778 346 751 245 l 950 990 q 994 1024 959 1024 l 1061 1024 q 1088 1003 1088 1024 q 1086 990 1088 998 l 830 34 q 787 0 821 0 l 720 0 m 945 1291 q 991 1272 975 1291 q 1006 1228 1006 1255 q 964 1171 1006 1190 l 747 1072 l 739 1084 l 882 1261 q 945 1291 906 1291 z "},"Û":{"ha":964,"x_min":211,"x_max":1088,"o":"m 720 0 q 692 21 692 0 q 694 34 692 26 l 726 146 q 668 79 707 114 q 437 -14 567 -14 q 224 113 277 -14 q 211 193 211 145 q 235 346 211 254 l 408 990 q 451 1024 416 1024 l 519 1024 q 545 1003 545 1024 q 543 990 545 998 l 370 345 q 348 208 348 261 q 351 170 348 187 q 498 67 372 67 q 704 180 621 67 q 778 346 751 245 l 950 990 q 994 1024 959 1024 l 1061 1024 q 1088 1003 1088 1024 q 1086 990 1088 998 l 830 34 q 787 0 821 0 l 720 0 m 802 1276 l 836 1276 q 872 1249 861 1276 l 945 1085 l 889 1085 q 847 1112 858 1085 l 807 1212 l 714 1112 q 657 1085 689 1085 l 592 1085 l 753 1249 q 802 1276 779 1276 z "},"Ü":{"ha":964,"x_min":211,"x_max":1088,"o":"m 720 0 q 692 21 692 0 q 694 34 692 26 l 726 146 q 668 79 707 114 q 437 -14 567 -14 q 224 113 277 -14 q 211 193 211 145 q 235 346 211 254 l 408 990 q 451 1024 416 1024 l 519 1024 q 545 1003 545 1024 q 543 990 545 998 l 370 345 q 348 208 348 261 q 351 170 348 187 q 498 67 372 67 q 704 180 621 67 q 778 346 751 245 l 950 990 q 994 1024 959 1024 l 1061 1024 q 1088 1003 1088 1024 q 1086 990 1088 998 l 830 34 q 787 0 821 0 l 720 0 m 838 1237 q 850 1248 838 1237 q 895 1260 862 1260 q 950 1237 927 1260 q 973 1179 973 1214 q 950 1122 973 1145 q 895 1099 927 1099 q 838 1122 862 1099 q 814 1179 814 1145 q 838 1237 814 1213 m 633 1237 q 644 1249 633 1237 q 688 1260 656 1260 q 744 1237 721 1260 q 767 1179 767 1214 q 744 1122 767 1145 q 688 1099 721 1099 q 633 1122 656 1099 q 610 1179 610 1145 q 633 1237 610 1214 z "},"Ý":{"ha":922,"x_min":223,"x_max":1047,"o":"m 429 -14 q 254 60 311 -14 q 223 153 223 99 q 231 203 223 179 q 258 250 240 231 q 323 278 286 278 q 386 252 360 278 q 411 189 411 226 q 385 125 411 151 q 323 99 359 99 q 284 109 302 99 q 426 37 322 37 q 632 136 545 37 q 744 373 701 214 l 770 471 q 696 405 742 437 q 503 346 612 346 q 319 435 371 346 q 296 529 296 474 q 310 624 296 570 l 408 990 q 451 1024 416 1024 l 519 1024 q 545 1003 545 1024 q 543 990 545 998 l 446 624 q 433 544 433 578 q 439 501 433 519 q 574 421 467 421 q 753 502 680 421 q 812 624 790 542 l 909 990 q 953 1024 918 1024 l 1021 1024 q 1047 1003 1047 1024 q 1045 990 1047 998 l 880 373 q 692 79 827 179 q 429 -14 569 -14 m 918 1291 q 964 1272 948 1291 q 979 1228 979 1255 q 938 1171 979 1190 l 720 1072 l 713 1084 l 855 1261 q 918 1291 880 1291 z "},"Þ":{"ha":920,"x_min":144,"x_max":1007,"o":"m 210 0 q 183 21 183 0 q 185 34 183 26 l 377 749 q 154 561 266 683 l 144 565 q 393 809 254 728 l 441 990 q 485 1024 450 1024 l 553 1024 q 579 1003 579 1024 q 577 990 579 998 l 545 871 q 693 888 616 888 q 955 785 873 888 q 1007 628 1007 718 q 993 526 1007 581 q 854 293 957 389 q 551 161 713 161 q 372 224 423 161 l 321 34 q 278 0 312 0 l 210 0 m 530 814 l 391 296 q 529 209 420 209 q 714 286 635 209 q 840 525 798 368 q 856 635 856 585 q 836 734 856 690 q 640 827 791 827 q 530 814 585 827 z "},"ß":{"ha":857,"x_min":156,"x_max":907,"o":"m 183 0 q 156 21 156 0 q 158 34 156 26 l 366 810 q 503 989 397 925 q 688 1038 584 1038 q 854 983 793 1038 q 907 868 907 937 q 899 810 907 841 q 784 655 873 716 q 620 591 713 607 q 812 511 751 579 q 861 380 861 456 q 849 300 861 342 q 675 68 810 155 q 436 -14 547 -14 q 425 -5 425 -14 q 426 -1 425 -3 l 430 16 q 448 31 433 27 q 589 105 513 45 q 709 296 676 174 q 720 374 720 338 q 689 478 720 433 q 522 581 640 549 l 524 591 q 691 674 630 623 q 773 808 751 724 q 782 872 782 842 q 770 937 782 907 q 678 994 749 994 q 565 947 616 994 q 488 811 512 900 l 280 34 q 237 0 271 0 l 183 0 z "},"à":{"ha":779,"x_min":140,"x_max":843,"o":"m 616 0 l 562 0 q 535 21 535 0 q 537 34 535 26 l 545 64 q 366 -14 480 -14 q 175 98 243 -14 q 140 234 140 154 q 161 372 140 296 q 322 648 205 538 q 573 760 441 760 q 711 682 684 760 l 719 712 q 762 746 727 746 l 817 746 q 843 725 843 746 q 841 712 843 720 l 659 34 q 616 0 650 0 m 401 37 q 506 77 460 37 q 586 216 562 126 l 670 530 q 681 602 681 570 q 664 669 681 642 q 581 709 640 709 q 401 605 485 709 q 297 373 338 527 q 269 203 270 271 q 277 141 269 168 q 401 37 305 37 m 475 986 q 526 1006 492 1006 q 577 968 560 1006 l 654 799 l 640 787 l 494 878 q 456 934 456 902 q 475 986 456 966 z "},"á":{"ha":779,"x_min":140,"x_max":843,"o":"m 616 0 l 562 0 q 535 21 535 0 q 537 34 535 26 l 545 64 q 366 -14 480 -14 q 175 98 243 -14 q 140 234 140 154 q 161 372 140 296 q 322 648 205 538 q 573 760 441 760 q 711 682 684 760 l 719 712 q 762 746 727 746 l 817 746 q 843 725 843 746 q 841 712 843 720 l 659 34 q 616 0 650 0 m 401 37 q 506 77 460 37 q 586 216 562 126 l 670 530 q 681 602 681 570 q 664 669 681 642 q 581 709 640 709 q 401 605 485 709 q 297 373 338 527 q 269 203 270 271 q 277 141 269 168 q 401 37 305 37 m 758 1006 q 804 987 787 1006 q 819 943 819 970 q 777 886 819 905 l 559 787 l 552 799 l 694 976 q 758 1006 719 1006 z "},"â":{"ha":779,"x_min":140,"x_max":843,"o":"m 616 0 l 562 0 q 535 21 535 0 q 537 34 535 26 l 545 64 q 366 -14 480 -14 q 175 98 243 -14 q 140 234 140 154 q 161 372 140 296 q 322 648 205 538 q 573 760 441 760 q 711 682 684 760 l 719 712 q 762 746 727 746 l 817 746 q 843 725 843 746 q 841 712 843 720 l 659 34 q 616 0 650 0 m 401 37 q 506 77 460 37 q 586 216 562 126 l 670 530 q 681 602 681 570 q 664 669 681 642 q 581 709 640 709 q 401 605 485 709 q 297 373 338 527 q 269 203 270 271 q 277 141 269 168 q 401 37 305 37 m 652 991 l 686 991 q 722 964 710 991 l 794 800 l 739 800 q 696 827 707 800 l 656 927 l 564 827 q 507 800 538 800 l 441 800 l 602 964 q 652 991 629 991 z "},"ã":{"ha":779,"x_min":140,"x_max":843,"o":"m 616 0 l 562 0 q 535 21 535 0 q 537 34 535 26 l 545 64 q 366 -14 480 -14 q 175 98 243 -14 q 140 234 140 154 q 161 372 140 296 q 322 648 205 538 q 573 760 441 760 q 711 682 684 760 l 719 712 q 762 746 727 746 l 817 746 q 843 725 843 746 q 841 712 843 720 l 659 34 q 616 0 650 0 m 401 37 q 506 77 460 37 q 586 216 562 126 l 670 530 q 681 602 681 570 q 664 669 681 642 q 581 709 640 709 q 401 605 485 709 q 297 373 338 527 q 269 203 270 271 q 277 141 269 168 q 401 37 305 37 m 578 977 q 631 960 610 977 l 701 905 q 732 892 717 892 q 825 964 776 892 l 836 964 q 686 814 785 814 q 632 831 654 814 l 562 886 q 531 899 546 899 q 437 827 487 899 l 427 827 q 578 977 477 977 z "},"ä":{"ha":779,"x_min":140,"x_max":843,"o":"m 616 0 l 562 0 q 535 21 535 0 q 537 34 535 26 l 545 64 q 366 -14 480 -14 q 175 98 243 -14 q 140 234 140 154 q 161 372 140 296 q 322 648 205 538 q 573 760 441 760 q 711 682 684 760 l 719 712 q 762 746 727 746 l 817 746 q 843 725 843 746 q 841 712 843 720 l 659 34 q 616 0 650 0 m 401 37 q 506 77 460 37 q 586 216 562 126 l 670 530 q 681 602 681 570 q 664 669 681 642 q 581 709 640 709 q 401 605 485 709 q 297 373 338 527 q 269 203 270 271 q 277 141 269 168 q 401 37 305 37 m 689 952 q 701 964 689 952 q 745 975 713 975 q 801 952 778 975 q 824 895 824 929 q 801 837 824 860 q 745 814 778 814 q 689 837 713 814 q 665 895 665 861 q 689 952 665 928 m 484 952 q 495 964 484 952 q 539 975 507 975 q 595 952 572 975 q 618 895 618 929 q 595 837 618 860 q 539 814 572 814 q 484 837 507 814 q 460 895 460 860 q 484 952 460 929 z "},"å":{"ha":779,"x_min":140,"x_max":843,"o":"m 616 0 l 562 0 q 535 21 535 0 q 537 34 535 26 l 545 64 q 366 -14 480 -14 q 175 98 243 -14 q 140 234 140 154 q 161 372 140 296 q 322 648 205 538 q 573 760 441 760 q 711 682 684 760 l 719 712 q 762 746 727 746 l 817 746 q 843 725 843 746 q 841 712 843 720 l 659 34 q 616 0 650 0 m 401 37 q 506 77 460 37 q 586 216 562 126 l 670 530 q 681 602 681 570 q 664 669 681 642 q 581 709 640 709 q 401 605 485 709 q 297 373 338 527 q 269 203 270 271 q 277 141 269 168 q 401 37 305 37 m 701 951 q 691 960 701 951 q 655 970 682 970 q 610 951 629 970 q 591 905 591 932 q 610 859 591 878 q 655 840 629 840 q 701 859 682 840 q 720 905 720 878 q 701 951 720 932 m 655 1023 q 737 989 703 1023 q 772 905 772 955 q 737 821 772 855 q 655 787 703 787 q 573 821 608 787 q 538 905 538 854 q 573 989 538 955 q 655 1023 607 1023 z "},"æ":{"ha":1114,"x_min":109,"x_max":1192,"o":"m 367 -14 q 155 43 214 -14 q 109 151 109 87 q 116 205 109 176 q 266 394 147 321 q 617 463 378 463 l 636 533 q 648 610 648 576 q 628 676 648 652 q 513 715 596 715 q 395 684 443 715 q 441 659 422 679 q 467 596 467 633 q 441 532 467 559 q 379 505 416 505 q 317 532 340 505 q 293 597 293 557 q 345 690 293 645 q 542 760 426 760 q 717 711 661 760 q 740 684 730 699 q 960 760 844 760 q 1154 671 1090 760 q 1192 552 1192 617 q 1183 484 1192 519 q 1036 342 1154 377 l 677 234 l 661 172 q 656 139 656 153 q 686 71 656 100 q 809 37 723 37 q 988 114 903 37 q 1029 155 1009 133 l 1039 155 l 1019 79 q 762 -14 906 -14 q 567 37 653 -14 q 367 -14 472 -14 m 604 412 q 353 353 432 412 q 250 205 273 294 q 241 146 241 172 q 266 72 241 101 q 378 37 296 37 q 539 171 503 37 l 604 412 m 695 298 l 939 373 q 1050 475 1029 401 q 1062 564 1062 521 q 1058 612 1062 588 q 945 715 1041 715 q 782 623 853 715 l 695 298 z "},"ç":{"ha":692,"x_min":142,"x_max":797,"o":"m 366 -13 q 191 79 250 -4 q 142 243 142 147 q 161 373 142 302 q 349 667 212 566 q 604 760 472 760 q 766 685 709 760 q 797 593 797 644 q 789 543 797 566 q 761 495 780 515 q 696 468 734 468 q 634 494 659 468 q 608 557 608 520 q 634 621 608 595 q 696 647 660 647 q 735 637 717 647 q 609 709 700 709 q 409 610 493 709 q 300 373 342 532 q 273 205 273 272 q 282 136 273 165 q 437 37 315 37 q 618 114 534 37 q 659 155 640 133 l 669 155 l 649 79 q 420 -13 547 -5 l 416 -26 q 479 -54 456 -33 q 507 -117 507 -80 q 503 -151 507 -135 q 444 -245 486 -210 q 319 -292 387 -292 q 292 -271 292 -292 q 294 -258 292 -265 l 301 -232 q 345 -198 310 -198 q 394 -180 370 -198 q 422 -138 415 -165 q 424 -121 424 -130 q 410 -88 424 -102 q 349 -73 392 -73 l 366 -13 z "},"è":{"ha":745,"x_min":142,"x_max":823,"o":"m 393 -14 q 191 79 257 -14 q 142 243 142 147 q 161 373 142 302 q 349 667 210 554 q 590 760 461 760 q 784 671 722 760 q 823 552 823 617 q 813 484 823 519 q 667 342 785 377 l 271 223 q 271 204 271 213 q 280 136 271 165 q 437 37 312 37 q 618 114 536 37 q 659 155 640 133 l 669 155 l 649 79 q 393 -14 536 -14 m 278 284 l 570 373 q 680 475 660 400 q 693 565 693 524 q 688 612 693 590 q 576 715 667 715 q 404 612 481 715 q 298 373 338 523 q 278 284 283 319 m 475 986 q 526 1006 492 1006 q 577 968 560 1006 l 654 799 l 640 787 l 494 878 q 456 934 456 902 q 475 986 456 966 z "},"é":{"ha":745,"x_min":142,"x_max":823,"o":"m 393 -14 q 191 79 257 -14 q 142 243 142 147 q 161 373 142 302 q 349 667 210 554 q 590 760 461 760 q 784 671 722 760 q 823 552 823 617 q 813 484 823 519 q 667 342 785 377 l 271 223 q 271 204 271 213 q 280 136 271 165 q 437 37 312 37 q 618 114 536 37 q 659 155 640 133 l 669 155 l 649 79 q 393 -14 536 -14 m 278 284 l 570 373 q 680 475 660 400 q 693 565 693 524 q 688 612 693 590 q 576 715 667 715 q 404 612 481 715 q 298 373 338 523 q 278 284 283 319 m 758 1006 q 804 987 787 1006 q 819 943 819 970 q 777 886 819 905 l 559 787 l 552 799 l 694 976 q 758 1006 719 1006 z "},"ê":{"ha":745,"x_min":142,"x_max":823,"o":"m 636 991 q 670 991 636 991 q 706 964 694 991 l 779 800 l 723 800 q 681 827 692 800 q 641 927 681 827 l 548 827 q 491 800 523 800 l 426 800 l 587 964 q 636 991 613 991 m 393 -14 q 191 79 257 -14 q 142 243 142 147 q 161 373 142 302 q 349 667 210 554 q 590 760 461 760 q 784 671 722 760 q 823 552 823 617 q 813 484 823 519 q 667 342 785 377 l 271 223 q 271 204 271 213 q 280 136 271 165 q 437 37 312 37 q 618 114 536 37 q 659 155 640 133 l 669 155 l 649 79 q 393 -14 536 -14 m 278 284 l 570 373 q 680 475 660 400 q 693 565 693 524 q 688 612 693 590 q 576 715 667 715 q 404 612 481 715 q 298 373 338 523 q 278 284 283 319 z "},"ë":{"ha":745,"x_min":142,"x_max":823,"o":"m 675 952 q 687 964 675 952 q 731 975 699 975 q 787 952 764 975 q 810 895 810 929 q 787 837 810 860 q 731 814 764 814 q 675 837 699 814 q 651 895 651 861 q 675 952 651 928 m 469 952 q 481 964 469 952 q 525 975 492 975 q 581 952 557 975 q 604 895 604 929 q 581 837 604 860 q 525 814 557 814 q 469 837 492 814 q 446 895 446 860 q 469 952 446 929 m 393 -14 q 191 79 257 -14 q 142 243 142 147 q 161 373 142 302 q 349 667 210 554 q 590 760 461 760 q 784 671 722 760 q 823 552 823 617 q 813 484 823 519 q 667 342 785 377 l 271 223 q 271 204 271 213 q 280 136 271 165 q 437 37 312 37 q 618 114 536 37 q 659 155 640 133 l 669 155 l 649 79 q 393 -14 536 -14 m 278 284 l 570 373 q 680 475 660 400 q 693 565 693 524 q 688 612 693 590 q 576 715 667 715 q 404 612 481 715 q 298 373 338 523 q 278 284 283 319 z "},"ì":{"ha":380,"x_min":136,"x_max":444,"o":"m 163 0 q 136 21 136 0 q 138 34 136 26 l 320 712 q 363 746 329 746 l 417 746 q 444 725 444 746 q 442 712 444 720 l 260 34 q 217 0 251 0 l 163 0 m 253 986 q 304 1006 271 1006 q 355 968 338 1006 l 432 799 l 418 787 l 272 878 q 235 934 235 902 q 253 986 235 966 z "},"í":{"ha":380,"x_min":136,"x_max":587,"o":"m 163 0 q 136 21 136 0 q 138 34 136 26 l 320 712 q 363 746 329 746 l 417 746 q 444 725 444 746 q 442 712 444 720 l 260 34 q 217 0 251 0 l 163 0 m 526 1006 q 572 987 555 1006 q 587 943 587 970 q 545 886 587 905 l 328 787 l 320 799 l 463 976 q 526 1006 487 1006 z "},"î":{"ha":380,"x_min":136,"x_max":581,"o":"m 163 0 q 136 21 136 0 q 138 34 136 26 l 320 712 q 363 746 329 746 l 417 746 q 444 725 444 746 q 442 712 444 720 l 260 34 q 217 0 251 0 l 163 0 m 438 991 l 472 991 q 508 964 496 991 l 581 800 l 525 800 q 483 827 494 800 l 443 927 l 350 827 q 293 800 325 800 l 228 800 l 389 964 q 438 991 415 991 z "},"ï":{"ha":380,"x_min":136,"x_max":612,"o":"m 163 0 q 136 21 136 0 q 138 34 136 26 l 320 712 q 363 746 329 746 l 417 746 q 444 725 444 746 q 442 712 444 720 l 260 34 q 217 0 251 0 l 163 0 m 477 952 q 489 964 477 952 q 533 975 500 975 q 589 952 566 975 q 612 895 612 929 q 589 837 612 860 q 533 814 566 814 q 477 837 500 814 q 453 895 453 861 q 477 952 453 928 m 271 952 q 283 964 271 952 q 327 975 294 975 q 382 952 359 975 q 406 895 406 929 q 382 837 406 860 q 327 814 359 814 q 271 837 294 814 q 248 895 248 860 q 271 952 248 929 z "},"ð":{"ha":765,"x_min":142,"x_max":895,"o":"m 379 -14 q 191 79 253 -14 q 142 246 142 150 q 161 373 142 305 q 349 667 210 554 q 589 760 461 760 q 749 646 712 760 q 753 718 753 684 q 721 886 753 815 q 701 920 713 905 l 578 869 q 567 867 572 867 q 553 879 555 867 l 550 897 q 549 902 549 901 q 551 909 549 905 q 567 924 553 919 l 657 962 q 543 1010 612 994 q 534 1017 534 1012 q 536 1023 534 1020 l 545 1040 q 559 1050 551 1050 q 566 1049 562 1050 q 726 990 660 1035 l 867 1048 q 878 1051 873 1051 q 891 1039 889 1051 l 895 1021 q 895 1015 895 1017 q 895 1009 895 1012 q 878 994 892 999 l 775 951 q 791 933 784 942 q 869 700 869 842 q 841 512 869 616 l 804 373 q 616 79 755 192 q 379 -14 504 -14 m 391 31 q 564 134 487 31 q 669 373 628 220 q 697 554 697 479 q 692 612 697 586 q 574 715 671 715 q 403 612 479 715 q 297 373 338 523 q 269 196 269 270 q 275 134 269 162 q 391 31 296 31 z "},"ñ":{"ha":821,"x_min":136,"x_max":849,"o":"m 163 0 q 136 21 136 0 q 138 34 136 26 l 320 712 q 363 746 329 746 l 417 746 q 444 725 444 746 q 442 712 444 720 q 416 616 442 712 q 495 701 448 665 q 665 760 571 760 q 820 669 777 760 q 836 587 836 634 q 821 481 836 540 l 701 34 q 659 0 692 0 l 604 0 q 577 21 577 0 q 579 34 577 26 l 699 481 q 712 570 712 532 q 708 605 712 590 q 591 684 686 684 q 437 604 503 684 q 380 481 400 557 l 260 34 q 217 0 251 0 l 163 0 m 591 977 q 644 960 623 977 l 715 905 q 746 892 730 892 q 839 964 789 892 l 849 964 q 699 814 799 814 q 646 831 667 814 l 575 886 q 545 899 559 899 q 451 827 500 899 l 441 827 q 591 977 491 977 z "},"ò":{"ha":765,"x_min":142,"x_max":823,"o":"m 391 31 q 564 134 487 31 q 669 373 627 220 q 698 555 698 480 q 692 612 698 587 q 574 715 671 715 q 403 612 479 715 q 296 373 337 523 q 269 195 269 270 q 274 134 269 162 q 391 31 295 31 m 379 -14 q 191 79 253 -14 q 142 246 142 150 q 161 373 142 305 q 349 667 210 554 q 589 760 461 760 q 774 667 711 760 q 823 502 823 597 q 804 373 823 442 q 616 79 755 192 q 379 -14 504 -14 m 475 986 q 526 1006 492 1006 q 577 968 560 1006 l 654 799 l 640 787 l 494 878 q 456 934 456 902 q 475 986 456 966 z "},"ó":{"ha":765,"x_min":142,"x_max":823,"o":"m 391 31 q 564 134 487 31 q 669 373 627 220 q 698 555 698 480 q 692 612 698 587 q 574 715 671 715 q 403 612 479 715 q 296 373 337 523 q 269 195 269 270 q 274 134 269 162 q 391 31 295 31 m 379 -14 q 191 79 253 -14 q 142 246 142 150 q 161 373 142 305 q 349 667 210 554 q 589 760 461 760 q 774 667 711 760 q 823 502 823 597 q 804 373 823 442 q 616 79 755 192 q 379 -14 504 -14 m 758 1006 q 804 987 787 1006 q 819 943 819 970 q 777 886 819 905 l 559 787 l 552 799 l 694 976 q 758 1006 719 1006 z "},"ô":{"ha":765,"x_min":142,"x_max":823,"o":"m 633 991 q 667 991 633 991 q 703 964 691 991 l 775 800 l 720 800 q 677 827 688 800 q 637 927 677 827 l 545 827 q 488 800 519 800 l 422 800 l 583 964 q 633 991 610 991 m 391 31 q 564 134 487 31 q 669 373 627 220 q 698 555 698 480 q 692 612 698 587 q 574 715 671 715 q 403 612 479 715 q 296 373 337 523 q 269 195 269 270 q 274 134 269 162 q 391 31 295 31 m 379 -14 q 191 79 253 -14 q 142 246 142 150 q 161 373 142 305 q 349 667 210 554 q 589 760 461 760 q 774 667 711 760 q 823 502 823 597 q 804 373 823 442 q 616 79 755 192 q 379 -14 504 -14 z "},"õ":{"ha":765,"x_min":142,"x_max":836,"o":"m 391 31 q 564 134 487 31 q 669 373 627 220 q 698 555 698 480 q 692 612 698 587 q 574 715 671 715 q 403 612 479 715 q 296 373 337 523 q 269 195 269 270 q 274 134 269 162 q 391 31 295 31 m 379 -14 q 191 79 253 -14 q 142 246 142 150 q 161 373 142 305 q 349 667 210 554 q 589 760 461 760 q 774 667 711 760 q 823 502 823 597 q 804 373 823 442 q 616 79 755 192 q 379 -14 504 -14 m 578 977 q 631 960 610 977 l 701 905 q 732 892 717 892 q 825 964 776 892 l 836 964 q 686 814 785 814 q 632 831 654 814 l 562 886 q 531 899 546 899 q 437 827 487 899 l 427 827 q 578 977 477 977 z "},"ö":{"ha":765,"x_min":142,"x_max":823,"o":"m 669 952 q 681 964 669 952 q 726 975 693 975 q 781 952 758 975 q 804 895 804 929 q 781 837 804 860 q 726 814 758 814 q 669 837 693 814 q 646 895 646 861 q 669 952 646 928 m 464 952 q 475 964 464 952 q 519 975 487 975 q 575 952 552 975 q 598 895 598 929 q 575 837 598 860 q 519 814 552 814 q 464 837 487 814 q 441 895 441 860 q 464 952 441 929 m 391 31 q 564 134 487 31 q 669 373 627 220 q 698 555 698 480 q 692 612 698 587 q 574 715 671 715 q 403 612 479 715 q 296 373 337 523 q 269 195 269 270 q 274 134 269 162 q 391 31 295 31 m 379 -14 q 191 79 253 -14 q 142 246 142 150 q 161 373 142 305 q 349 667 210 554 q 589 760 461 760 q 774 667 711 760 q 823 502 823 597 q 804 373 823 442 q 616 79 755 192 q 379 -14 504 -14 z "},"÷":{"ha":768,"x_min":233,"x_max":810,"o":"m 525 228 q 512 215 525 228 q 463 202 499 202 q 400 228 426 202 q 374 292 374 254 q 400 355 374 329 q 463 381 426 381 q 525 355 499 381 q 550 292 550 329 q 525 228 550 254 m 642 666 q 629 653 642 666 q 580 640 616 640 q 517 666 543 640 q 492 729 492 692 q 517 792 492 766 q 580 819 543 819 q 642 792 616 819 q 667 729 667 766 q 642 666 667 692 m 286 563 l 783 563 q 810 542 810 563 q 808 529 810 536 l 800 495 q 756 461 791 461 l 259 461 q 233 482 233 461 q 235 495 233 488 l 243 529 q 286 563 252 563 z "},"ø":{"ha":765,"x_min":142,"x_max":823,"o":"m 379 -14 q 284 3 326 -14 l 245 -59 q 218 -78 233 -78 q 206 -75 213 -78 l 195 -71 q 182 -54 182 -65 q 182 -49 182 -52 q 188 -36 185 -41 l 231 33 q 191 79 208 52 q 142 246 142 150 q 161 373 142 305 q 349 667 210 554 q 589 760 461 760 q 681 743 640 760 l 720 805 q 747 824 732 824 q 758 821 751 824 l 770 817 q 783 801 783 812 q 783 794 783 797 q 777 782 781 787 l 733 713 q 774 667 755 694 q 823 502 823 597 q 804 373 823 442 q 616 79 755 192 q 379 -14 504 -14 m 391 31 q 564 134 487 31 q 669 373 628 220 q 697 554 697 479 q 692 612 697 586 q 685 636 689 625 l 317 54 q 391 31 345 31 m 281 111 l 648 692 q 574 715 620 715 q 403 612 479 715 q 297 373 338 523 q 269 196 269 270 q 275 134 269 162 q 281 111 277 122 z "},"ù":{"ha":821,"x_min":184,"x_max":885,"o":"m 658 0 l 604 0 q 576 21 576 0 q 578 34 576 26 l 605 130 q 526 45 572 81 q 356 -14 450 -14 q 201 77 243 -14 q 184 159 184 112 q 200 264 184 206 l 319 712 q 362 746 328 746 l 416 746 q 444 725 444 746 q 441 712 444 720 l 322 264 q 309 176 309 214 q 313 141 309 156 q 429 62 334 62 q 583 142 518 62 q 641 264 621 189 l 761 712 q 804 746 770 746 l 858 746 q 885 725 885 746 q 883 712 885 720 l 701 34 q 658 0 692 0 m 477 986 q 528 1006 494 1006 q 579 968 562 1006 l 656 799 l 642 787 l 496 878 q 458 934 458 902 q 477 986 458 966 z "},"ú":{"ha":821,"x_min":184,"x_max":885,"o":"m 658 0 l 604 0 q 576 21 576 0 q 578 34 576 26 l 605 130 q 526 45 572 81 q 356 -14 450 -14 q 201 77 243 -14 q 184 159 184 112 q 200 264 184 206 l 319 712 q 362 746 328 746 l 416 746 q 444 725 444 746 q 441 712 444 720 l 322 264 q 309 176 309 214 q 313 141 309 156 q 429 62 334 62 q 583 142 518 62 q 641 264 621 189 l 761 712 q 804 746 770 746 l 858 746 q 885 725 885 746 q 883 712 885 720 l 701 34 q 658 0 692 0 m 751 1006 q 797 987 781 1006 q 812 943 812 970 q 770 886 812 905 l 553 787 l 545 799 l 688 976 q 751 1006 712 1006 z "},"û":{"ha":821,"x_min":184,"x_max":885,"o":"m 658 0 l 604 0 q 576 21 576 0 q 578 34 576 26 l 605 130 q 526 45 572 81 q 356 -14 450 -14 q 201 77 243 -14 q 184 159 184 112 q 200 264 184 206 l 319 712 q 362 746 328 746 l 416 746 q 444 725 444 746 q 441 712 444 720 l 322 264 q 309 176 309 214 q 313 141 309 156 q 429 62 334 62 q 583 142 518 62 q 641 264 621 189 l 761 712 q 804 746 770 746 l 858 746 q 885 725 885 746 q 883 712 885 720 l 701 34 q 658 0 692 0 m 645 991 l 679 991 q 715 964 703 991 l 787 800 l 732 800 q 690 827 701 800 l 650 927 l 557 827 q 500 800 532 800 l 435 800 l 595 964 q 645 991 622 991 z "},"ü":{"ha":821,"x_min":184,"x_max":885,"o":"m 658 0 l 604 0 q 576 21 576 0 q 578 34 576 26 l 605 130 q 526 45 572 81 q 356 -14 450 -14 q 201 77 243 -14 q 184 159 184 112 q 200 264 184 206 l 319 712 q 362 746 328 746 l 416 746 q 444 725 444 746 q 441 712 444 720 l 322 264 q 309 176 309 214 q 313 141 309 156 q 429 62 334 62 q 583 142 518 62 q 641 264 621 189 l 761 712 q 804 746 770 746 l 858 746 q 885 725 885 746 q 883 712 885 720 l 701 34 q 658 0 692 0 m 682 952 q 694 964 682 952 q 739 975 706 975 q 794 952 771 975 q 817 895 817 929 q 794 837 817 860 q 739 814 771 814 q 682 837 706 814 q 659 895 659 861 q 682 952 659 928 m 477 952 q 488 964 477 952 q 532 975 500 975 q 588 952 565 975 q 611 895 611 929 q 588 837 611 860 q 532 814 565 814 q 477 837 500 814 q 454 895 454 860 q 477 952 454 929 z "},"ý":{"ha":821,"x_min":101,"x_max":884,"o":"m 356 -14 q 201 77 244 -14 q 184 161 184 113 q 199 264 184 206 l 319 712 q 362 746 328 746 l 416 746 q 444 725 444 746 q 441 712 444 720 l 321 264 q 308 178 308 214 q 312 142 308 157 q 429 62 334 62 q 583 142 517 62 q 640 264 620 189 l 760 712 q 804 746 769 746 l 858 746 q 884 725 884 746 q 882 712 884 720 l 710 68 q 536 -205 663 -110 q 292 -292 421 -292 q 159 -258 206 -292 q 101 -152 101 -218 q 114 -96 101 -121 q 138 -64 123 -78 q 201 -39 165 -39 q 263 -65 238 -39 q 289 -128 289 -91 q 263 -192 289 -165 q 201 -218 237 -218 q 162 -208 180 -218 q 284 -250 212 -250 q 475 -167 383 -250 q 570 0 541 -107 l 604 130 q 526 45 572 81 q 356 -14 450 -14 m 751 1006 q 797 987 781 1006 q 812 943 812 970 q 770 886 812 905 l 553 787 l 545 799 l 688 976 q 751 1006 712 1006 z "},"þ":{"ha":779,"x_min":62,"x_max":839,"o":"m 398 37 q 578 141 494 37 q 682 373 642 219 q 709 543 709 474 q 703 605 709 578 q 578 709 677 709 q 473 669 519 709 q 393 530 417 620 l 309 216 q 298 145 298 177 q 315 77 298 104 q 398 37 340 37 m 88 -278 q 62 -257 62 -278 q 64 -244 62 -252 l 394 990 q 437 1024 403 1024 l 492 1024 q 518 1003 518 1024 q 516 990 518 998 l 434 683 q 613 760 503 760 q 804 648 736 760 q 839 512 839 592 q 819 374 839 450 q 657 98 774 208 q 406 -14 538 -14 q 268 64 296 -14 l 186 -244 q 142 -278 177 -278 l 88 -278 z "},"ÿ":{"ha":821,"x_min":101,"x_max":884,"o":"m 356 -14 q 201 77 244 -14 q 184 161 184 113 q 199 264 184 206 l 319 712 q 362 746 328 746 l 416 746 q 444 725 444 746 q 441 712 444 720 l 321 264 q 308 178 308 214 q 312 142 308 157 q 429 62 334 62 q 583 142 517 62 q 640 264 620 189 l 760 712 q 804 746 769 746 l 858 746 q 884 725 884 746 q 882 712 884 720 l 710 68 q 536 -205 663 -110 q 292 -292 421 -292 q 159 -258 206 -292 q 101 -152 101 -218 q 114 -96 101 -121 q 138 -64 123 -78 q 201 -39 165 -39 q 263 -65 238 -39 q 289 -128 289 -91 q 263 -192 289 -165 q 201 -218 237 -218 q 162 -208 180 -218 q 284 -250 212 -250 q 475 -167 383 -250 q 570 0 541 -107 l 604 130 q 526 45 572 81 q 356 -14 450 -14 m 682 952 q 694 964 682 952 q 739 975 706 975 q 794 952 771 975 q 817 895 817 929 q 794 837 817 860 q 739 814 771 814 q 682 837 706 814 q 659 895 659 861 q 682 952 659 928 m 477 952 q 488 964 477 952 q 532 975 500 975 q 588 952 565 975 q 611 895 611 929 q 588 837 611 860 q 532 814 565 814 q 477 837 500 814 q 454 895 454 860 q 477 952 454 929 z "},"Ā":{"ha":859,"x_min":0,"x_max":899,"o":"m 14 0 q 0 9 0 0 q 3 17 0 13 l 602 897 l 590 990 q 589 1000 589 996 q 615 1024 590 1024 l 684 1024 q 726 990 721 1024 l 864 34 q 865 24 865 29 q 839 0 864 0 l 770 0 q 728 34 733 0 l 684 339 l 296 339 l 76 17 q 50 0 64 0 l 14 0 m 615 808 l 337 400 l 675 400 l 615 808 m 559 1225 l 878 1225 q 899 1208 899 1225 q 897 1198 899 1203 l 888 1164 q 854 1137 882 1137 l 535 1137 q 514 1153 514 1137 q 515 1164 514 1158 l 524 1198 q 559 1225 531 1225 z "},"ā":{"ha":779,"x_min":140,"x_max":845,"o":"m 616 0 l 562 0 q 535 21 535 0 q 537 34 535 26 l 545 64 q 366 -14 480 -14 q 175 98 243 -14 q 140 234 140 154 q 161 372 140 296 q 322 648 205 538 q 573 760 441 760 q 711 682 684 760 l 719 712 q 762 746 727 746 l 817 746 q 843 725 843 746 q 841 712 843 720 l 659 34 q 616 0 650 0 m 401 37 q 506 77 460 37 q 586 216 562 126 l 670 530 q 681 602 681 570 q 664 669 681 642 q 581 709 640 709 q 401 605 485 709 q 297 373 338 527 q 269 203 270 271 q 277 141 269 168 q 401 37 305 37 m 505 933 l 824 933 q 845 916 845 933 q 844 906 845 911 l 835 872 q 800 845 828 845 l 481 845 q 460 861 460 845 q 462 872 460 867 l 471 906 q 505 933 477 933 z "},"Ă":{"ha":859,"x_min":0,"x_max":907,"o":"m 14 0 q 0 9 0 0 q 3 17 0 13 l 602 897 l 590 990 q 589 1000 589 996 q 615 1024 590 1024 l 684 1024 q 726 990 721 1024 l 864 34 q 865 24 865 29 q 839 0 864 0 l 770 0 q 728 34 733 0 l 684 339 l 296 339 l 76 17 q 50 0 64 0 l 14 0 m 615 808 l 337 400 l 675 400 l 615 808 m 555 1270 l 571 1270 q 609 1253 602 1270 q 708 1180 639 1180 q 844 1253 776 1180 q 891 1270 861 1270 l 907 1270 q 684 1092 808 1092 q 555 1270 559 1092 z "},"ă":{"ha":779,"x_min":140,"x_max":848,"o":"m 616 0 l 562 0 q 535 21 535 0 q 537 34 535 26 l 545 64 q 366 -14 480 -14 q 175 98 243 -14 q 140 234 140 154 q 161 372 140 296 q 322 648 205 538 q 573 760 441 760 q 711 682 684 760 l 719 712 q 762 746 727 746 l 817 746 q 843 725 843 746 q 841 712 843 720 l 659 34 q 616 0 650 0 m 401 37 q 506 77 460 37 q 586 216 562 126 l 670 530 q 681 602 681 570 q 664 669 681 642 q 581 709 640 709 q 401 605 485 709 q 297 373 338 527 q 269 203 270 271 q 277 141 269 168 q 401 37 305 37 m 496 985 l 512 985 q 550 968 543 985 q 650 895 580 895 q 785 968 718 895 q 832 985 802 985 l 848 985 q 625 807 749 807 q 496 985 500 807 z "},"Ą":{"ha":859,"x_min":0,"x_max":874,"o":"m 615 808 l 337 400 l 675 400 l 615 808 m 14 0 q 0 9 0 0 q 3 17 0 13 l 602 897 l 590 990 q 589 1000 589 996 q 615 1024 590 1024 l 684 1024 q 726 990 721 1024 l 864 34 q 865 24 865 29 q 839 0 864 0 q 779 -96 789 -55 q 774 -123 774 -111 q 785 -155 774 -142 q 848 -175 802 -175 q 874 -196 874 -175 q 872 -209 874 -202 l 859 -258 q 817 -292 850 -292 q 700 -240 738 -292 q 680 -179 680 -214 q 686 -140 680 -161 q 793 0 707 -62 l 770 0 q 728 34 733 0 l 684 339 l 296 339 l 76 17 q 50 0 64 0 l 14 0 z "},"ą":{"ha":779,"x_min":140,"x_max":843,"o":"m 401 37 q 506 77 460 37 q 586 216 562 126 l 670 530 q 681 602 681 570 q 664 669 681 642 q 581 709 640 709 q 401 605 485 709 q 297 373 338 527 q 269 203 270 271 q 277 141 269 168 q 401 37 305 37 m 616 0 q 556 -96 567 -55 q 552 -123 552 -111 q 563 -155 552 -142 q 625 -175 580 -175 q 652 -196 652 -175 q 650 -209 652 -202 l 637 -258 q 594 -292 628 -292 q 477 -240 515 -292 q 458 -179 458 -214 q 463 -140 458 -161 q 571 0 484 -62 l 562 0 q 535 21 535 0 q 537 34 535 26 l 545 64 q 366 -14 480 -14 q 175 98 243 -14 q 140 234 140 154 q 161 372 140 296 q 322 648 205 538 q 573 760 441 760 q 711 682 684 760 l 719 712 q 762 746 727 746 l 817 746 q 843 725 843 746 q 841 712 843 720 l 659 34 q 616 0 650 0 z "},"Ć":{"ha":827,"x_min":176,"x_max":1026,"o":"m 490 -14 q 241 91 317 -14 q 176 313 176 180 q 205 512 176 402 q 467 933 282 798 q 765 1038 609 1038 q 960 950 895 1038 q 1001 829 1001 896 q 992 768 1001 795 q 964 720 983 741 q 899 692 937 692 q 837 719 862 692 q 811 782 811 745 q 837 845 811 819 q 899 871 863 871 q 938 861 920 871 q 767 987 907 987 q 550 895 650 987 q 361 512 437 791 q 319 252 319 353 q 344 130 319 174 q 520 37 397 37 q 731 122 634 37 q 829 228 785 169 l 840 228 l 811 121 q 490 -14 668 -14 m 965 1291 q 1011 1272 995 1291 q 1026 1228 1026 1255 q 985 1171 1026 1190 l 767 1072 l 760 1084 l 902 1261 q 965 1291 926 1291 z "},"ć":{"ha":692,"x_min":142,"x_max":819,"o":"m 393 -14 q 191 79 257 -14 q 142 243 142 147 q 161 373 142 302 q 349 667 212 566 q 604 760 472 760 q 766 685 709 760 q 797 593 797 644 q 789 543 797 566 q 761 495 780 515 q 696 468 734 468 q 634 494 659 468 q 608 557 608 520 q 634 621 608 595 q 696 647 660 647 q 735 637 717 647 q 609 709 700 709 q 409 610 493 709 q 300 373 342 532 q 273 205 273 272 q 282 136 273 165 q 437 37 315 37 q 618 114 534 37 q 659 155 640 133 l 669 155 l 649 79 q 393 -14 536 -14 m 758 1006 q 804 987 787 1006 q 819 943 819 970 q 777 886 819 905 l 559 787 l 552 799 l 694 976 q 758 1006 719 1006 z "},"Ĉ":{"ha":827,"x_min":176,"x_max":1001,"o":"m 490 -14 q 241 91 317 -14 q 176 313 176 180 q 205 512 176 402 q 467 933 282 798 q 765 1038 609 1038 q 960 950 895 1038 q 1001 829 1001 896 q 992 768 1001 795 q 964 720 983 741 q 899 692 937 692 q 837 719 862 692 q 811 782 811 745 q 837 845 811 819 q 899 871 863 871 q 938 861 920 871 q 767 987 907 987 q 550 895 650 987 q 361 512 437 791 q 319 252 319 353 q 344 130 319 174 q 520 37 397 37 q 731 122 634 37 q 829 228 785 169 l 840 228 l 811 121 q 490 -14 668 -14 m 803 1276 l 837 1276 q 873 1249 861 1276 l 945 1085 l 890 1085 q 848 1112 859 1085 l 808 1212 l 715 1112 q 658 1085 690 1085 l 593 1085 l 753 1249 q 803 1276 780 1276 z "},"ĉ":{"ha":692,"x_min":142,"x_max":797,"o":"m 393 -14 q 191 79 257 -14 q 142 243 142 147 q 161 373 142 302 q 349 667 212 566 q 604 760 472 760 q 766 685 709 760 q 797 593 797 644 q 789 543 797 566 q 761 495 780 515 q 696 468 734 468 q 634 494 659 468 q 608 557 608 520 q 634 621 608 595 q 696 647 660 647 q 735 637 717 647 q 609 709 700 709 q 409 610 493 709 q 300 373 342 532 q 273 205 273 272 q 282 136 273 165 q 437 37 315 37 q 618 114 534 37 q 659 155 640 133 l 669 155 l 649 79 q 393 -14 536 -14 m 652 991 l 686 991 q 722 964 710 991 l 794 800 l 739 800 q 696 827 707 800 l 656 927 l 564 827 q 507 800 538 800 l 441 800 l 602 964 q 652 991 629 991 z "},"Ċ":{"ha":827,"x_min":176,"x_max":1001,"o":"m 741 1238 q 754 1251 741 1238 q 804 1264 767 1264 q 866 1238 840 1264 q 891 1175 891 1212 q 866 1111 891 1137 q 804 1085 840 1085 q 741 1111 767 1085 q 715 1175 715 1137 q 741 1238 715 1212 m 490 -14 q 241 91 317 -14 q 176 313 176 180 q 205 512 176 402 q 467 933 282 798 q 765 1038 609 1038 q 960 950 895 1038 q 1001 829 1001 896 q 992 768 1001 795 q 964 720 983 741 q 899 692 937 692 q 837 719 862 692 q 811 782 811 745 q 837 845 811 819 q 899 871 863 871 q 938 861 920 871 q 767 987 907 987 q 550 895 650 987 q 361 512 437 791 q 319 252 319 353 q 344 130 319 174 q 520 37 397 37 q 731 122 634 37 q 829 228 785 169 l 840 228 l 811 121 q 490 -14 668 -14 z "},"ċ":{"ha":692,"x_min":142,"x_max":797,"o":"m 581 953 q 593 966 581 953 q 643 979 606 979 q 705 953 680 979 q 730 890 730 927 q 705 826 730 852 q 643 800 680 800 q 581 826 606 800 q 555 890 555 852 q 581 953 555 927 m 393 -14 q 191 79 257 -14 q 142 243 142 147 q 161 373 142 302 q 349 667 212 566 q 604 760 472 760 q 766 685 709 760 q 797 593 797 644 q 789 543 797 566 q 761 495 780 515 q 696 468 734 468 q 634 494 659 468 q 608 557 608 520 q 634 621 608 595 q 696 647 660 647 q 735 637 717 647 q 609 709 700 709 q 409 610 493 709 q 300 373 342 532 q 273 205 273 272 q 282 136 273 165 q 437 37 315 37 q 618 114 534 37 q 659 155 640 133 l 669 155 l 649 79 q 393 -14 536 -14 z "},"Č":{"ha":827,"x_min":176,"x_max":1006,"o":"m 490 -14 q 241 91 317 -14 q 176 313 176 180 q 205 512 176 402 q 467 933 282 798 q 765 1038 609 1038 q 960 950 895 1038 q 1001 829 1001 896 q 992 768 1001 795 q 964 720 983 741 q 899 692 937 692 q 837 719 862 692 q 811 782 811 745 q 837 845 811 819 q 899 871 863 871 q 938 861 920 871 q 767 987 907 987 q 550 895 650 987 q 361 512 437 791 q 319 252 319 353 q 344 130 319 174 q 520 37 397 37 q 731 122 634 37 q 829 228 785 169 l 840 228 l 811 121 q 490 -14 668 -14 m 654 1276 l 709 1276 q 752 1249 741 1276 l 791 1149 l 885 1249 q 941 1276 911 1276 l 1006 1276 l 846 1112 q 796 1085 821 1085 l 762 1085 q 727 1112 739 1085 l 654 1276 z "},"č":{"ha":692,"x_min":142,"x_max":846,"o":"m 393 -14 q 191 79 257 -14 q 142 243 142 147 q 161 373 142 302 q 349 667 212 566 q 604 760 472 760 q 766 685 709 760 q 797 593 797 644 q 789 543 797 566 q 761 495 780 515 q 696 468 734 468 q 634 494 659 468 q 608 557 608 520 q 634 621 608 595 q 696 647 660 647 q 735 637 717 647 q 609 709 700 709 q 409 610 493 709 q 300 373 342 532 q 273 205 273 272 q 282 136 273 165 q 437 37 315 37 q 618 114 534 37 q 659 155 640 133 l 669 155 l 649 79 q 393 -14 536 -14 m 493 991 l 549 991 q 591 964 581 991 l 631 864 l 724 964 q 781 991 750 991 l 846 991 l 686 827 q 635 800 660 800 l 602 800 q 566 827 578 800 l 493 991 z "},"Ď":{"ha":979,"x_min":183,"x_max":1073,"o":"m 210 0 q 183 21 183 0 q 185 34 183 26 l 385 780 q 429 814 394 814 l 496 814 q 523 793 523 814 q 521 780 523 787 l 335 88 q 333 75 333 81 q 360 54 333 54 l 467 54 q 755 215 628 54 q 890 512 840 323 q 916 697 916 612 q 904 808 916 755 q 687 977 865 977 q 192 709 419 977 l 184 714 q 724 1038 407 1038 q 1037 859 956 1038 q 1073 683 1073 779 q 1048 511 1073 603 q 846 159 991 299 q 471 0 681 0 l 210 0 m 653 1276 l 709 1276 q 751 1249 741 1276 l 791 1149 l 884 1249 q 941 1276 910 1276 l 1006 1276 l 846 1112 q 795 1085 820 1085 l 762 1085 q 726 1112 739 1085 l 653 1276 z "},"ď":{"ha":858,"x_min":140,"x_max":1126,"o":"m 616 0 l 562 0 q 535 21 535 0 q 537 34 535 26 l 545 64 q 366 -14 484 -14 q 175 98 243 -14 q 140 235 140 154 q 161 372 140 296 q 322 648 205 541 q 573 760 442 760 q 711 682 684 760 l 793 990 q 837 1024 802 1024 l 891 1024 q 918 1003 918 1024 q 916 990 918 998 l 659 34 q 616 0 650 0 m 401 37 q 506 77 460 37 q 586 216 562 126 l 670 530 q 681 602 681 570 q 664 669 681 642 q 581 709 640 709 q 401 605 485 709 q 297 373 338 527 q 269 203 270 271 q 277 141 269 168 q 401 37 305 37 m 1050 1044 q 1061 1042 1055 1044 l 1112 1021 q 1126 1004 1126 1016 q 1126 999 1126 1001 q 1117 983 1124 992 l 987 804 q 958 785 974 785 q 946 788 952 785 l 922 799 q 908 817 908 806 q 909 822 908 820 q 913 833 911 828 l 1023 1024 q 1050 1044 1034 1044 z "},"Đ":{"ha":979,"x_min":170,"x_max":1073,"o":"m 210 0 q 183 21 183 0 q 185 34 183 26 l 285 406 l 185 406 q 170 419 170 406 q 170 427 170 424 l 176 447 q 201 467 181 467 l 301 467 l 385 780 q 429 814 394 814 l 496 814 q 523 793 523 814 q 521 780 523 787 l 437 467 l 608 467 q 624 454 624 467 q 623 447 624 450 l 618 427 q 592 406 612 406 l 420 406 l 335 88 q 333 75 333 81 q 360 54 333 54 l 467 54 q 755 215 628 54 q 890 512 840 323 q 916 697 916 612 q 904 808 916 755 q 687 977 865 977 q 192 709 419 977 l 184 714 q 724 1038 407 1038 q 1037 859 956 1038 q 1073 683 1073 779 q 1048 511 1073 603 q 846 159 991 299 q 471 0 681 0 l 210 0 z "},"đ":{"ha":779,"x_min":140,"x_max":918,"o":"m 401 37 q 506 77 460 37 q 586 216 562 126 l 621 348 l 456 348 q 440 361 440 348 q 441 368 440 366 l 446 389 q 472 409 452 409 l 637 409 l 670 530 q 681 602 681 570 q 664 669 681 642 q 581 709 640 709 q 401 605 485 709 q 297 373 338 527 q 269 203 270 271 q 277 141 269 168 q 401 37 305 37 m 616 0 l 562 0 q 535 21 535 0 q 537 34 535 26 l 545 64 q 366 -14 484 -14 q 175 98 243 -14 q 140 235 140 154 q 161 372 140 296 q 322 648 205 541 q 573 760 442 760 q 711 682 684 760 l 793 990 q 837 1024 802 1024 l 891 1024 q 918 1003 918 1024 q 916 990 918 998 l 760 409 l 835 409 q 850 396 850 409 q 850 389 850 391 l 844 368 q 819 348 839 348 l 743 348 l 659 34 q 616 0 650 0 z "},"Ē":{"ha":777,"x_min":140,"x_max":924,"o":"m 441 -14 q 201 71 278 -14 q 140 231 140 138 q 153 319 140 272 q 273 512 184 436 q 487 601 368 592 q 401 657 431 619 q 366 757 366 702 q 374 810 366 783 q 504 981 402 916 q 696 1038 591 1038 q 855 959 804 1038 q 882 871 882 917 q 875 821 882 845 q 847 774 865 793 q 782 746 820 746 q 720 772 745 746 q 694 836 694 798 q 720 899 694 873 q 783 925 746 925 q 821 915 803 925 q 703 994 791 994 q 569 933 624 994 q 507 817 526 886 q 496 742 496 775 q 513 675 496 702 q 630 591 547 619 l 627 581 q 435 512 518 567 q 302 319 336 446 q 286 212 286 258 q 306 123 286 159 q 460 37 354 37 q 658 114 568 37 q 784 269 726 172 l 794 269 l 761 143 q 692 79 728 108 q 441 -14 574 -14 m 585 1225 l 903 1225 q 924 1208 924 1225 q 923 1198 924 1203 l 914 1164 q 880 1137 907 1137 l 561 1137 q 540 1153 540 1137 q 541 1164 540 1158 l 550 1198 q 585 1225 557 1225 z "},"ē":{"ha":745,"x_min":142,"x_max":823,"o":"m 393 -14 q 191 79 257 -14 q 142 243 142 147 q 161 373 142 302 q 349 667 210 554 q 590 760 461 760 q 784 671 722 760 q 823 552 823 617 q 813 484 823 519 q 667 342 785 377 l 271 223 q 271 204 271 213 q 280 136 271 165 q 437 37 312 37 q 618 114 536 37 q 659 155 640 133 l 669 155 l 649 79 q 393 -14 536 -14 m 278 284 l 570 373 q 680 475 660 400 q 693 565 693 524 q 688 612 693 590 q 576 715 667 715 q 404 612 481 715 q 298 373 338 523 q 278 284 283 319 m 478 933 l 797 933 q 818 916 818 933 q 817 906 818 911 l 808 872 q 773 845 801 845 l 454 845 q 433 861 433 845 q 435 872 433 867 l 444 906 q 478 933 450 933 z "},"Ĕ":{"ha":777,"x_min":140,"x_max":939,"o":"m 441 -14 q 201 71 278 -14 q 140 231 140 138 q 153 319 140 272 q 273 512 184 436 q 487 601 368 592 q 401 657 431 619 q 366 757 366 702 q 374 810 366 783 q 504 981 402 916 q 696 1038 591 1038 q 855 959 804 1038 q 882 871 882 917 q 875 821 882 845 q 847 774 865 793 q 782 746 820 746 q 720 772 745 746 q 694 836 694 798 q 720 899 694 873 q 783 925 746 925 q 821 915 803 925 q 703 994 791 994 q 569 933 624 994 q 507 817 526 886 q 496 742 496 775 q 513 675 496 702 q 630 591 547 619 l 627 581 q 435 512 518 567 q 302 319 336 446 q 286 212 286 258 q 306 123 286 159 q 460 37 354 37 q 658 114 568 37 q 784 269 726 172 l 794 269 l 761 143 q 692 79 728 108 q 441 -14 574 -14 m 586 1270 l 602 1270 q 640 1253 633 1270 q 739 1180 670 1180 q 875 1253 807 1180 q 922 1270 892 1270 l 939 1270 q 715 1092 840 1092 q 586 1270 590 1092 z "},"ĕ":{"ha":745,"x_min":142,"x_max":842,"o":"m 393 -14 q 191 79 257 -14 q 142 243 142 147 q 161 373 142 302 q 349 667 210 554 q 590 760 461 760 q 784 671 722 760 q 823 552 823 617 q 813 484 823 519 q 667 342 785 377 l 271 223 q 271 204 271 213 q 280 136 271 165 q 437 37 312 37 q 618 114 536 37 q 659 155 640 133 l 669 155 l 649 79 q 393 -14 536 -14 m 278 284 l 570 373 q 680 475 660 400 q 693 565 693 524 q 688 612 693 590 q 576 715 667 715 q 404 612 481 715 q 298 373 338 523 q 278 284 283 319 m 489 985 l 505 985 q 543 968 536 985 q 643 895 573 895 q 778 968 711 895 q 825 985 795 985 l 842 985 q 618 807 743 807 q 489 985 493 807 z "},"Ė":{"ha":777,"x_min":140,"x_max":882,"o":"m 677 1238 q 690 1251 677 1238 q 739 1264 703 1264 q 801 1238 776 1264 q 827 1175 827 1212 q 801 1111 827 1137 q 739 1085 776 1085 q 677 1111 703 1085 q 651 1175 651 1137 q 677 1238 651 1212 m 441 -14 q 201 71 278 -14 q 140 231 140 138 q 153 319 140 272 q 273 512 184 436 q 487 601 368 592 q 401 657 431 619 q 366 757 366 702 q 374 810 366 783 q 504 981 402 916 q 696 1038 591 1038 q 855 959 804 1038 q 882 871 882 917 q 875 821 882 845 q 847 774 865 793 q 782 746 820 746 q 720 772 745 746 q 694 836 694 798 q 720 899 694 873 q 783 925 746 925 q 821 915 803 925 q 703 994 791 994 q 569 933 624 994 q 507 817 526 886 q 496 742 496 775 q 513 675 496 702 q 630 591 547 619 l 627 581 q 435 512 518 567 q 302 319 336 446 q 286 212 286 258 q 306 123 286 159 q 460 37 354 37 q 658 114 568 37 q 784 269 726 172 l 794 269 l 761 143 q 692 79 728 108 q 441 -14 574 -14 z "},"ė":{"ha":745,"x_min":142,"x_max":823,"o":"m 581 953 q 593 966 581 953 q 643 979 606 979 q 705 953 680 979 q 730 890 730 927 q 705 826 730 852 q 643 800 680 800 q 581 826 606 800 q 555 890 555 852 q 581 953 555 927 m 393 -14 q 191 79 257 -14 q 142 243 142 147 q 161 373 142 302 q 349 667 210 554 q 590 760 461 760 q 784 671 722 760 q 823 552 823 617 q 813 484 823 519 q 667 342 785 377 l 271 223 q 271 204 271 213 q 280 136 271 165 q 437 37 312 37 q 618 114 536 37 q 659 155 640 133 l 669 155 l 649 79 q 393 -14 536 -14 m 278 284 l 570 373 q 680 475 660 400 q 693 565 693 524 q 688 612 693 590 q 576 715 667 715 q 404 612 481 715 q 298 373 338 523 q 278 284 283 319 z "},"Ę":{"ha":777,"x_min":140,"x_max":882,"o":"m 418 -13 q 201 71 272 -7 q 140 231 140 138 q 153 319 140 272 q 273 512 184 436 q 487 601 368 592 q 401 657 431 619 q 366 757 366 702 q 374 810 366 783 q 504 981 402 916 q 696 1038 591 1038 q 855 959 804 1038 q 882 871 882 917 q 875 821 882 845 q 847 774 865 793 q 782 746 820 746 q 720 772 745 746 q 694 836 694 798 q 720 899 694 873 q 783 925 746 925 q 821 915 803 925 q 703 994 791 994 q 569 933 624 994 q 507 817 526 886 q 496 742 496 775 q 513 675 496 702 q 630 591 547 619 l 627 581 q 435 512 518 567 q 302 319 336 446 q 286 212 286 258 q 306 123 286 159 q 460 37 354 37 q 658 114 568 37 q 784 269 726 172 l 794 269 l 761 143 q 692 79 728 108 q 470 -12 587 -3 q 420 -96 430 -60 q 416 -123 416 -111 q 427 -155 416 -142 q 490 -175 444 -175 q 516 -196 516 -175 q 514 -209 516 -202 l 501 -258 q 458 -292 492 -292 q 342 -240 380 -292 q 322 -179 322 -214 q 328 -140 322 -161 q 418 -13 346 -70 z "},"ę":{"ha":745,"x_min":142,"x_max":823,"o":"m 278 284 l 570 373 q 680 475 660 400 q 693 565 693 524 q 688 612 693 590 q 576 715 667 715 q 404 612 481 715 q 298 373 338 523 q 278 284 283 319 m 365 -13 q 191 79 250 -4 q 142 243 142 147 q 161 373 142 302 q 349 667 210 554 q 590 760 461 760 q 784 671 722 760 q 823 552 823 617 q 813 484 823 519 q 667 342 785 377 l 271 223 q 271 204 271 213 q 280 136 271 165 q 437 37 312 37 q 618 114 536 37 q 659 155 640 133 l 669 155 l 649 79 q 416 -13 546 -6 q 367 -96 376 -60 q 363 -123 363 -111 q 374 -155 363 -142 q 436 -175 391 -175 q 463 -196 463 -175 q 460 -209 463 -202 l 448 -258 q 405 -292 439 -292 q 288 -240 326 -292 q 269 -179 269 -214 q 274 -140 269 -161 q 365 -13 293 -70 z "},"Ě":{"ha":777,"x_min":140,"x_max":943,"o":"m 441 -14 q 201 71 278 -14 q 140 231 140 138 q 153 319 140 272 q 273 512 184 436 q 487 601 368 592 q 401 657 431 619 q 366 757 366 702 q 374 810 366 783 q 504 981 402 916 q 696 1038 591 1038 q 855 959 804 1038 q 882 871 882 917 q 875 821 882 845 q 847 774 865 793 q 782 746 820 746 q 720 772 745 746 q 694 836 694 798 q 720 899 694 873 q 783 925 746 925 q 821 915 803 925 q 703 994 791 994 q 569 933 624 994 q 507 817 526 886 q 496 742 496 775 q 513 675 496 702 q 630 591 547 619 l 627 581 q 435 512 518 567 q 302 319 336 446 q 286 212 286 258 q 306 123 286 159 q 460 37 354 37 q 658 114 568 37 q 784 269 726 172 l 794 269 l 761 143 q 692 79 728 108 q 441 -14 574 -14 m 590 1276 l 646 1276 q 688 1249 677 1276 l 728 1149 l 821 1249 q 878 1276 847 1276 l 943 1276 l 783 1112 q 732 1085 757 1085 l 699 1085 q 663 1112 675 1085 l 590 1276 z "},"ě":{"ha":745,"x_min":142,"x_max":846,"o":"m 493 991 l 549 991 q 591 964 581 991 l 631 864 l 724 964 q 781 991 750 991 l 846 991 l 686 827 q 635 800 660 800 l 602 800 q 566 827 578 800 l 493 991 m 393 -14 q 191 79 257 -14 q 142 243 142 147 q 161 373 142 302 q 349 667 210 554 q 590 760 461 760 q 784 671 722 760 q 823 552 823 617 q 813 484 823 519 q 667 342 785 377 l 271 223 q 271 204 271 213 q 280 136 271 165 q 437 37 312 37 q 618 114 536 37 q 659 155 640 133 l 669 155 l 649 79 q 393 -14 536 -14 m 278 284 l 570 373 q 680 475 660 400 q 693 565 693 524 q 688 612 693 590 q 576 715 667 715 q 404 612 481 715 q 298 373 338 523 q 278 284 283 319 z "},"Ĝ":{"ha":879,"x_min":176,"x_max":1000,"o":"m 492 -14 q 232 110 315 -14 q 176 316 176 193 q 205 512 176 404 q 466 933 281 798 q 764 1038 608 1038 q 960 950 895 1038 q 1000 829 1000 896 q 991 768 1000 795 q 963 720 983 741 q 898 692 936 692 q 836 719 861 692 q 810 782 810 745 q 836 845 810 819 q 899 871 862 871 q 937 861 919 871 q 766 987 906 987 q 549 895 649 987 q 361 512 434 790 q 321 258 321 361 q 343 130 321 180 q 496 37 385 37 q 691 123 610 37 q 766 257 746 182 q 774 311 774 287 q 646 407 774 407 l 640 407 q 623 418 623 407 q 625 427 623 422 l 630 448 q 656 468 635 468 l 788 468 q 918 373 918 468 q 910 320 918 349 q 772 109 880 206 q 492 -14 638 -14 m 802 1276 l 836 1276 q 872 1249 861 1276 l 945 1085 l 889 1085 q 847 1112 858 1085 l 807 1212 l 714 1112 q 657 1085 689 1085 l 592 1085 l 753 1249 q 802 1276 779 1276 z "},"ĝ":{"ha":772,"x_min":60,"x_max":843,"o":"m 401 37 q 506 77 460 37 q 586 216 562 126 l 670 530 q 681 602 681 570 q 664 669 681 642 q 581 709 640 709 q 401 605 485 709 q 297 373 338 527 q 269 203 270 271 q 277 141 269 168 q 401 37 305 37 m 366 -14 q 175 98 243 -14 q 140 234 140 154 q 161 372 140 296 q 322 648 205 538 q 573 760 441 760 q 711 682 684 760 l 719 712 q 762 746 727 746 l 817 746 q 843 725 843 746 q 841 712 843 720 l 669 68 q 495 -205 621 -110 q 250 -292 380 -292 q 117 -258 165 -292 q 60 -152 60 -218 q 73 -96 60 -121 q 97 -64 81 -78 q 160 -39 123 -39 q 222 -65 197 -39 q 248 -128 248 -91 q 222 -192 248 -165 q 159 -218 196 -218 q 121 -208 139 -218 q 243 -250 171 -250 q 434 -167 352 -250 q 528 0 503 -98 l 545 64 q 366 -14 480 -14 m 652 991 l 686 991 q 722 964 710 991 l 794 800 l 739 800 q 696 827 707 800 l 656 927 l 564 827 q 507 800 538 800 l 441 800 l 602 964 q 652 991 629 991 z "},"Ğ":{"ha":879,"x_min":176,"x_max":1005,"o":"m 492 -14 q 232 110 315 -14 q 176 316 176 193 q 205 512 176 404 q 466 933 281 798 q 764 1038 608 1038 q 960 950 895 1038 q 1000 829 1000 896 q 991 768 1000 795 q 963 720 983 741 q 898 692 936 692 q 836 719 861 692 q 810 782 810 745 q 836 845 810 819 q 899 871 862 871 q 937 861 919 871 q 766 987 906 987 q 549 895 649 987 q 361 512 434 790 q 321 258 321 361 q 343 130 321 180 q 496 37 385 37 q 691 123 610 37 q 766 257 746 182 q 774 311 774 287 q 646 407 774 407 l 640 407 q 623 418 623 407 q 625 427 623 422 l 630 448 q 656 468 635 468 l 788 468 q 918 373 918 468 q 910 320 918 349 q 772 109 880 206 q 492 -14 638 -14 m 652 1270 l 669 1270 q 707 1253 700 1270 q 806 1180 736 1180 q 941 1253 873 1180 q 989 1270 958 1270 l 1005 1270 q 781 1092 906 1092 q 652 1270 656 1092 z "},"ğ":{"ha":772,"x_min":60,"x_max":848,"o":"m 401 37 q 506 77 460 37 q 586 216 562 126 l 670 530 q 681 602 681 570 q 664 669 681 642 q 581 709 640 709 q 401 605 485 709 q 297 373 338 527 q 269 203 270 271 q 277 141 269 168 q 401 37 305 37 m 366 -14 q 175 98 243 -14 q 140 234 140 154 q 161 372 140 296 q 322 648 205 538 q 573 760 441 760 q 711 682 684 760 l 719 712 q 762 746 727 746 l 817 746 q 843 725 843 746 q 841 712 843 720 l 669 68 q 495 -205 621 -110 q 250 -292 380 -292 q 117 -258 165 -292 q 60 -152 60 -218 q 73 -96 60 -121 q 97 -64 81 -78 q 160 -39 123 -39 q 222 -65 197 -39 q 248 -128 248 -91 q 222 -192 248 -165 q 159 -218 196 -218 q 121 -208 139 -218 q 243 -250 171 -250 q 434 -167 352 -250 q 528 0 503 -98 l 545 64 q 366 -14 480 -14 m 496 985 l 512 985 q 550 968 543 985 q 650 895 580 895 q 785 968 718 895 q 832 985 802 985 l 848 985 q 625 807 749 807 q 496 985 500 807 z "},"Ġ":{"ha":879,"x_min":176,"x_max":1000,"o":"m 741 1238 q 753 1251 741 1238 q 803 1264 766 1264 q 865 1238 840 1264 q 890 1175 890 1212 q 865 1111 890 1137 q 803 1085 840 1085 q 741 1111 766 1085 q 715 1175 715 1137 q 741 1238 715 1212 m 492 -14 q 232 110 315 -14 q 176 316 176 193 q 205 512 176 404 q 466 933 281 798 q 764 1038 608 1038 q 960 950 895 1038 q 1000 829 1000 896 q 991 768 1000 795 q 963 720 983 741 q 898 692 936 692 q 836 719 861 692 q 810 782 810 745 q 836 845 810 819 q 899 871 862 871 q 937 861 919 871 q 766 987 906 987 q 549 895 649 987 q 361 512 434 790 q 321 258 321 361 q 343 130 321 180 q 496 37 385 37 q 691 123 610 37 q 766 257 746 182 q 774 311 774 287 q 646 407 774 407 l 640 407 q 623 418 623 407 q 625 427 623 422 l 630 448 q 656 468 635 468 l 788 468 q 918 373 918 468 q 910 320 918 349 q 772 109 880 206 q 492 -14 638 -14 z "},"ġ":{"ha":772,"x_min":60,"x_max":843,"o":"m 581 953 q 593 966 581 953 q 643 979 606 979 q 705 953 680 979 q 730 890 730 927 q 705 826 730 852 q 643 800 680 800 q 581 826 606 800 q 555 890 555 852 q 581 953 555 927 m 401 37 q 506 77 460 37 q 586 216 562 126 l 670 530 q 681 602 681 570 q 664 669 681 642 q 581 709 640 709 q 401 605 485 709 q 297 373 338 527 q 269 203 270 271 q 277 141 269 168 q 401 37 305 37 m 366 -14 q 175 98 243 -14 q 140 234 140 154 q 161 372 140 296 q 322 648 205 538 q 573 760 441 760 q 711 682 684 760 l 719 712 q 762 746 727 746 l 817 746 q 843 725 843 746 q 841 712 843 720 l 669 68 q 495 -205 621 -110 q 250 -292 380 -292 q 117 -258 165 -292 q 60 -152 60 -218 q 73 -96 60 -121 q 97 -64 81 -78 q 160 -39 123 -39 q 222 -65 197 -39 q 248 -128 248 -91 q 222 -192 248 -165 q 159 -218 196 -218 q 121 -208 139 -218 q 243 -250 171 -250 q 434 -167 352 -250 q 528 0 503 -98 l 545 64 q 366 -14 480 -14 z "},"Ģ":{"ha":879,"x_min":176,"x_max":1000,"o":"m 492 -14 q 232 110 315 -14 q 176 316 176 193 q 205 512 176 404 q 466 933 281 798 q 764 1038 608 1038 q 960 950 895 1038 q 1000 829 1000 896 q 991 768 1000 795 q 963 720 983 741 q 898 692 936 692 q 836 719 861 692 q 810 782 810 745 q 836 845 810 819 q 899 871 862 871 q 937 861 919 871 q 766 987 906 987 q 549 895 649 987 q 361 512 434 790 q 321 258 321 361 q 343 130 321 180 q 496 37 385 37 q 691 123 610 37 q 766 257 746 182 q 774 311 774 287 q 646 407 774 407 l 640 407 q 623 418 623 407 q 625 427 623 422 l 630 448 q 656 468 635 468 l 788 468 q 918 373 918 468 q 910 320 918 349 q 772 109 880 206 q 492 -14 638 -14 m 481 -54 q 527 -73 511 -54 q 542 -117 542 -91 q 500 -174 542 -155 l 283 -274 l 275 -262 l 418 -85 q 481 -54 442 -54 z "},"ģ":{"ha":772,"x_min":60,"x_max":843,"o":"m 401 37 q 506 77 460 37 q 586 216 562 126 l 670 530 q 681 602 681 570 q 664 669 681 642 q 581 709 640 709 q 401 605 485 709 q 297 373 338 527 q 269 203 270 271 q 277 141 269 168 q 401 37 305 37 m 366 -14 q 175 98 243 -14 q 140 234 140 154 q 161 372 140 296 q 322 648 205 538 q 573 760 441 760 q 711 682 684 760 l 719 712 q 762 746 727 746 l 817 746 q 843 725 843 746 q 841 712 843 720 l 669 68 q 495 -205 621 -110 q 250 -292 380 -292 q 117 -258 165 -292 q 60 -152 60 -218 q 73 -96 60 -121 q 97 -64 81 -78 q 160 -39 123 -39 q 222 -65 197 -39 q 248 -128 248 -91 q 222 -192 248 -165 q 159 -218 196 -218 q 121 -208 139 -218 q 243 -250 171 -250 q 434 -167 352 -250 q 528 0 503 -98 l 545 64 q 366 -14 480 -14 m 758 1006 q 804 987 787 1006 q 819 943 819 970 q 777 886 819 905 l 559 787 l 552 799 l 694 976 q 758 1006 719 1006 z "},"Ĥ":{"ha":921,"x_min":149,"x_max":1046,"o":"m 176 0 q 149 21 149 0 q 151 34 149 26 l 408 990 q 451 1024 416 1024 l 519 1024 q 545 1003 545 1024 q 543 990 545 998 l 404 468 l 768 468 l 908 990 q 951 1024 917 1024 l 1019 1024 q 1046 1003 1046 1024 q 1044 990 1046 998 l 787 34 q 745 0 779 0 l 677 0 q 650 21 650 0 q 652 34 650 26 l 751 407 l 387 407 l 287 34 q 244 0 278 0 l 176 0 m 789 1276 l 823 1276 q 859 1249 847 1276 l 931 1085 l 876 1085 q 833 1112 844 1085 l 793 1212 l 701 1112 q 644 1085 675 1085 l 578 1085 l 739 1249 q 789 1276 766 1276 z "},"ĥ":{"ha":821,"x_min":136,"x_max":836,"o":"m 163 0 q 136 21 136 0 q 138 34 136 26 l 394 990 q 437 1024 403 1024 l 492 1024 q 518 1003 518 1024 q 516 990 518 998 l 416 616 q 495 701 448 665 q 665 760 571 760 q 820 669 777 760 q 836 587 836 634 q 821 481 836 540 q 701 34 821 481 q 659 0 692 0 l 604 0 q 577 21 577 0 q 579 34 577 26 l 699 481 q 712 569 712 532 q 708 605 712 589 q 592 684 687 684 q 437 604 503 684 q 380 481 400 557 l 260 34 q 217 0 251 0 l 163 0 m 505 1276 l 538 1276 q 574 1249 563 1276 l 647 1085 l 591 1085 q 549 1112 560 1085 l 509 1212 l 416 1112 q 359 1085 391 1085 l 294 1085 l 455 1249 q 505 1276 481 1276 z "},"Ħ":{"ha":921,"x_min":149,"x_max":1096,"o":"m 176 0 q 149 21 149 0 q 151 34 149 26 l 364 827 l 300 827 q 284 840 284 827 q 285 848 284 845 l 290 868 q 316 888 296 888 l 380 888 l 408 990 q 451 1024 416 1024 l 519 1024 q 545 1003 545 1024 q 543 990 545 998 l 516 888 l 881 888 l 908 990 q 951 1024 917 1024 l 1019 1024 q 1046 1003 1046 1024 q 1044 990 1046 998 l 1017 888 l 1080 888 q 1096 876 1096 888 q 1095 868 1096 871 l 1090 848 q 1064 827 1084 827 l 1000 827 l 787 34 q 745 0 779 0 l 677 0 q 650 21 650 0 q 652 34 650 26 l 751 407 l 387 407 l 287 34 q 244 0 278 0 l 176 0 m 865 827 l 500 827 l 404 468 l 768 468 l 865 827 z "},"ħ":{"ha":821,"x_min":136,"x_max":836,"o":"m 163 0 q 136 21 136 0 q 138 34 136 26 l 351 827 l 300 827 q 284 840 284 827 q 285 848 284 845 l 290 868 q 316 888 296 888 l 367 888 l 394 990 q 437 1024 403 1024 l 492 1024 q 518 1003 518 1024 q 516 990 518 998 l 489 888 l 679 888 q 694 876 694 888 q 694 868 694 871 l 688 848 q 663 827 683 827 l 473 827 l 416 616 q 495 701 448 665 q 665 760 571 760 q 820 669 777 760 q 836 587 836 634 q 821 481 836 540 l 701 34 q 659 0 692 0 l 604 0 q 577 21 577 0 q 579 34 577 26 l 699 481 q 712 569 712 532 q 708 605 712 589 q 592 684 687 684 q 437 604 503 684 q 380 481 400 557 l 260 34 q 217 0 251 0 l 163 0 z "},"Ĩ":{"ha":420,"x_min":149,"x_max":730,"o":"m 176 0 q 149 21 149 0 q 151 34 149 26 l 408 990 q 451 1024 416 1024 l 519 1024 q 545 1003 545 1024 q 543 990 545 998 l 287 34 q 244 0 278 0 l 176 0 m 473 1262 q 526 1245 505 1262 l 597 1190 q 627 1177 612 1177 q 720 1249 671 1177 l 730 1249 q 581 1099 680 1099 q 528 1116 549 1099 l 457 1171 q 427 1183 441 1183 q 332 1112 382 1183 l 322 1112 q 473 1262 373 1262 z "},"ĩ":{"ha":380,"x_min":136,"x_max":634,"o":"m 163 0 q 136 21 136 0 q 138 34 136 26 l 320 712 q 363 746 329 746 l 417 746 q 444 725 444 746 q 442 712 444 720 l 260 34 q 217 0 251 0 l 163 0 m 376 977 q 429 960 408 977 l 500 905 q 531 892 515 892 q 624 964 574 892 l 634 964 q 484 814 584 814 q 431 831 452 814 l 360 886 q 330 899 345 899 q 236 827 286 899 l 226 827 q 376 977 276 977 z "},"Ī":{"ha":420,"x_min":149,"x_max":719,"o":"m 176 0 q 149 21 149 0 q 151 34 149 26 l 408 990 q 451 1024 416 1024 l 519 1024 q 545 1003 545 1024 q 543 990 545 998 l 287 34 q 244 0 278 0 l 176 0 m 379 1225 l 698 1225 q 719 1208 719 1225 q 718 1198 719 1203 l 709 1164 q 674 1137 702 1137 l 355 1137 q 334 1153 334 1137 q 336 1164 334 1158 l 345 1198 q 379 1225 351 1225 z "},"ī":{"ha":380,"x_min":136,"x_max":621,"o":"m 163 0 q 136 21 136 0 q 138 34 136 26 l 320 712 q 363 746 329 746 l 417 746 q 444 725 444 746 q 442 712 444 720 l 260 34 q 217 0 251 0 l 163 0 m 281 933 l 600 933 q 621 916 621 933 q 619 906 621 911 l 610 872 q 576 845 604 845 l 257 845 q 236 861 236 845 q 237 872 236 867 l 246 906 q 281 933 253 933 z "},"Ĭ":{"ha":420,"x_min":149,"x_max":727,"o":"m 176 0 q 149 21 149 0 q 151 34 149 26 l 408 990 q 451 1024 416 1024 l 519 1024 q 545 1003 545 1024 q 543 990 545 998 l 287 34 q 244 0 278 0 l 176 0 m 374 1270 l 391 1270 q 429 1253 422 1270 q 528 1180 458 1180 q 663 1253 595 1180 q 711 1270 680 1270 l 727 1270 q 503 1092 628 1092 q 374 1270 378 1092 z "},"ĭ":{"ha":380,"x_min":136,"x_max":630,"o":"m 163 0 q 136 21 136 0 q 138 34 136 26 l 320 712 q 363 746 329 746 l 417 746 q 444 725 444 746 q 442 712 444 720 l 260 34 q 217 0 251 0 l 163 0 m 277 985 l 294 985 q 332 968 325 985 q 431 895 361 895 q 566 968 499 895 q 614 985 583 985 l 630 985 q 406 807 531 807 q 277 985 281 807 z "},"Į":{"ha":420,"x_min":85,"x_max":545,"o":"m 176 0 q 149 21 149 0 q 151 34 149 26 l 408 990 q 451 1024 416 1024 l 519 1024 q 545 1003 545 1024 q 543 990 545 998 l 287 34 q 244 0 278 0 q 184 -96 195 -55 q 180 -123 180 -111 q 191 -155 180 -142 q 253 -175 208 -175 q 279 -196 279 -175 q 277 -209 279 -202 l 264 -258 q 222 -292 256 -292 q 105 -240 143 -292 q 85 -179 85 -214 q 91 -140 85 -161 q 199 0 112 -62 l 176 0 z "},"į":{"ha":380,"x_min":58,"x_max":513,"o":"m 163 0 q 136 21 136 0 q 138 34 136 26 l 320 712 q 363 746 329 746 l 417 746 q 444 725 444 746 q 442 712 444 720 l 260 34 q 217 0 251 0 q 157 -96 168 -55 q 153 -123 153 -111 q 163 -155 153 -142 q 226 -175 180 -175 q 252 -196 252 -175 q 250 -209 252 -202 l 237 -258 q 195 -292 229 -292 q 78 -240 116 -292 q 58 -179 58 -214 q 64 -140 58 -161 q 172 0 85 -62 l 163 0 m 363 953 q 376 966 363 953 q 426 979 389 979 q 488 953 463 979 q 513 890 513 927 q 488 826 513 852 q 426 800 463 800 q 363 826 389 800 q 338 890 338 852 q 363 953 338 927 z "},"İ":{"ha":420,"x_min":149,"x_max":612,"o":"m 176 0 q 149 21 149 0 q 151 34 149 26 l 408 990 q 451 1024 416 1024 l 519 1024 q 545 1003 545 1024 q 543 990 545 998 l 287 34 q 244 0 278 0 l 176 0 m 463 1238 q 475 1251 463 1238 q 525 1264 488 1264 q 587 1238 562 1264 q 612 1175 612 1212 q 587 1111 612 1137 q 525 1085 562 1085 q 463 1111 488 1085 q 437 1175 437 1137 q 463 1238 437 1212 z "},"ı":{"ha":380,"x_min":136,"x_max":444,"o":"m 163 0 q 136 21 136 0 q 138 34 136 26 l 320 712 q 363 746 329 746 l 417 746 q 444 725 444 746 q 442 712 444 720 l 260 34 q 217 0 251 0 l 163 0 z "},"Ĳ":{"ha":1059,"x_min":149,"x_max":1184,"o":"m 575 -14 q 410 60 467 -14 q 379 153 379 99 q 387 203 379 179 q 414 250 396 231 q 479 278 441 278 q 542 252 516 278 q 567 189 567 226 q 541 125 567 151 q 479 99 515 99 q 440 109 458 99 q 572 37 478 37 q 769 136 689 37 q 881 373 842 227 l 1046 990 q 1090 1024 1055 1024 l 1158 1024 q 1184 1003 1184 1024 q 1182 990 1184 998 l 1017 373 q 829 79 964 179 q 575 -14 705 -14 m 176 0 q 149 21 149 0 q 151 34 149 26 l 408 990 q 451 1024 416 1024 l 519 1024 q 545 1003 545 1024 q 543 990 545 998 l 287 34 q 244 0 278 0 l 176 0 z "},"ĳ":{"ha":732,"x_min":136,"x_max":866,"o":"m 716 953 q 729 966 716 953 q 779 979 742 979 q 841 953 815 979 q 866 890 866 927 q 841 826 866 852 q 779 800 815 800 q 716 826 742 800 q 690 890 690 852 q 716 953 690 927 m 275 -292 q 277 -281 275 -292 q 481 0 427 -205 l 673 712 q 715 746 682 746 l 770 746 q 797 725 797 746 q 795 712 797 720 l 604 0 q 275 -292 541 -235 m 363 953 q 376 966 363 953 q 426 979 389 979 q 488 953 463 979 q 513 890 513 927 q 488 826 513 852 q 426 800 463 800 q 363 826 389 800 q 338 890 338 852 q 363 953 338 927 m 163 0 q 136 21 136 0 q 138 34 136 26 l 320 712 q 363 746 329 746 l 417 746 q 444 725 444 746 q 442 712 444 720 l 260 34 q 217 0 251 0 l 163 0 z "},"Ĵ":{"ha":734,"x_min":54,"x_max":977,"o":"m 250 -14 q 85 60 142 -14 q 54 153 54 99 q 62 203 54 179 q 90 250 71 231 q 155 278 117 278 q 217 252 191 278 q 242 189 242 226 q 216 125 242 151 q 154 99 191 99 q 115 109 134 99 q 247 37 153 37 q 444 136 364 37 q 556 373 517 227 l 722 990 q 765 1024 730 1024 l 833 1024 q 859 1003 859 1024 q 857 990 859 998 l 692 373 q 505 79 640 179 q 250 -14 380 -14 m 835 1276 l 869 1276 q 905 1249 893 1276 l 977 1085 l 922 1085 q 880 1112 890 1085 l 840 1212 l 747 1112 q 690 1085 722 1085 l 625 1085 l 785 1249 q 835 1276 812 1276 z "},"ĵ":{"ha":380,"x_min":-78,"x_max":581,"o":"m -78 -292 l -75 -281 q 129 0 74 -205 l 320 712 q 363 746 329 746 l 417 746 q 444 725 444 746 q 442 712 444 720 l 251 0 q -78 -292 188 -235 m 438 991 l 472 991 q 508 964 496 991 l 581 800 l 525 800 q 483 827 494 800 l 443 927 l 350 827 q 293 800 325 800 l 228 800 l 389 964 q 438 991 415 991 z "},"Ķ":{"ha":918,"x_min":149,"x_max":1018,"o":"m 176 0 q 149 21 149 0 q 151 34 149 26 l 408 990 q 451 1024 416 1024 l 519 1024 q 545 1003 545 1024 q 543 990 545 998 l 384 395 q 917 860 755 574 q 868 884 888 864 q 842 948 842 911 q 868 1011 842 985 q 930 1038 894 1038 q 992 1011 967 1038 q 1018 948 1018 985 q 1013 913 1018 932 q 979 844 1004 886 q 549 420 811 570 q 756 277 697 409 l 865 34 q 869 20 869 26 q 840 0 869 0 l 759 0 q 711 34 726 0 l 625 231 q 485 368 566 368 q 327 183 376 368 l 287 34 q 244 0 278 0 l 176 0 m 412 -54 q 458 -73 441 -54 q 473 -117 473 -91 q 431 -174 473 -155 l 214 -274 l 206 -262 l 349 -85 q 412 -54 373 -54 z "},"ķ":{"ha":745,"x_min":136,"x_max":869,"o":"m 163 0 q 136 21 136 0 q 138 34 136 26 l 394 990 q 437 1024 403 1024 l 492 1024 q 518 1003 518 1024 q 516 990 518 998 l 318 250 q 703 729 490 559 q 780 760 741 760 q 844 733 819 760 q 869 670 869 707 q 843 607 869 633 q 781 581 818 581 q 719 606 745 581 q 695 652 700 626 q 472 392 570 547 q 701 234 701 391 q 686 136 701 191 l 659 34 q 616 0 650 0 l 562 0 q 535 21 535 0 q 537 34 535 26 l 571 163 q 582 233 582 204 q 441 344 582 331 q 260 34 333 180 q 217 0 243 0 l 163 0 m 359 -54 q 405 -73 389 -54 q 420 -117 420 -91 q 378 -174 420 -155 l 161 -274 l 153 -262 l 296 -85 q 359 -54 320 -54 z "},"ĸ":{"ha":745,"x_min":136,"x_max":869,"o":"m 163 0 q 136 21 136 0 q 138 34 136 26 l 320 712 q 363 746 329 746 l 418 746 q 444 725 444 746 q 442 712 444 720 l 318 250 q 703 729 490 559 q 780 760 741 760 q 844 733 819 760 q 869 670 869 707 q 843 607 869 633 q 781 581 818 581 q 719 606 745 581 q 695 652 700 626 q 472 392 570 547 q 701 234 701 391 q 686 136 701 191 l 659 34 q 616 0 650 0 l 562 0 q 535 21 535 0 q 537 34 535 26 l 571 163 q 582 233 582 204 q 441 344 582 331 q 260 34 333 180 q 217 0 243 0 l 163 0 z "},"Ĺ":{"ha":792,"x_min":140,"x_max":828,"o":"m 143 -14 l 140 -7 l 408 990 q 451 1024 416 1024 l 519 1024 q 545 1003 545 1024 q 543 990 545 998 l 299 79 q 361 82 329 82 q 488 58 426 82 q 600 37 541 37 q 726 86 681 37 q 678 111 699 90 q 652 174 652 137 q 678 238 652 212 q 741 264 704 264 q 803 238 777 264 q 828 174 828 212 q 823 141 828 160 q 741 28 806 71 q 593 -14 680 -14 q 445 10 538 -14 q 336 24 391 24 q 235 12 283 24 q 143 -14 188 0 m 656 1291 q 703 1272 686 1291 q 718 1228 718 1255 q 676 1171 718 1190 l 458 1072 l 451 1084 l 593 1261 q 656 1291 618 1291 z "},"ĺ":{"ha":380,"x_min":136,"x_max":673,"o":"m 163 0 q 136 21 136 0 q 138 34 136 26 l 394 990 q 437 1024 403 1024 l 492 1024 q 518 1003 518 1024 q 516 990 518 998 l 260 34 q 217 0 251 0 l 163 0 m 612 1291 q 658 1272 642 1291 q 673 1228 673 1255 q 631 1171 673 1190 l 414 1072 l 406 1084 l 549 1261 q 612 1291 573 1291 z "},"Ļ":{"ha":792,"x_min":140,"x_max":828,"o":"m 143 -14 l 140 -7 l 408 990 q 451 1024 416 1024 l 519 1024 q 545 1003 545 1024 q 543 990 545 998 l 299 79 q 361 82 329 82 q 488 58 426 82 q 600 37 541 37 q 726 86 681 37 q 678 111 699 90 q 652 174 652 137 q 678 238 652 212 q 741 264 704 264 q 803 238 777 264 q 828 174 828 212 q 823 141 828 160 q 741 28 806 71 q 593 -14 680 -14 q 445 10 538 -14 q 336 24 391 24 q 235 12 283 24 q 143 -14 188 0 m 420 -54 q 466 -73 450 -54 q 481 -117 481 -91 q 439 -174 481 -155 l 222 -274 l 214 -262 l 357 -85 q 420 -54 381 -54 z "},"ļ":{"ha":380,"x_min":-28,"x_max":518,"o":"m 163 0 q 136 21 136 0 q 138 34 136 26 l 394 990 q 437 1024 403 1024 l 492 1024 q 518 1003 518 1024 q 516 990 518 998 l 260 34 q 217 0 251 0 l 163 0 m 177 -54 q 223 -73 207 -54 q 238 -117 238 -91 q 197 -174 238 -155 l -21 -274 l -28 -262 l 114 -85 q 177 -54 138 -54 z "},"Ľ":{"ha":792,"x_min":140,"x_max":828,"o":"m 143 -14 l 140 -7 l 408 990 q 451 1024 416 1024 l 519 1024 q 545 1003 545 1024 q 543 990 545 998 l 299 79 q 361 82 329 82 q 488 58 426 82 q 600 37 541 37 q 726 86 681 37 q 678 111 699 90 q 652 174 652 137 q 678 238 652 212 q 741 264 704 264 q 803 238 777 264 q 828 174 828 212 q 823 141 828 160 q 741 28 806 71 q 593 -14 680 -14 q 445 10 538 -14 q 336 24 391 24 q 235 12 283 24 q 143 -14 188 0 m 692 1044 q 704 1042 697 1044 l 755 1021 q 769 1004 769 1016 q 768 999 769 1001 q 760 983 766 992 l 630 804 q 600 785 616 785 q 589 788 595 785 l 565 799 q 551 817 551 806 q 551 822 551 820 q 556 833 553 828 l 665 1024 q 692 1044 677 1044 z "},"ľ":{"ha":458,"x_min":136,"x_max":727,"o":"m 163 0 q 136 21 136 0 q 138 34 136 26 l 394 990 q 437 1024 403 1024 l 492 1024 q 518 1003 518 1024 q 516 990 518 998 l 260 34 q 217 0 251 0 l 163 0 m 650 1044 q 662 1042 655 1044 l 713 1021 q 727 1004 727 1016 q 726 999 727 1001 q 718 983 724 992 l 588 804 q 558 785 574 785 q 547 788 553 785 l 523 799 q 509 817 509 806 q 509 822 509 820 q 514 833 511 828 l 623 1024 q 650 1044 635 1044 z "},"Ŀ":{"ha":792,"x_min":140,"x_max":828,"o":"m 143 -14 l 140 -7 l 408 990 q 451 1024 416 1024 l 519 1024 q 545 1003 545 1024 q 543 990 545 998 l 299 79 q 361 82 329 82 q 488 58 426 82 q 600 37 541 37 q 726 86 681 37 q 678 111 699 90 q 652 174 652 137 q 678 238 652 212 q 741 264 704 264 q 803 238 777 264 q 828 174 828 212 q 823 141 828 160 q 741 28 806 71 q 593 -14 680 -14 q 445 10 538 -14 q 336 24 391 24 q 235 12 283 24 q 143 -14 188 0 m 541 577 q 553 590 541 577 q 603 603 566 603 q 665 577 640 603 q 690 513 690 551 q 665 450 690 476 q 603 424 640 424 q 541 450 566 424 q 515 513 515 476 q 541 577 515 551 z "},"ŀ":{"ha":473,"x_min":136,"x_max":610,"o":"m 163 0 q 136 21 136 0 q 138 34 136 26 l 394 990 q 437 1024 403 1024 l 492 1024 q 518 1003 518 1024 q 516 990 518 998 l 260 34 q 217 0 251 0 l 163 0 m 460 577 q 473 590 460 577 q 523 603 486 603 q 585 577 559 603 q 610 513 610 551 q 585 450 610 476 q 523 424 559 424 q 460 450 486 424 q 435 513 435 476 q 460 577 435 551 z "},"Ł":{"ha":792,"x_min":124,"x_max":828,"o":"m 143 -14 l 140 -7 l 225 310 l 157 275 q 144 272 150 272 q 131 283 134 272 l 125 300 q 124 308 124 305 q 125 313 124 311 q 140 328 127 322 l 244 380 l 408 990 q 451 1024 416 1024 l 519 1024 q 545 1003 545 1024 q 543 990 545 998 l 401 458 l 651 584 q 664 587 658 587 q 677 576 673 587 l 682 559 q 683 554 683 557 q 682 547 683 551 q 667 531 677 536 l 382 388 l 299 79 q 361 82 329 82 q 488 58 426 82 q 600 37 541 37 q 726 86 681 37 q 678 111 699 90 q 652 174 652 137 q 678 238 652 212 q 741 264 704 264 q 803 238 777 264 q 828 174 828 212 q 823 141 828 160 q 741 28 806 71 q 593 -14 680 -14 q 445 10 538 -14 q 336 24 391 24 q 235 12 283 24 q 143 -14 188 0 z "},"ł":{"ha":433,"x_min":105,"x_max":563,"o":"m 191 0 q 163 21 163 0 q 165 34 163 26 l 254 366 l 138 308 q 124 304 130 304 q 112 315 115 304 l 106 333 q 105 340 105 338 q 106 345 105 342 q 121 361 109 355 l 273 437 l 422 990 q 465 1024 431 1024 l 519 1024 q 546 1003 546 1024 q 544 990 546 998 l 414 508 l 531 566 q 543 570 538 570 q 557 559 553 570 l 562 541 q 563 536 563 539 q 562 528 563 532 q 547 513 557 518 l 395 437 l 288 34 q 245 0 279 0 l 191 0 z "},"Ń":{"ha":1000,"x_min":167,"x_max":1115,"o":"m 180 0 q 167 12 167 0 q 168 17 167 14 l 398 878 l 345 990 q 342 1004 342 998 q 370 1024 342 1024 l 448 1024 q 495 990 479 1024 l 845 257 l 1046 1007 q 1067 1024 1051 1024 l 1101 1024 q 1115 1013 1115 1024 q 1114 1007 1115 1010 l 837 -27 l 827 -27 l 441 787 l 235 17 q 214 0 231 0 l 180 0 m 968 1291 q 1015 1272 998 1291 q 1029 1228 1029 1255 q 988 1171 1029 1190 l 770 1072 l 763 1084 l 905 1261 q 968 1291 930 1291 z "},"ń":{"ha":821,"x_min":136,"x_max":841,"o":"m 163 0 q 136 21 136 0 q 138 34 136 26 l 320 712 q 363 746 329 746 l 417 746 q 444 725 444 746 q 442 712 444 720 q 416 616 442 712 q 495 701 448 665 q 665 760 571 760 q 820 669 777 760 q 836 587 836 634 q 821 481 836 540 l 701 34 q 659 0 692 0 l 604 0 q 577 21 577 0 q 579 34 577 26 l 699 481 q 712 570 712 532 q 708 605 712 590 q 591 684 686 684 q 437 604 503 684 q 380 481 400 557 l 260 34 q 217 0 251 0 l 163 0 m 780 1006 q 826 987 810 1006 q 841 943 841 970 q 800 886 841 905 l 582 787 l 574 799 l 717 976 q 780 1006 741 1006 z "},"Ņ":{"ha":1000,"x_min":167,"x_max":1115,"o":"m 180 0 q 167 12 167 0 q 168 17 167 14 l 398 878 l 345 990 q 342 1004 342 998 q 370 1024 342 1024 l 448 1024 q 495 990 479 1024 l 845 257 l 1046 1007 q 1067 1024 1051 1024 l 1101 1024 q 1115 1013 1115 1024 q 1114 1007 1115 1010 l 837 -27 l 827 -27 l 441 787 l 235 17 q 214 0 231 0 l 180 0 m 448 -54 q 494 -73 478 -54 q 509 -117 509 -91 q 468 -174 509 -155 l 250 -274 l 243 -262 l 385 -85 q 448 -54 410 -54 z "},"ņ":{"ha":821,"x_min":136,"x_max":836,"o":"m 163 0 q 136 21 136 0 q 138 34 136 26 l 320 712 q 363 746 329 746 l 417 746 q 444 725 444 746 q 442 712 444 720 q 416 616 442 712 q 495 701 448 665 q 665 760 571 760 q 820 669 777 760 q 836 587 836 634 q 821 481 836 540 l 701 34 q 659 0 692 0 l 604 0 q 577 21 577 0 q 579 34 577 26 l 699 481 q 712 570 712 532 q 708 605 712 590 q 591 684 686 684 q 437 604 503 684 q 380 481 400 557 l 260 34 q 217 0 251 0 l 163 0 m 405 -54 q 451 -73 435 -54 q 466 -117 466 -91 q 425 -174 466 -155 l 207 -274 l 199 -262 l 342 -85 q 405 -54 366 -54 z "},"Ň":{"ha":1000,"x_min":167,"x_max":1115,"o":"m 180 0 q 167 12 167 0 q 168 17 167 14 l 398 878 l 345 990 q 342 1004 342 998 q 370 1024 342 1024 l 448 1024 q 495 990 479 1024 l 845 257 l 1046 1007 q 1067 1024 1051 1024 l 1101 1024 q 1115 1013 1115 1024 q 1114 1007 1115 1010 l 837 -27 l 827 -27 l 441 787 l 235 17 q 214 0 231 0 l 180 0 m 699 1276 l 755 1276 q 798 1249 787 1276 l 837 1149 l 930 1249 q 987 1276 956 1276 l 1052 1276 l 892 1112 q 842 1085 866 1085 l 808 1085 q 772 1112 785 1085 l 699 1276 z "},"ň":{"ha":821,"x_min":136,"x_max":871,"o":"m 163 0 q 136 21 136 0 q 138 34 136 26 l 320 712 q 363 746 329 746 l 417 746 q 444 725 444 746 q 442 712 444 720 q 416 616 442 712 q 495 701 448 665 q 665 760 571 760 q 820 669 777 760 q 836 587 836 634 q 821 481 836 540 l 701 34 q 659 0 692 0 l 604 0 q 577 21 577 0 q 579 34 577 26 l 699 481 q 712 570 712 532 q 708 605 712 590 q 591 684 686 684 q 437 604 503 684 q 380 481 400 557 l 260 34 q 217 0 251 0 l 163 0 m 519 991 l 574 991 q 617 964 606 991 l 656 864 l 750 964 q 806 991 776 991 l 871 991 l 711 827 q 661 800 686 800 l 627 800 q 592 827 604 800 l 519 991 z "},"ŉ":{"ha":821,"x_min":136,"x_max":836,"o":"m 163 0 q 136 21 136 0 q 138 34 136 26 l 320 712 q 363 746 329 746 l 417 746 q 444 725 444 746 q 442 712 444 720 q 416 616 442 712 q 495 701 448 665 q 665 760 571 760 q 820 669 777 760 q 836 587 836 634 q 821 481 836 540 l 701 34 q 659 0 692 0 l 604 0 q 577 21 577 0 q 579 34 577 26 l 699 481 q 712 570 712 532 q 708 605 712 590 q 591 684 686 684 q 437 604 503 684 q 380 481 400 557 l 260 34 q 217 0 251 0 l 163 0 m 375 1044 q 387 1042 380 1044 l 437 1021 q 452 1004 452 1016 q 451 999 452 1001 q 442 983 449 992 l 313 804 q 283 785 299 785 q 271 788 277 785 l 248 799 q 233 817 233 806 q 234 822 233 820 q 239 833 236 828 l 348 1024 q 375 1044 359 1044 z "},"Ŋ":{"ha":963,"x_min":150,"x_max":1027,"o":"m 176 0 q 150 21 150 0 q 152 34 150 26 l 408 990 q 450 1024 416 1024 l 518 1024 q 545 1003 545 1024 q 543 990 545 998 q 511 878 543 990 q 570 945 531 910 q 800 1038 671 1038 q 1013 911 961 1038 q 1027 831 1027 879 q 1002 678 1027 769 l 821 0 q 478 -292 758 -235 l 481 -281 q 685 0 631 -203 l 867 680 q 890 817 890 763 q 886 854 890 837 q 739 957 866 957 q 534 844 616 957 q 460 678 487 779 l 288 34 q 244 0 279 0 l 176 0 z "},"ŋ":{"ha":821,"x_min":136,"x_max":836,"o":"m 163 0 q 136 21 136 0 q 138 34 136 26 l 320 712 q 363 746 329 746 l 417 746 q 444 725 444 746 q 442 712 444 720 l 416 616 q 495 701 448 665 q 665 760 571 760 q 820 669 777 760 q 836 587 836 634 q 821 481 836 540 l 692 0 q 363 -292 629 -235 l 366 -281 q 570 0 515 -203 l 699 481 q 712 570 712 532 q 708 605 712 590 q 591 684 686 684 q 437 604 503 684 q 380 481 400 557 l 260 34 q 217 0 251 0 l 163 0 z "},"Ō":{"ha":926,"x_min":176,"x_max":1024,"o":"m 473 37 q 660 125 576 37 q 846 512 776 248 q 887 772 887 668 q 865 899 887 849 q 728 987 825 987 q 545 898 634 987 q 355 512 425 779 q 314 252 314 357 q 336 125 314 176 q 473 37 374 37 m 460 -14 q 241 91 317 -14 q 176 313 176 180 q 205 512 176 402 q 467 933 277 781 q 741 1038 596 1038 q 960 933 886 1038 q 1024 710 1024 842 q 995 512 1024 621 q 736 94 922 239 q 460 -14 597 -14 m 629 1225 l 947 1225 q 968 1208 968 1225 q 967 1198 968 1203 l 958 1164 q 924 1137 951 1137 l 605 1137 q 584 1153 584 1137 q 585 1164 584 1158 l 594 1198 q 629 1225 601 1225 z "},"ō":{"ha":765,"x_min":142,"x_max":823,"o":"m 391 31 q 564 134 487 31 q 669 373 627 220 q 698 555 698 480 q 692 612 698 587 q 574 715 671 715 q 403 612 479 715 q 296 373 337 523 q 269 195 269 270 q 274 134 269 162 q 391 31 295 31 m 379 -14 q 191 79 253 -14 q 142 246 142 150 q 161 373 142 305 q 349 667 210 554 q 589 760 461 760 q 774 667 711 760 q 823 502 823 597 q 804 373 823 442 q 616 79 755 192 q 379 -14 504 -14 m 479 933 l 798 933 q 819 916 819 933 q 817 906 819 911 l 808 872 q 774 845 802 845 l 455 845 q 434 861 434 845 q 435 872 434 867 l 444 906 q 479 933 451 933 z "},"Ŏ":{"ha":926,"x_min":176,"x_max":1024,"o":"m 473 37 q 660 125 576 37 q 846 512 776 248 q 887 772 887 668 q 865 899 887 849 q 728 987 825 987 q 545 898 634 987 q 355 512 425 779 q 314 252 314 357 q 336 125 314 176 q 473 37 374 37 m 460 -14 q 241 91 317 -14 q 176 313 176 180 q 205 512 176 402 q 467 933 277 781 q 741 1038 596 1038 q 960 933 886 1038 q 1024 710 1024 842 q 995 512 1024 621 q 736 94 922 239 q 460 -14 597 -14 m 629 1270 l 645 1270 q 683 1253 676 1270 q 782 1180 713 1180 q 918 1253 850 1180 q 965 1270 935 1270 l 981 1270 q 758 1092 882 1092 q 629 1270 633 1092 z "},"ŏ":{"ha":765,"x_min":142,"x_max":827,"o":"m 391 31 q 564 134 487 31 q 669 373 627 220 q 698 555 698 480 q 692 612 698 587 q 574 715 671 715 q 403 612 479 715 q 296 373 337 523 q 269 195 269 270 q 274 134 269 162 q 391 31 295 31 m 379 -14 q 191 79 253 -14 q 142 246 142 150 q 161 373 142 305 q 349 667 210 554 q 589 760 461 760 q 774 667 711 760 q 823 502 823 597 q 804 373 823 442 q 616 79 755 192 q 379 -14 504 -14 m 475 985 l 491 985 q 529 968 522 985 q 629 895 559 895 q 764 968 696 895 q 811 985 781 985 l 827 985 q 604 807 728 807 q 475 985 479 807 z "},"Ő":{"ha":926,"x_min":176,"x_max":1051,"o":"m 473 37 q 660 125 576 37 q 846 512 776 248 q 887 772 887 668 q 865 899 887 849 q 728 987 825 987 q 545 898 634 987 q 355 512 425 779 q 314 252 314 357 q 336 125 314 176 q 473 37 374 37 m 460 -14 q 241 91 317 -14 q 176 313 176 180 q 205 512 176 402 q 467 933 277 781 q 741 1038 596 1038 q 960 933 886 1038 q 1024 710 1024 842 q 995 512 1024 621 q 736 94 922 239 q 460 -14 597 -14 m 987 1291 q 1036 1274 1020 1291 q 1051 1232 1051 1257 q 1010 1173 1051 1197 l 830 1072 l 823 1084 l 932 1257 q 987 1291 954 1291 m 781 1291 q 830 1274 814 1291 q 845 1232 845 1257 q 804 1173 845 1197 l 624 1072 l 616 1084 l 726 1257 q 781 1291 748 1291 z "},"ő":{"ha":765,"x_min":142,"x_max":878,"o":"m 391 31 q 564 134 487 31 q 669 373 627 220 q 698 555 698 480 q 692 612 698 587 q 574 715 671 715 q 403 612 479 715 q 296 373 337 523 q 269 195 269 270 q 274 134 269 162 q 391 31 295 31 m 379 -14 q 191 79 253 -14 q 142 246 142 150 q 161 373 142 305 q 349 667 210 554 q 589 760 461 760 q 774 667 711 760 q 823 502 823 597 q 804 373 823 442 q 616 79 755 192 q 379 -14 504 -14 m 814 1006 q 863 989 846 1006 q 878 947 878 972 q 836 888 878 912 l 656 787 l 649 799 l 759 972 q 814 1006 781 1006 m 608 1006 q 656 989 640 1006 q 671 947 671 972 q 630 888 671 912 l 450 787 l 443 799 l 553 972 q 608 1006 574 1006 z "},"Œ":{"ha":1305,"x_min":176,"x_max":1411,"o":"m 460 -14 q 241 91 317 -14 q 176 312 176 179 q 205 512 176 401 q 467 933 277 781 q 741 1038 596 1038 q 960 933 890 1038 q 965 925 963 929 q 1033 981 994 956 q 1225 1038 1120 1038 q 1384 959 1333 1038 q 1411 871 1411 917 q 1404 821 1411 845 q 1376 774 1394 793 q 1311 746 1349 746 q 1249 772 1274 746 q 1223 836 1223 798 q 1249 899 1223 873 q 1312 925 1275 925 q 1350 915 1332 925 q 1232 994 1320 994 q 1098 933 1153 994 q 1036 817 1055 886 q 1025 742 1025 775 q 1042 675 1025 702 q 1159 591 1076 619 l 1156 581 q 1001 533 1070 570 q 995 512 998 523 q 818 170 939 304 q 835 123 823 144 q 989 37 881 37 q 1187 114 1097 37 q 1313 269 1255 172 l 1323 269 l 1290 143 q 1221 79 1257 108 q 970 -14 1105 -14 q 730 71 805 -14 q 720 82 725 77 q 460 -14 590 -14 m 473 37 q 660 125 576 37 q 846 512 774 247 q 885 768 885 664 q 863 898 885 846 q 729 987 823 987 q 545 898 634 987 q 355 512 427 780 q 314 257 314 361 q 338 126 314 177 q 473 37 380 37 z "},"œ":{"ha":1156,"x_min":142,"x_max":1234,"o":"m 391 31 q 564 134 487 31 q 669 373 628 220 q 697 554 697 479 q 692 612 697 586 q 574 715 671 715 q 403 612 479 715 q 297 373 338 523 q 269 196 269 270 q 275 134 269 162 q 391 31 296 31 m 379 -14 q 191 79 253 -14 q 142 246 142 150 q 161 373 142 305 q 349 667 210 554 q 589 760 461 760 q 770 675 706 760 q 1002 760 878 760 q 1196 671 1133 760 q 1234 552 1234 617 q 1225 484 1234 519 q 1078 342 1196 377 l 753 244 q 688 149 726 193 q 692 136 690 142 q 849 37 724 37 q 1030 114 947 37 q 1071 155 1051 133 l 1081 155 l 1061 79 q 804 -14 948 -14 q 608 71 674 -14 q 379 -14 499 -14 m 807 600 q 822 501 822 555 q 804 373 822 442 q 785 313 795 342 l 981 373 q 1092 475 1072 400 q 1105 565 1105 524 q 1100 612 1105 590 q 987 715 1079 715 q 816 612 892 715 q 807 600 811 606 z "},"Ŕ":{"ha":962,"x_min":183,"x_max":1047,"o":"m 210 0 q 183 21 183 0 q 185 34 183 26 l 385 780 q 429 814 394 814 l 496 814 q 523 793 523 814 q 521 780 523 787 l 431 446 q 568 358 460 358 q 754 435 675 358 q 880 674 838 517 q 896 784 896 734 q 876 883 896 840 q 680 977 831 977 q 194 710 438 977 l 184 714 q 733 1038 403 1038 q 995 934 913 1038 q 1047 777 1047 867 q 1033 675 1047 730 q 895 442 997 538 q 667 318 787 342 q 793 191 743 298 l 865 34 q 869 20 869 26 q 840 0 869 0 l 759 0 q 711 34 728 0 l 646 174 q 515 319 587 299 q 412 373 437 340 l 321 34 q 278 0 312 0 l 210 0 m 945 1291 q 991 1272 975 1291 q 1006 1228 1006 1255 q 964 1171 1006 1190 l 747 1072 l 739 1084 l 882 1261 q 945 1291 906 1291 z "},"ŕ":{"ha":634,"x_min":136,"x_max":812,"o":"m 163 0 q 136 21 136 0 q 138 34 136 26 l 320 712 q 363 746 329 746 l 417 746 q 444 725 444 746 q 442 712 444 720 q 595 760 507 760 q 749 687 698 760 q 780 593 780 643 q 772 543 780 564 q 744 495 763 515 q 678 468 718 468 q 616 494 642 468 q 591 557 591 520 q 616 621 591 595 q 679 647 642 647 q 718 637 699 647 q 603 712 686 712 q 471 658 531 712 q 382 490 413 606 l 260 34 q 217 0 251 0 l 163 0 m 751 1006 q 797 987 781 1006 q 812 943 812 970 q 770 886 812 905 l 553 787 l 545 799 l 688 976 q 751 1006 712 1006 z "},"Ŗ":{"ha":962,"x_min":183,"x_max":1047,"o":"m 210 0 q 183 21 183 0 q 185 34 183 26 l 385 780 q 429 814 394 814 l 496 814 q 523 793 523 814 q 521 780 523 787 l 431 446 q 568 358 460 358 q 754 435 675 358 q 880 674 838 517 q 896 784 896 734 q 876 883 896 840 q 680 977 831 977 q 194 710 438 977 l 184 714 q 733 1038 403 1038 q 995 934 913 1038 q 1047 777 1047 867 q 1033 675 1047 730 q 895 442 997 538 q 667 318 787 342 q 793 191 743 298 l 865 34 q 869 20 869 26 q 840 0 869 0 l 759 0 q 711 34 728 0 l 646 174 q 515 319 587 299 q 412 373 437 340 l 321 34 q 278 0 312 0 l 210 0 m 436 -54 q 482 -73 466 -54 q 497 -117 497 -91 q 456 -174 497 -155 l 238 -274 l 231 -262 l 373 -85 q 436 -54 397 -54 z "},"ŗ":{"ha":634,"x_min":-33,"x_max":780,"o":"m 163 0 q 136 21 136 0 q 138 34 136 26 l 320 712 q 363 746 329 746 l 417 746 q 444 725 444 746 q 442 712 444 720 q 595 760 507 760 q 749 687 698 760 q 780 593 780 643 q 772 543 780 564 q 744 495 763 515 q 678 468 718 468 q 616 494 642 468 q 591 557 591 520 q 616 621 591 595 q 679 647 642 647 q 718 637 699 647 q 603 712 686 712 q 471 658 531 712 q 382 490 413 606 l 260 34 q 217 0 251 0 l 163 0 m 173 -54 q 219 -73 203 -54 q 234 -117 234 -91 q 193 -174 234 -155 l -25 -274 l -33 -262 l 110 -85 q 173 -54 134 -54 z "},"Ř":{"ha":962,"x_min":183,"x_max":1047,"o":"m 210 0 q 183 21 183 0 q 185 34 183 26 l 385 780 q 429 814 394 814 l 496 814 q 523 793 523 814 q 521 780 523 787 l 431 446 q 568 358 460 358 q 754 435 675 358 q 880 674 838 517 q 896 784 896 734 q 876 883 896 840 q 680 977 831 977 q 194 710 438 977 l 184 714 q 733 1038 403 1038 q 995 934 913 1038 q 1047 777 1047 867 q 1033 675 1047 730 q 895 442 997 538 q 667 318 787 342 q 793 191 743 298 l 865 34 q 869 20 869 26 q 840 0 869 0 l 759 0 q 711 34 728 0 l 646 174 q 515 319 587 299 q 412 373 437 340 l 321 34 q 278 0 312 0 l 210 0 m 653 1276 l 709 1276 q 751 1249 741 1276 l 791 1149 l 884 1249 q 941 1276 910 1276 l 1006 1276 l 846 1112 q 795 1085 820 1085 l 762 1085 q 726 1112 739 1085 l 653 1276 z "},"ř":{"ha":634,"x_min":136,"x_max":798,"o":"m 163 0 q 136 21 136 0 q 138 34 136 26 l 320 712 q 363 746 329 746 l 417 746 q 444 725 444 746 q 442 712 444 720 q 595 760 507 760 q 749 687 698 760 q 780 593 780 643 q 772 543 780 564 q 744 495 763 515 q 678 468 718 468 q 616 494 642 468 q 591 557 591 520 q 616 621 591 595 q 679 647 642 647 q 718 637 699 647 q 603 712 686 712 q 471 658 531 712 q 382 490 413 606 l 260 34 q 217 0 251 0 l 163 0 m 446 991 l 501 991 q 544 964 533 991 l 583 864 l 677 964 q 733 991 703 991 l 798 991 l 638 827 q 588 800 612 800 l 554 800 q 519 827 531 800 l 446 991 z "},"Ś":{"ha":820,"x_min":116,"x_max":946,"o":"m 383 -14 q 173 66 239 -14 q 116 209 116 134 q 123 258 116 235 q 151 306 133 287 q 216 334 178 334 q 278 308 253 334 q 304 244 304 281 q 278 181 304 207 q 216 155 252 155 q 177 165 195 155 q 382 37 228 37 q 600 127 511 37 q 695 288 670 197 q 703 343 703 317 q 589 498 703 441 l 482 551 q 339 740 339 622 q 349 806 339 771 q 474 975 374 903 q 685 1038 560 1038 q 889 918 842 1038 q 899 868 899 893 q 891 818 899 839 q 863 772 882 792 q 796 743 836 743 q 734 769 760 743 q 709 833 709 795 q 734 896 709 870 q 797 922 760 922 q 836 912 817 922 q 699 987 793 987 q 554 943 612 987 q 477 829 498 899 q 472 792 472 810 q 565 665 472 710 l 686 606 q 846 393 846 528 q 836 312 846 350 q 663 77 800 177 q 383 -14 540 -14 m 885 1291 q 931 1272 915 1291 q 946 1228 946 1255 q 905 1171 946 1190 l 687 1072 l 680 1084 l 822 1261 q 885 1291 846 1291 z "},"ś":{"ha":665,"x_min":106,"x_max":782,"o":"m 332 -14 q 154 58 218 -14 q 106 170 106 111 q 114 221 106 197 q 142 265 121 244 q 208 292 171 292 q 270 266 245 292 q 296 202 296 239 q 270 139 296 165 q 208 113 244 113 q 169 123 187 113 q 329 41 220 41 q 460 84 403 41 q 541 195 524 132 q 545 233 545 212 q 479 328 545 293 l 379 382 q 273 528 273 439 q 286 597 273 564 q 397 718 313 669 q 554 760 467 760 q 688 705 639 760 q 724 618 724 666 q 715 569 724 592 q 687 527 707 547 q 622 502 661 502 q 560 528 585 502 q 534 591 534 554 q 560 655 534 629 q 623 681 586 681 q 661 671 643 681 q 565 710 625 710 q 455 679 499 710 q 390 591 404 643 q 387 568 387 579 q 456 474 387 511 l 549 426 q 668 269 668 363 q 654 186 668 224 q 536 44 622 102 q 332 -14 452 -14 m 721 1006 q 767 987 751 1006 q 782 943 782 970 q 741 886 782 905 l 523 787 l 515 799 l 658 976 q 721 1006 682 1006 z "},"Ŝ":{"ha":820,"x_min":116,"x_max":899,"o":"m 383 -14 q 173 66 239 -14 q 116 209 116 134 q 123 258 116 235 q 151 306 133 287 q 216 334 178 334 q 278 308 253 334 q 304 244 304 281 q 278 181 304 207 q 216 155 252 155 q 177 165 195 155 q 382 37 228 37 q 600 127 511 37 q 695 288 670 197 q 703 343 703 317 q 589 498 703 441 l 482 551 q 339 740 339 622 q 349 806 339 771 q 474 975 374 903 q 685 1038 560 1038 q 889 918 842 1038 q 899 868 899 893 q 891 818 899 839 q 863 772 882 792 q 796 743 836 743 q 734 769 760 743 q 709 833 709 795 q 734 896 709 870 q 797 922 760 922 q 836 912 817 922 q 699 987 793 987 q 554 943 612 987 q 477 829 498 899 q 472 792 472 810 q 565 665 472 710 l 686 606 q 846 393 846 528 q 836 312 846 350 q 663 77 800 177 q 383 -14 540 -14 m 725 1276 l 759 1276 q 795 1249 783 1276 l 867 1085 l 812 1085 q 770 1112 781 1085 l 730 1212 l 637 1112 q 580 1085 612 1085 l 515 1085 l 675 1249 q 725 1276 702 1276 z "},"ŝ":{"ha":665,"x_min":106,"x_max":725,"o":"m 332 -14 q 154 58 218 -14 q 106 170 106 111 q 114 221 106 197 q 142 265 121 244 q 208 292 171 292 q 270 266 245 292 q 296 202 296 239 q 270 139 296 165 q 208 113 244 113 q 169 123 187 113 q 329 41 220 41 q 460 84 403 41 q 541 195 524 132 q 545 233 545 212 q 479 328 545 293 l 379 382 q 273 528 273 439 q 286 597 273 564 q 397 718 313 669 q 554 760 467 760 q 688 705 639 760 q 724 618 724 666 q 715 569 724 592 q 687 527 707 547 q 622 502 661 502 q 560 528 585 502 q 534 591 534 554 q 560 655 534 629 q 623 681 586 681 q 661 671 643 681 q 565 710 625 710 q 455 679 499 710 q 390 591 404 643 q 387 568 387 579 q 456 474 387 511 l 549 426 q 668 269 668 363 q 654 186 668 224 q 536 44 622 102 q 332 -14 452 -14 m 583 991 l 616 991 q 652 964 641 991 l 725 800 l 669 800 q 627 827 638 800 l 587 927 l 494 827 q 437 800 469 800 l 372 800 l 533 964 q 583 991 559 991 z "},"Ş":{"ha":820,"x_min":116,"x_max":899,"o":"m 353 -13 q 173 66 232 -5 q 116 209 116 134 q 123 258 116 235 q 151 306 133 287 q 216 334 178 334 q 278 308 253 334 q 304 244 304 281 q 278 181 304 207 q 216 155 252 155 q 177 165 195 155 q 382 37 228 37 q 600 127 511 37 q 695 288 670 197 q 703 343 703 317 q 589 498 703 441 l 482 551 q 339 740 339 622 q 349 806 339 771 q 474 975 374 903 q 685 1038 560 1038 q 889 918 842 1038 q 899 868 899 893 q 891 818 899 839 q 863 772 882 792 q 796 743 836 743 q 734 769 760 743 q 709 833 709 795 q 734 896 709 870 q 797 922 760 922 q 836 912 817 922 q 699 987 793 987 q 554 943 612 987 q 477 829 498 899 q 472 792 472 810 q 565 665 472 710 l 686 606 q 846 393 846 528 q 836 312 846 350 q 663 77 800 177 q 407 -13 549 -7 l 404 -26 q 466 -54 444 -33 q 494 -117 494 -80 q 490 -151 494 -135 q 431 -245 473 -210 q 307 -292 374 -292 q 279 -271 279 -292 q 281 -258 279 -265 l 288 -232 q 332 -198 297 -198 q 381 -180 357 -198 q 409 -138 402 -165 q 411 -121 411 -130 q 397 -88 411 -102 q 336 -73 379 -73 l 353 -13 z "},"ş":{"ha":665,"x_min":106,"x_max":724,"o":"m 302 -12 q 154 58 210 -3 q 106 170 106 111 q 114 221 106 197 q 142 265 121 244 q 208 292 171 292 q 270 266 245 292 q 296 202 296 239 q 270 139 296 165 q 208 113 244 113 q 169 123 187 113 q 329 41 220 41 q 460 84 403 41 q 541 195 524 132 q 545 233 545 212 q 479 328 545 293 l 379 382 q 273 528 273 439 q 286 597 273 564 q 397 718 313 669 q 554 760 467 760 q 688 705 639 760 q 724 618 724 666 q 715 569 724 592 q 687 527 707 547 q 622 502 661 502 q 560 528 585 502 q 534 591 534 554 q 560 655 534 629 q 623 681 586 681 q 661 671 643 681 q 565 710 625 710 q 455 679 499 710 q 390 591 404 643 q 387 568 387 579 q 456 474 387 511 l 549 426 q 668 269 668 363 q 654 186 668 224 q 536 44 622 102 q 356 -13 460 -7 l 353 -26 q 415 -54 393 -33 q 444 -117 444 -80 q 439 -151 444 -135 q 380 -245 422 -210 q 256 -292 323 -292 q 229 -271 229 -292 q 231 -258 229 -265 l 237 -232 q 281 -198 246 -198 q 330 -180 307 -198 q 358 -138 351 -165 q 360 -121 360 -130 q 346 -88 360 -102 q 286 -73 328 -73 l 302 -12 z "},"Š":{"ha":820,"x_min":116,"x_max":929,"o":"m 383 -14 q 173 66 239 -14 q 116 209 116 134 q 123 258 116 235 q 151 306 133 287 q 216 334 178 334 q 278 308 253 334 q 304 244 304 281 q 278 181 304 207 q 216 155 252 155 q 177 165 195 155 q 382 37 228 37 q 600 127 511 37 q 695 288 670 197 q 703 343 703 317 q 589 498 703 441 l 482 551 q 339 740 339 622 q 349 806 339 771 q 474 975 374 903 q 685 1038 560 1038 q 889 918 842 1038 q 899 868 899 893 q 891 818 899 839 q 863 772 882 792 q 796 743 836 743 q 734 769 760 743 q 709 833 709 795 q 734 896 709 870 q 797 922 760 922 q 836 912 817 922 q 699 987 793 987 q 554 943 612 987 q 477 829 498 899 q 472 792 472 810 q 565 665 472 710 l 686 606 q 846 393 846 528 q 836 312 846 350 q 663 77 800 177 q 383 -14 540 -14 m 576 1276 l 632 1276 q 675 1249 664 1276 l 714 1149 l 808 1249 q 864 1276 833 1276 l 929 1276 l 769 1112 q 719 1085 743 1085 l 685 1085 q 650 1112 662 1085 l 576 1276 z "},"š":{"ha":665,"x_min":106,"x_max":793,"o":"m 332 -14 q 154 58 218 -14 q 106 170 106 111 q 114 221 106 197 q 142 265 121 244 q 208 292 171 292 q 270 266 245 292 q 296 202 296 239 q 270 139 296 165 q 208 113 244 113 q 169 123 187 113 q 329 41 220 41 q 460 84 403 41 q 541 195 524 132 q 545 233 545 212 q 479 328 545 293 l 379 382 q 273 528 273 439 q 286 597 273 564 q 397 718 313 669 q 554 760 467 760 q 688 705 639 760 q 724 618 724 666 q 715 569 724 592 q 687 527 707 547 q 622 502 661 502 q 560 528 585 502 q 534 591 534 554 q 560 655 534 629 q 623 681 586 681 q 661 671 643 681 q 565 710 625 710 q 455 679 499 710 q 390 591 404 643 q 387 568 387 579 q 456 474 387 511 l 549 426 q 668 269 668 363 q 654 186 668 224 q 536 44 622 102 q 332 -14 452 -14 m 440 991 l 496 991 q 538 964 528 991 l 578 864 l 671 964 q 728 991 697 991 l 793 991 l 633 827 q 583 800 607 800 l 549 800 q 513 827 526 800 l 440 991 z "},"Ţ":{"ha":854,"x_min":180,"x_max":1084,"o":"m 694 1024 l 928 1024 q 1046 985 1004 1024 q 1084 902 1084 949 q 1078 859 1084 878 q 1050 811 1069 831 q 985 783 1023 783 q 923 809 948 783 q 897 873 897 836 q 923 937 897 910 q 985 962 946 960 l 985 963 l 671 963 q 189 695 418 963 l 180 701 q 694 1024 386 1024 m 406 0 q 379 21 379 0 q 381 34 379 26 l 581 780 q 625 814 590 814 l 692 814 q 719 793 719 814 q 717 780 719 787 l 517 34 q 474 0 508 0 l 460 0 l 454 -26 q 516 -54 494 -33 q 545 -117 545 -80 q 541 -151 545 -135 q 481 -245 524 -210 q 357 -292 425 -292 q 330 -271 330 -292 q 332 -258 330 -265 l 338 -232 q 382 -198 347 -198 q 431 -180 408 -198 q 459 -138 452 -165 q 461 -121 461 -130 q 447 -88 461 -102 q 387 -73 429 -73 l 406 0 z "},"ţ":{"ha":454,"x_min":124,"x_max":647,"o":"m 201 0 q 174 21 174 0 q 176 34 174 26 l 350 685 l 208 685 q 191 697 191 685 q 193 705 191 700 l 198 726 q 224 746 203 746 l 366 746 l 432 990 q 475 1024 441 1024 l 530 1024 q 556 1003 556 1024 q 554 990 556 998 l 488 746 l 631 746 q 647 733 647 746 q 646 726 647 730 l 640 705 q 614 685 635 685 l 472 685 l 298 34 q 255 0 289 0 l 248 -26 q 311 -54 288 -33 q 339 -117 339 -80 q 335 -151 339 -135 q 275 -245 318 -210 q 151 -292 219 -292 q 124 -271 124 -292 q 126 -258 124 -265 l 133 -232 q 176 -198 142 -198 q 226 -180 202 -198 q 254 -138 247 -165 q 256 -121 256 -130 q 241 -88 256 -102 q 181 -73 224 -73 l 201 0 z "},"Ť":{"ha":854,"x_min":180,"x_max":1084,"o":"m 406 0 q 379 21 379 0 q 381 34 379 26 l 581 780 q 625 814 590 814 l 692 814 q 719 793 719 814 q 717 780 719 787 l 517 34 q 474 0 508 0 l 406 0 m 694 1024 l 928 1024 q 1046 985 1004 1024 q 1084 902 1084 949 q 1078 859 1084 878 q 1050 811 1069 831 q 985 783 1023 783 q 923 809 948 783 q 897 873 897 836 q 923 937 897 910 q 985 962 946 960 l 985 963 l 671 963 q 189 695 418 963 l 180 701 q 694 1024 386 1024 m 608 1276 l 664 1276 q 707 1249 696 1276 l 746 1149 l 840 1249 q 896 1276 865 1276 l 961 1276 l 801 1112 q 751 1085 775 1085 l 717 1085 q 682 1112 694 1085 l 608 1276 z "},"ť":{"ha":496,"x_min":174,"x_max":764,"o":"m 201 0 q 174 21 174 0 q 176 34 174 26 l 350 685 l 208 685 q 191 697 191 685 q 193 705 191 700 l 198 726 q 224 746 203 746 l 366 746 l 432 990 q 475 1024 441 1024 l 530 1024 q 556 1003 556 1024 q 554 990 556 998 l 488 746 l 631 746 q 647 733 647 746 q 646 726 647 730 l 640 705 q 614 685 635 685 l 472 685 l 298 34 q 255 0 289 0 l 201 0 m 688 1044 q 699 1042 692 1044 l 750 1021 q 764 1004 764 1016 q 764 999 764 1001 q 755 983 762 992 l 625 804 q 595 785 612 785 q 584 788 590 785 l 560 799 q 546 817 546 806 q 547 822 546 820 q 551 833 549 828 l 661 1024 q 688 1044 672 1044 z "},"Ŧ":{"ha":854,"x_min":180,"x_max":1084,"o":"m 694 1024 l 928 1024 q 1046 985 1004 1024 q 1084 902 1084 949 q 1078 859 1084 878 q 1050 811 1069 831 q 985 783 1023 783 q 923 809 948 783 q 897 873 897 836 q 923 937 897 910 q 985 962 946 960 l 985 963 l 671 963 q 189 695 418 963 l 180 701 q 694 1024 386 1024 m 406 0 q 379 21 379 0 q 381 34 379 26 l 475 386 l 368 386 q 352 399 352 386 q 353 406 352 404 l 358 427 q 384 447 363 447 l 492 447 l 581 780 q 625 814 590 814 l 692 814 q 719 793 719 814 q 717 780 719 787 l 627 447 l 747 447 q 762 434 762 447 q 762 427 762 429 l 756 406 q 730 386 751 386 l 611 386 l 517 34 q 474 0 508 0 l 406 0 z "},"ŧ":{"ha":454,"x_min":133,"x_max":647,"o":"m 201 0 q 174 21 174 0 q 176 34 174 26 l 270 386 l 149 386 q 133 399 133 386 q 134 406 133 404 l 139 427 q 165 447 144 447 l 286 447 l 350 685 l 208 685 q 191 697 191 685 q 193 705 191 700 l 198 726 q 224 746 203 746 l 366 746 l 432 990 q 475 1024 441 1024 l 530 1024 q 556 1003 556 1024 q 554 990 556 998 l 488 746 l 631 746 q 647 733 647 746 q 646 726 647 730 l 640 705 q 614 685 635 685 l 472 685 l 408 447 l 528 447 q 544 434 544 447 q 543 427 544 429 l 538 406 q 512 386 532 386 l 392 386 l 298 34 q 255 0 289 0 l 201 0 z "},"Ũ":{"ha":964,"x_min":211,"x_max":1088,"o":"m 720 0 q 692 21 692 0 q 694 34 692 26 l 726 146 q 668 79 707 114 q 437 -14 567 -14 q 224 113 277 -14 q 211 193 211 145 q 235 346 211 254 l 408 990 q 451 1024 416 1024 l 519 1024 q 545 1003 545 1024 q 543 990 545 998 l 370 345 q 348 208 348 261 q 351 170 348 187 q 498 67 372 67 q 704 180 621 67 q 778 346 751 245 l 950 990 q 994 1024 959 1024 l 1061 1024 q 1088 1003 1088 1024 q 1086 990 1088 998 l 830 34 q 787 0 821 0 l 720 0 m 741 1262 q 794 1245 773 1262 l 865 1190 q 895 1177 880 1177 q 988 1249 939 1177 l 998 1249 q 848 1099 948 1099 q 795 1116 817 1099 l 725 1171 q 694 1183 709 1183 q 600 1112 650 1183 l 590 1112 q 741 1262 641 1262 z "},"ũ":{"ha":821,"x_min":184,"x_max":885,"o":"m 658 0 l 604 0 q 576 21 576 0 q 578 34 576 26 l 605 130 q 526 45 572 81 q 356 -14 450 -14 q 201 77 243 -14 q 184 159 184 112 q 200 264 184 206 l 319 712 q 362 746 328 746 l 416 746 q 444 725 444 746 q 441 712 444 720 l 322 264 q 309 176 309 214 q 313 141 309 156 q 429 62 334 62 q 583 142 518 62 q 641 264 621 189 l 761 712 q 804 746 770 746 l 858 746 q 885 725 885 746 q 883 712 885 720 l 701 34 q 658 0 692 0 m 571 977 q 624 960 603 977 l 694 905 q 726 892 710 892 q 819 964 769 892 l 829 964 q 679 814 779 814 q 625 831 647 814 l 555 886 q 524 899 539 899 q 431 827 480 899 l 420 827 q 571 977 471 977 z "},"Ū":{"ha":964,"x_min":211,"x_max":1088,"o":"m 720 0 q 692 21 692 0 q 694 34 692 26 l 726 146 q 668 79 707 114 q 437 -14 567 -14 q 224 113 277 -14 q 211 193 211 145 q 235 346 211 254 l 408 990 q 451 1024 416 1024 l 519 1024 q 545 1003 545 1024 q 543 990 545 998 l 370 345 q 348 208 348 261 q 351 170 348 187 q 498 67 372 67 q 704 180 621 67 q 778 346 751 245 l 950 990 q 994 1024 959 1024 l 1061 1024 q 1088 1003 1088 1024 q 1086 990 1088 998 l 830 34 q 787 0 821 0 l 720 0 m 637 1225 l 956 1225 q 977 1208 977 1225 q 976 1198 977 1203 l 967 1164 q 932 1137 960 1137 l 614 1137 q 593 1153 593 1137 q 594 1164 593 1158 l 603 1198 q 637 1225 610 1225 z "},"ū":{"ha":821,"x_min":184,"x_max":885,"o":"m 658 0 l 604 0 q 576 21 576 0 q 578 34 576 26 l 605 130 q 526 45 572 81 q 356 -14 450 -14 q 201 77 243 -14 q 184 159 184 112 q 200 264 184 206 l 319 712 q 362 746 328 746 l 416 746 q 444 725 444 746 q 441 712 444 720 l 322 264 q 309 176 309 214 q 313 141 309 156 q 429 62 334 62 q 583 142 518 62 q 641 264 621 189 l 761 712 q 804 746 770 746 l 858 746 q 885 725 885 746 q 883 712 885 720 l 701 34 q 658 0 692 0 m 498 933 l 817 933 q 838 916 838 933 q 837 906 838 911 l 828 872 q 793 845 821 845 l 475 845 q 454 861 454 845 q 455 872 454 867 l 464 906 q 498 933 471 933 z "},"Ŭ":{"ha":964,"x_min":211,"x_max":1088,"o":"m 720 0 q 692 21 692 0 q 694 34 692 26 l 726 146 q 668 79 707 114 q 437 -14 567 -14 q 224 113 277 -14 q 211 193 211 145 q 235 346 211 254 l 408 990 q 451 1024 416 1024 l 519 1024 q 545 1003 545 1024 q 543 990 545 998 l 370 345 q 348 208 348 261 q 351 170 348 187 q 498 67 372 67 q 704 180 621 67 q 778 346 751 245 l 950 990 q 994 1024 959 1024 l 1061 1024 q 1088 1003 1088 1024 q 1086 990 1088 998 l 830 34 q 787 0 821 0 l 720 0 m 636 1270 l 652 1270 q 690 1253 684 1270 q 789 1180 720 1180 q 925 1253 857 1180 q 972 1270 942 1270 l 989 1270 q 765 1092 890 1092 q 636 1270 640 1092 z "},"ŭ":{"ha":821,"x_min":184,"x_max":885,"o":"m 658 0 l 604 0 q 576 21 576 0 q 578 34 576 26 l 605 130 q 526 45 572 81 q 356 -14 450 -14 q 201 77 243 -14 q 184 159 184 112 q 200 264 184 206 l 319 712 q 362 746 328 746 l 416 746 q 444 725 444 746 q 441 712 444 720 l 322 264 q 309 176 309 214 q 313 141 309 156 q 429 62 334 62 q 583 142 518 62 q 641 264 621 189 l 761 712 q 804 746 770 746 l 858 746 q 885 725 885 746 q 883 712 885 720 l 701 34 q 658 0 692 0 m 489 985 l 505 985 q 543 968 536 985 q 643 895 573 895 q 778 968 711 895 q 825 985 795 985 l 842 985 q 618 807 743 807 q 489 985 493 807 z "},"Ů":{"ha":964,"x_min":211,"x_max":1088,"o":"m 720 0 q 692 21 692 0 q 694 34 692 26 l 726 146 q 668 79 707 114 q 437 -14 567 -14 q 224 113 277 -14 q 211 193 211 145 q 235 346 211 254 l 408 990 q 451 1024 416 1024 l 519 1024 q 545 1003 545 1024 q 543 990 545 998 l 370 345 q 348 208 348 261 q 351 170 348 187 q 498 67 372 67 q 704 180 621 67 q 778 346 751 245 l 950 990 q 994 1024 959 1024 l 1061 1024 q 1088 1003 1088 1024 q 1086 990 1088 998 l 830 34 q 787 0 821 0 l 720 0 m 846 1236 q 837 1245 846 1236 q 801 1255 827 1255 q 755 1236 774 1255 q 736 1190 736 1217 q 755 1143 736 1162 q 801 1124 774 1124 q 846 1143 827 1124 q 865 1190 865 1162 q 846 1236 865 1217 m 801 1308 q 883 1274 848 1308 q 918 1190 918 1240 q 883 1105 918 1140 q 801 1072 849 1072 q 719 1105 753 1072 q 684 1190 684 1139 q 719 1274 684 1240 q 801 1308 753 1308 z "},"ů":{"ha":821,"x_min":184,"x_max":885,"o":"m 658 0 l 604 0 q 576 21 576 0 q 578 34 576 26 l 605 130 q 526 45 572 81 q 356 -14 450 -14 q 201 77 243 -14 q 184 159 184 112 q 200 264 184 206 l 319 712 q 362 746 328 746 l 416 746 q 444 725 444 746 q 441 712 444 720 l 322 264 q 309 176 309 214 q 313 141 309 156 q 429 62 334 62 q 583 142 518 62 q 641 264 621 189 l 761 712 q 804 746 770 746 l 858 746 q 885 725 885 746 q 883 712 885 720 l 701 34 q 658 0 692 0 m 694 951 q 684 960 694 951 q 648 970 675 970 q 603 951 622 970 q 584 905 584 932 q 603 859 584 878 q 648 840 622 840 q 694 859 675 840 q 713 905 713 878 q 694 951 713 932 m 648 1023 q 730 989 696 1023 q 765 905 765 955 q 730 821 765 855 q 648 787 696 787 q 566 821 601 787 q 532 905 532 854 q 566 989 532 955 q 648 1023 600 1023 z "},"Ű":{"ha":964,"x_min":211,"x_max":1088,"o":"m 720 0 q 692 21 692 0 q 694 34 692 26 l 726 146 q 668 79 707 114 q 437 -14 567 -14 q 224 113 277 -14 q 211 193 211 145 q 235 346 211 254 l 408 990 q 451 1024 416 1024 l 519 1024 q 545 1003 545 1024 q 543 990 545 998 l 370 345 q 348 208 348 261 q 351 170 348 187 q 498 67 372 67 q 704 180 621 67 q 778 346 751 245 l 950 990 q 994 1024 959 1024 l 1061 1024 q 1088 1003 1088 1024 q 1086 990 1088 998 l 830 34 q 787 0 821 0 l 720 0 m 987 1291 q 1036 1274 1019 1291 q 1050 1232 1050 1257 q 1009 1173 1050 1197 l 829 1072 l 822 1084 l 932 1257 q 987 1291 954 1291 m 781 1291 q 829 1274 813 1291 q 844 1232 844 1257 q 803 1173 844 1197 l 623 1072 l 616 1084 l 726 1257 q 781 1291 747 1291 z "},"ű":{"ha":821,"x_min":184,"x_max":885,"o":"m 658 0 l 604 0 q 576 21 576 0 q 578 34 576 26 l 605 130 q 526 45 572 81 q 356 -14 450 -14 q 201 77 243 -14 q 184 159 184 112 q 200 264 184 206 l 319 712 q 362 746 328 746 l 416 746 q 444 725 444 746 q 441 712 444 720 l 322 264 q 309 176 309 214 q 313 141 309 156 q 429 62 334 62 q 583 142 518 62 q 641 264 621 189 l 761 712 q 804 746 770 746 l 858 746 q 885 725 885 746 q 883 712 885 720 l 701 34 q 658 0 692 0 m 816 1006 q 865 989 848 1006 q 880 947 880 972 q 838 888 880 912 l 659 787 l 651 799 l 761 972 q 816 1006 783 1006 m 610 1006 q 659 989 642 1006 q 673 947 673 972 q 632 888 673 912 l 452 787 l 445 799 l 555 972 q 610 1006 576 1006 z "},"Ų":{"ha":964,"x_min":211,"x_max":1088,"o":"m 720 0 q 692 21 692 0 q 694 34 692 26 l 726 146 q 668 79 707 114 q 437 -14 567 -14 q 224 113 277 -14 q 211 193 211 145 q 235 346 211 254 l 408 990 q 451 1024 416 1024 l 519 1024 q 545 1003 545 1024 q 543 990 545 998 l 370 345 q 348 208 348 261 q 351 170 348 187 q 498 67 372 67 q 704 180 621 67 q 778 346 751 245 l 950 990 q 994 1024 959 1024 l 1061 1024 q 1088 1003 1088 1024 q 1086 990 1088 998 l 830 34 q 787 0 821 0 q 727 -96 738 -55 q 723 -123 723 -111 q 734 -155 723 -142 q 796 -175 751 -175 q 823 -196 823 -175 q 821 -209 823 -202 l 808 -258 q 765 -292 799 -292 q 648 -240 686 -292 q 629 -179 629 -214 q 634 -140 629 -161 q 742 0 655 -62 l 720 0 z "},"ų":{"ha":821,"x_min":184,"x_max":885,"o":"m 658 0 q 597 -96 608 -55 q 593 -123 593 -111 q 604 -155 593 -142 q 667 -175 621 -175 q 693 -196 693 -175 q 691 -209 693 -202 l 678 -258 q 635 -292 669 -292 q 519 -240 557 -292 q 499 -179 499 -214 q 505 -140 499 -161 q 612 0 526 -62 l 604 0 q 576 21 576 0 q 578 34 576 26 l 605 130 q 526 45 572 81 q 356 -14 450 -14 q 201 77 243 -14 q 184 159 184 112 q 200 264 184 206 l 319 712 q 362 746 328 746 l 416 746 q 444 725 444 746 q 441 712 444 720 l 322 264 q 309 176 309 214 q 313 141 309 156 q 429 62 334 62 q 583 142 518 62 q 641 264 621 189 l 761 712 q 804 746 770 746 l 858 746 q 885 725 885 746 q 883 712 885 720 l 701 34 q 658 0 692 0 z "},"Ŵ":{"ha":1482,"x_min":210,"x_max":1594,"o":"m 437 -14 q 224 113 277 -14 q 210 193 210 146 q 235 346 210 252 l 408 990 q 451 1024 416 1024 l 519 1024 q 545 1003 545 1024 q 543 990 545 998 l 370 345 q 348 208 348 261 q 351 170 348 187 q 498 67 370 67 q 704 180 621 67 q 778 346 751 245 l 950 990 q 994 1024 959 1024 l 1061 1024 q 1088 1003 1088 1024 q 1086 990 1088 998 l 913 345 q 890 208 890 258 q 894 170 890 186 q 1050 67 920 67 q 1326 220 1197 67 q 1459 499 1412 323 q 1478 631 1478 569 q 1463 744 1478 699 q 1390 867 1440 814 q 1359 937 1359 899 q 1365 974 1359 956 q 1395 1017 1374 1002 q 1461 1038 1422 1038 q 1561 962 1531 1038 q 1594 772 1594 881 q 1564 560 1594 674 q 1396 216 1509 356 q 996 -14 1210 -14 q 768 112 817 -14 q 755 175 758 138 q 677 81 724 123 q 437 -14 574 -14 m 1079 1276 l 1113 1276 q 1149 1249 1137 1276 l 1221 1085 l 1166 1085 q 1124 1112 1135 1085 l 1084 1212 l 991 1112 q 934 1085 966 1085 l 869 1085 l 1029 1249 q 1079 1276 1056 1276 z "},"ŵ":{"ha":1236,"x_min":184,"x_max":1301,"o":"m 357 -14 q 201 77 245 -14 q 184 161 184 113 q 200 264 184 206 l 319 712 q 362 746 328 746 l 416 746 q 444 725 444 746 q 441 712 444 720 l 321 263 q 309 176 309 215 q 313 141 309 156 q 426 61 334 61 q 583 142 518 61 q 640 260 622 191 l 761 712 q 804 746 770 746 l 859 746 q 885 725 885 746 q 883 712 885 720 l 762 258 q 751 182 751 218 q 762 121 751 148 q 891 54 789 54 q 1104 156 1017 54 q 1185 317 1160 222 q 1198 415 1198 367 q 1184 509 1198 466 q 1136 585 1169 554 q 1094 672 1094 625 q 1097 696 1094 684 q 1127 744 1103 726 q 1180 760 1148 760 q 1286 658 1253 760 q 1301 545 1301 614 q 1276 378 1301 468 q 1151 145 1242 249 q 829 -14 1013 -14 q 652 73 699 -14 q 629 146 634 106 q 532 42 593 90 q 357 -14 459 -14 m 879 991 l 913 991 q 949 964 937 991 l 1021 800 l 966 800 q 924 827 935 800 l 884 927 l 791 827 q 734 800 766 800 l 669 800 l 829 964 q 879 991 856 991 z "},"Ŷ":{"ha":922,"x_min":223,"x_max":1047,"o":"m 429 -14 q 254 60 311 -14 q 223 153 223 99 q 231 203 223 179 q 258 250 240 231 q 323 278 286 278 q 386 252 360 278 q 411 189 411 226 q 385 125 411 151 q 323 99 359 99 q 284 109 302 99 q 426 37 322 37 q 632 136 545 37 q 744 373 701 214 l 770 471 q 696 405 742 437 q 503 346 612 346 q 319 435 371 346 q 296 529 296 474 q 310 624 296 570 l 408 990 q 451 1024 416 1024 l 519 1024 q 545 1003 545 1024 q 543 990 545 998 l 446 624 q 433 544 433 578 q 439 501 433 519 q 574 421 467 421 q 753 502 680 421 q 812 624 790 542 l 909 990 q 953 1024 918 1024 l 1021 1024 q 1047 1003 1047 1024 q 1045 990 1047 998 l 880 373 q 692 79 827 179 q 429 -14 569 -14 m 769 1276 l 803 1276 q 839 1249 827 1276 l 911 1085 l 856 1085 q 814 1112 825 1085 l 774 1212 l 681 1112 q 624 1085 656 1085 l 559 1085 l 720 1249 q 769 1276 746 1276 z "},"ŷ":{"ha":821,"x_min":101,"x_max":884,"o":"m 356 -14 q 201 77 244 -14 q 184 161 184 113 q 199 264 184 206 l 319 712 q 362 746 328 746 l 416 746 q 444 725 444 746 q 441 712 444 720 l 321 264 q 308 178 308 214 q 312 142 308 157 q 429 62 334 62 q 583 142 517 62 q 640 264 620 189 l 760 712 q 804 746 769 746 l 858 746 q 884 725 884 746 q 882 712 884 720 l 710 68 q 536 -205 663 -110 q 292 -292 421 -292 q 159 -258 206 -292 q 101 -152 101 -218 q 114 -96 101 -121 q 138 -64 123 -78 q 201 -39 165 -39 q 263 -65 238 -39 q 289 -128 289 -91 q 263 -192 289 -165 q 201 -218 237 -218 q 162 -208 180 -218 q 284 -250 212 -250 q 475 -167 383 -250 q 570 0 541 -107 l 604 130 q 526 45 572 81 q 356 -14 450 -14 m 645 991 l 679 991 q 715 964 703 991 l 787 800 l 732 800 q 690 827 701 800 l 650 927 l 557 827 q 500 800 532 800 l 435 800 l 595 964 q 645 991 622 991 z "},"Ÿ":{"ha":922,"x_min":223,"x_max":1047,"o":"m 429 -14 q 254 60 311 -14 q 223 153 223 99 q 231 203 223 179 q 258 250 240 231 q 323 278 286 278 q 386 252 360 278 q 411 189 411 226 q 385 125 411 151 q 323 99 359 99 q 284 109 302 99 q 426 37 322 37 q 632 136 545 37 q 744 373 701 214 l 770 471 q 696 405 742 437 q 503 346 612 346 q 319 435 371 346 q 296 529 296 474 q 310 624 296 570 l 408 990 q 451 1024 416 1024 l 519 1024 q 545 1003 545 1024 q 543 990 545 998 l 446 624 q 433 544 433 578 q 439 501 433 519 q 574 421 467 421 q 753 502 680 421 q 812 624 790 542 l 909 990 q 953 1024 918 1024 l 1021 1024 q 1047 1003 1047 1024 q 1045 990 1047 998 l 880 373 q 692 79 827 179 q 429 -14 569 -14 m 814 1237 q 826 1248 814 1237 q 871 1260 838 1260 q 926 1237 903 1260 q 949 1179 949 1214 q 926 1122 949 1145 q 871 1099 903 1099 q 814 1122 838 1099 q 791 1179 791 1145 q 814 1237 791 1213 m 609 1237 q 621 1249 609 1237 q 665 1260 632 1260 q 720 1237 697 1260 q 743 1179 743 1214 q 720 1122 743 1145 q 665 1099 697 1099 q 609 1122 632 1099 q 586 1179 586 1145 q 609 1237 586 1214 z "},"Ź":{"ha":881,"x_min":39,"x_max":1086,"o":"m 44 -14 q 39 -4 44 -14 l 845 936 q 693 960 783 936 q 561 981 616 981 q 414 938 452 981 q 461 913 441 934 q 487 850 487 887 q 461 786 487 812 q 399 760 435 760 q 337 786 362 760 q 311 850 311 812 q 316 886 311 867 q 398 996 334 952 q 566 1038 459 1038 q 746 1014 643 1038 q 889 999 810 999 q 1082 1038 979 999 l 1086 1028 l 283 87 q 453 64 366 87 q 619 43 530 43 q 766 86 728 43 q 719 111 739 90 q 693 174 693 137 q 719 238 693 212 q 781 264 745 264 q 843 238 818 264 q 869 174 869 212 q 864 138 869 157 q 782 28 846 72 q 614 -14 721 -14 q 419 9 517 -14 q 257 25 349 25 q 44 -14 148 25 m 925 1291 q 971 1272 955 1291 q 986 1228 986 1255 q 945 1171 986 1190 l 727 1072 l 720 1084 l 862 1261 q 925 1291 886 1291 z "},"ź":{"ha":686,"x_min":18,"x_max":864,"o":"m 26 -14 q 18 -7 26 -14 l 641 667 q 519 688 572 667 q 432 709 466 709 q 310 663 359 709 q 357 637 336 659 q 383 574 383 612 q 357 511 383 537 q 295 485 332 485 q 233 511 258 485 q 208 574 208 537 q 212 605 208 589 q 294 718 231 675 q 440 760 355 760 q 565 736 473 760 q 698 722 620 722 q 857 760 771 722 l 864 753 l 241 79 q 378 58 323 79 q 483 37 431 37 q 606 83 556 37 q 558 109 579 87 q 532 172 532 134 q 558 235 532 209 q 621 261 584 261 q 683 235 657 261 q 708 172 708 209 q 704 141 708 157 q 621 28 685 71 q 475 -14 560 -14 q 332 10 424 -14 q 205 24 277 24 q 26 -14 121 24 m 743 1006 q 789 987 772 1006 q 804 943 804 970 q 762 886 804 905 l 545 787 l 537 799 l 680 976 q 743 1006 704 1006 z "},"Ż":{"ha":881,"x_min":39,"x_max":1086,"o":"m 734 1238 q 747 1251 734 1238 q 796 1264 760 1264 q 858 1238 833 1264 q 884 1175 884 1212 q 858 1111 884 1137 q 796 1085 833 1085 q 734 1111 760 1085 q 708 1175 708 1137 q 734 1238 708 1212 m 44 -14 l 39 -4 l 845 936 q 693 960 783 936 q 561 981 616 981 q 414 938 452 981 q 461 913 441 934 q 487 850 487 887 q 461 786 487 812 q 399 760 435 760 q 337 786 362 760 q 311 850 311 812 q 316 886 311 867 q 398 996 334 952 q 566 1038 459 1038 q 746 1014 643 1038 q 889 999 810 999 q 1082 1038 979 999 l 1086 1028 l 283 87 q 453 64 366 87 q 619 43 530 43 q 766 86 728 43 q 719 111 739 90 q 693 174 693 137 q 719 238 693 212 q 781 264 745 264 q 843 238 818 264 q 869 174 869 212 q 864 138 869 157 q 782 28 846 72 q 614 -14 721 -14 q 419 9 517 -14 q 257 25 349 25 q 44 -14 148 25 z "},"ż":{"ha":686,"x_min":18,"x_max":864,"o":"m 557 953 q 570 966 557 953 q 619 979 583 979 q 681 953 656 979 q 707 890 707 927 q 681 826 707 852 q 619 800 656 800 q 557 826 583 800 q 531 890 531 852 q 557 953 531 927 m 26 -14 l 18 -7 l 641 667 q 519 688 572 667 q 432 709 466 709 q 310 663 359 709 q 357 637 336 659 q 383 574 383 612 q 357 511 383 537 q 295 485 332 485 q 233 511 258 485 q 208 574 208 537 q 212 605 208 589 q 294 718 231 675 q 440 760 355 760 q 565 736 473 760 q 698 722 620 722 q 857 760 771 722 l 864 753 l 241 79 q 378 58 323 79 q 483 37 431 37 q 606 83 556 37 q 558 109 579 87 q 532 172 532 134 q 558 235 532 209 q 621 261 584 261 q 683 235 657 261 q 708 172 708 209 q 704 141 708 157 q 621 28 685 71 q 475 -14 560 -14 q 332 10 424 -14 q 205 24 277 24 q 26 -14 121 24 z "},"Ž":{"ha":881,"x_min":39,"x_max":1086,"o":"m 44 -14 q 39 -4 44 -14 l 845 936 q 693 960 783 936 q 561 981 616 981 q 414 938 452 981 q 461 913 441 934 q 487 850 487 887 q 461 786 487 812 q 399 760 435 760 q 337 786 362 760 q 311 850 311 812 q 316 886 311 867 q 398 996 334 952 q 566 1038 459 1038 q 746 1014 643 1038 q 889 999 810 999 q 1082 1038 979 999 l 1086 1028 l 283 87 q 453 64 366 87 q 619 43 530 43 q 766 86 728 43 q 719 111 739 90 q 693 174 693 137 q 719 238 693 212 q 781 264 745 264 q 843 238 818 264 q 869 174 869 212 q 864 138 869 157 q 782 28 846 72 q 614 -14 721 -14 q 419 9 517 -14 q 257 25 349 25 q 44 -14 148 25 m 646 1276 l 702 1276 q 745 1249 734 1276 l 784 1149 l 878 1249 q 934 1276 903 1276 l 999 1276 l 839 1112 q 789 1085 813 1085 l 755 1085 q 720 1112 732 1085 l 646 1276 z "},"ž":{"ha":686,"x_min":18,"x_max":864,"o":"m 26 -14 q 18 -7 26 -14 l 641 667 q 519 688 572 667 q 432 709 466 709 q 310 663 359 709 q 357 637 336 659 q 383 574 383 612 q 357 511 383 537 q 295 485 332 485 q 233 511 258 485 q 208 574 208 537 q 212 605 208 589 q 294 718 231 675 q 440 760 355 760 q 565 736 473 760 q 698 722 620 722 q 857 760 771 722 l 864 753 l 241 79 q 378 58 323 79 q 483 37 431 37 q 606 83 556 37 q 558 109 579 87 q 532 172 532 134 q 558 235 532 209 q 621 261 584 261 q 683 235 657 261 q 708 172 708 209 q 704 141 708 157 q 621 28 685 71 q 475 -14 560 -14 q 332 10 424 -14 q 205 24 277 24 q 26 -14 121 24 m 469 991 l 525 991 q 568 964 557 991 l 607 864 l 701 964 q 757 991 726 991 l 822 991 l 662 827 q 612 800 636 800 l 578 800 q 543 827 555 800 l 469 991 z "},"ſ":{"ha":635,"x_min":62,"x_max":855,"o":"m 88 -278 q 62 -257 62 -278 q 64 -244 62 -252 l 238 407 l 131 407 q 115 420 115 407 q 116 427 115 425 l 121 448 q 147 468 127 468 l 254 468 l 334 768 q 468 967 366 886 q 671 1038 557 1038 q 824 965 773 1038 q 855 871 855 921 q 848 821 855 842 q 819 773 838 793 q 753 746 793 746 q 691 772 717 746 q 666 836 666 798 q 692 899 666 873 q 754 925 718 925 q 793 915 774 925 q 678 990 761 990 q 545 936 606 990 q 456 768 488 884 l 186 -244 q 142 -278 177 -278 l 88 -278 z "},"ƒ":{"ha":635,"x_min":-78,"x_max":855,"o":"m -78 -292 l -75 -281 q 129 0 75 -203 l 238 407 l 149 407 q 134 420 134 407 q 134 427 134 425 l 140 448 q 165 468 145 468 l 254 468 l 334 768 q 468 967 366 886 q 671 1038 557 1038 q 824 965 773 1038 q 855 871 855 921 q 848 821 855 842 q 819 773 838 793 q 753 746 793 746 q 691 772 717 746 q 666 836 666 798 q 692 899 666 873 q 754 925 718 925 q 793 915 774 925 q 678 990 761 990 q 545 936 606 990 q 456 768 488 884 l 376 468 l 572 468 q 588 455 588 468 q 587 448 588 450 l 582 427 q 556 407 576 407 l 360 407 l 251 0 q -78 -292 188 -235 z "},"Ǻ":{"ha":859,"x_min":0,"x_max":954,"o":"m 14 0 q 0 9 0 0 q 3 17 0 13 l 602 897 l 590 990 q 589 1000 589 996 q 615 1024 590 1024 l 684 1024 q 726 990 721 1024 l 864 34 q 865 24 865 29 q 839 0 864 0 l 770 0 q 728 34 733 0 l 684 339 l 296 339 l 76 17 q 50 0 64 0 l 14 0 m 615 808 l 337 400 l 675 400 l 615 808 m 655 1236 q 646 1245 655 1236 q 610 1255 636 1255 q 564 1236 583 1255 q 545 1190 545 1217 q 564 1143 545 1162 q 610 1124 583 1124 q 655 1143 636 1124 q 674 1190 674 1162 q 655 1236 674 1217 m 610 1308 q 692 1274 657 1308 q 726 1190 726 1240 q 692 1105 726 1140 q 610 1072 658 1072 q 528 1105 562 1072 q 493 1190 493 1139 q 527 1274 493 1240 q 610 1308 562 1308 m 892 1291 q 939 1272 922 1291 q 954 1228 954 1255 q 912 1171 954 1190 l 694 1072 l 687 1084 l 829 1261 q 892 1291 854 1291 z "},"ǻ":{"ha":779,"x_min":140,"x_max":903,"o":"m 616 0 l 562 0 q 535 21 535 0 q 537 34 535 26 l 545 64 q 366 -14 480 -14 q 175 98 243 -14 q 140 234 140 154 q 161 372 140 296 q 322 648 205 538 q 573 760 441 760 q 711 682 684 760 l 719 712 q 762 746 727 746 l 817 746 q 843 725 843 746 q 841 712 843 720 l 659 34 q 616 0 650 0 m 401 37 q 506 77 460 37 q 586 216 562 126 l 670 530 q 681 602 681 570 q 664 669 681 642 q 581 709 640 709 q 401 605 485 709 q 297 373 338 527 q 269 203 270 271 q 277 141 269 168 q 401 37 305 37 m 602 951 q 592 960 602 951 q 556 970 583 970 q 511 951 530 970 q 492 905 492 932 q 511 859 492 878 q 556 840 530 840 q 602 859 583 840 q 621 905 621 878 q 602 951 621 932 m 556 1023 q 638 989 604 1023 q 673 905 673 955 q 638 821 673 855 q 556 787 604 787 q 474 821 509 787 q 439 905 439 854 q 474 989 439 955 q 556 1023 508 1023 m 842 1006 q 888 987 871 1006 q 903 943 903 970 q 861 886 903 905 l 644 787 l 636 799 l 779 976 q 842 1006 803 1006 z "},"Ǽ":{"ha":1330,"x_min":0,"x_max":1435,"o":"m 14 0 q 0 9 0 0 q 3 17 0 13 l 602 897 l 590 990 q 589 1000 589 996 q 615 1024 590 1024 l 684 1024 q 726 990 721 1024 l 798 486 q 826 512 811 500 q 1040 601 921 592 q 954 657 984 619 q 919 757 919 702 q 926 810 919 783 q 1057 981 955 916 q 1249 1038 1144 1038 q 1408 959 1357 1038 q 1435 871 1435 917 q 1428 821 1435 845 q 1400 774 1418 793 q 1335 746 1373 746 q 1273 772 1298 746 q 1247 836 1247 798 q 1273 899 1247 873 q 1335 925 1299 925 q 1374 915 1356 925 q 1255 994 1343 994 q 1122 933 1177 994 q 1060 817 1078 886 q 1049 742 1049 775 q 1065 675 1049 702 q 1183 591 1099 619 l 1180 581 q 988 512 1071 567 q 854 319 888 446 q 838 212 838 258 q 859 123 838 159 q 1013 37 907 37 q 1211 114 1120 37 q 1337 269 1278 172 l 1347 269 l 1314 143 q 1244 79 1280 108 q 994 -14 1127 -14 q 858 5 916 -14 q 839 0 852 0 l 770 0 q 728 34 733 0 l 684 339 l 296 339 l 76 17 q 50 0 64 0 l 14 0 m 675 400 l 614 807 l 337 400 l 675 400 m 1116 1291 q 1162 1272 1146 1291 q 1177 1228 1177 1255 q 1136 1171 1177 1190 l 918 1072 l 911 1084 l 1053 1261 q 1116 1291 1078 1291 z "},"ǽ":{"ha":1114,"x_min":109,"x_max":1192,"o":"m 367 -14 q 155 43 214 -14 q 109 151 109 87 q 116 205 109 176 q 266 394 147 321 q 617 463 378 463 l 636 533 q 648 610 648 576 q 628 676 648 652 q 513 715 596 715 q 395 684 443 715 q 441 659 422 679 q 467 596 467 633 q 441 532 467 559 q 379 505 416 505 q 317 532 340 505 q 293 597 293 557 q 345 690 293 645 q 542 760 426 760 q 717 711 661 760 q 740 684 730 699 q 960 760 844 760 q 1154 671 1090 760 q 1192 552 1192 617 q 1183 484 1192 519 q 1036 342 1154 377 l 677 234 l 661 172 q 656 139 656 153 q 686 71 656 100 q 809 37 723 37 q 988 114 903 37 q 1029 155 1009 133 l 1039 155 l 1019 79 q 762 -14 906 -14 q 567 37 653 -14 q 367 -14 472 -14 m 604 412 q 353 353 432 412 q 250 205 273 294 q 241 146 241 172 q 266 72 241 101 q 378 37 296 37 q 539 171 503 37 l 604 412 m 695 298 l 939 373 q 1050 475 1029 401 q 1062 564 1062 521 q 1058 612 1062 588 q 945 715 1041 715 q 782 623 853 715 l 695 298 m 961 1006 q 1007 987 991 1006 q 1022 943 1022 970 q 981 886 1022 905 l 763 787 l 755 799 l 898 976 q 961 1006 922 1006 z "},"Ǿ":{"ha":926,"x_min":176,"x_max":1024,"o":"m 945 1291 q 991 1272 975 1291 q 1006 1228 1006 1255 q 965 1171 1006 1190 l 747 1072 l 740 1084 l 882 1261 q 945 1291 907 1291 m 460 -14 q 324 18 382 -14 l 281 -51 q 254 -69 269 -69 q 241 -67 246 -69 l 230 -62 q 217 -45 217 -57 q 218 -40 217 -43 q 223 -28 219 -34 l 274 53 q 241 91 256 70 q 176 313 176 180 q 205 512 176 402 q 467 933 277 781 q 741 1038 596 1038 q 878 1007 820 1038 l 920 1075 q 947 1093 932 1093 q 959 1091 954 1093 l 970 1086 q 983 1070 983 1081 q 983 1063 983 1066 q 978 1052 981 1057 l 927 972 q 960 933 945 955 q 1024 710 1024 842 q 995 512 1024 621 q 736 94 922 239 q 460 -14 598 -14 m 366 83 q 473 37 406 37 q 660 125 576 37 q 846 512 775 247 q 887 770 887 667 q 869 882 887 837 l 366 83 m 332 143 l 834 939 q 728 987 792 987 q 545 898 634 987 q 355 512 427 780 q 315 258 315 361 q 332 143 315 190 z "},"ǿ":{"ha":765,"x_min":142,"x_max":823,"o":"m 758 1006 q 804 987 787 1006 q 819 943 819 970 q 777 886 819 905 l 559 787 l 552 799 l 694 976 q 758 1006 719 1006 m 379 -14 q 284 3 326 -14 l 245 -59 q 218 -78 233 -78 q 206 -75 213 -78 l 195 -71 q 182 -54 182 -65 q 182 -49 182 -52 q 188 -36 185 -41 l 231 33 q 191 79 208 52 q 142 246 142 150 q 161 373 142 305 q 349 667 210 554 q 589 760 461 760 q 681 743 640 760 l 720 805 q 747 824 732 824 q 758 821 751 824 l 770 817 q 783 801 783 812 q 783 794 783 797 q 777 782 781 787 l 733 713 q 774 667 755 694 q 823 502 823 597 q 804 373 823 442 q 616 79 755 192 q 379 -14 504 -14 m 391 31 q 564 134 487 31 q 669 373 628 220 q 697 554 697 479 q 692 612 697 586 q 685 636 689 625 l 317 54 q 391 31 345 31 m 281 111 l 648 692 q 574 715 620 715 q 403 612 479 715 q 297 373 338 523 q 269 196 269 270 q 275 134 269 162 q 281 111 277 122 z "},"Ș":{"ha":820,"x_min":116,"x_max":899,"o":"m 383 -14 q 173 66 239 -14 q 116 209 116 134 q 123 258 116 235 q 151 306 133 287 q 216 334 178 334 q 278 308 253 334 q 304 244 304 281 q 278 181 304 207 q 216 155 252 155 q 177 165 195 155 q 382 37 228 37 q 600 127 511 37 q 695 288 670 197 q 703 343 703 317 q 589 498 703 441 l 482 551 q 339 740 339 622 q 349 806 339 771 q 474 975 374 903 q 685 1038 560 1038 q 889 918 842 1038 q 899 868 899 893 q 891 818 899 839 q 863 772 882 792 q 796 743 836 743 q 734 769 760 743 q 709 833 709 795 q 734 896 709 870 q 797 922 760 922 q 836 912 817 922 q 699 987 793 987 q 554 943 612 987 q 477 829 498 899 q 472 792 472 810 q 565 665 472 710 l 686 606 q 846 393 846 528 q 836 312 846 350 q 663 77 800 177 q 383 -14 540 -14 m 360 -54 q 406 -73 390 -54 q 421 -117 421 -91 q 380 -174 421 -155 l 162 -274 l 155 -262 l 297 -85 q 360 -54 321 -54 z "},"ș":{"ha":665,"x_min":101,"x_max":724,"o":"m 332 -14 q 154 58 218 -14 q 106 170 106 111 q 114 221 106 197 q 142 265 121 244 q 208 292 171 292 q 270 266 245 292 q 296 202 296 239 q 270 139 296 165 q 208 113 244 113 q 169 123 187 113 q 329 41 220 41 q 460 84 403 41 q 541 195 524 132 q 545 233 545 212 q 479 328 545 293 l 379 382 q 273 528 273 439 q 286 597 273 564 q 397 718 313 669 q 554 760 467 760 q 688 705 639 760 q 724 618 724 666 q 715 569 724 592 q 687 527 707 547 q 622 502 661 502 q 560 528 585 502 q 534 591 534 554 q 560 655 534 629 q 623 681 586 681 q 661 671 643 681 q 565 710 625 710 q 455 679 499 710 q 390 591 404 643 q 387 568 387 579 q 456 474 387 511 l 549 426 q 668 269 668 363 q 654 186 668 224 q 536 44 622 102 q 332 -14 452 -14 m 307 -54 q 353 -73 336 -54 q 368 -117 368 -91 q 326 -174 368 -155 l 109 -274 l 101 -262 l 243 -85 q 307 -54 268 -54 z "},"Ț":{"ha":854,"x_min":146,"x_max":1084,"o":"m 406 0 q 379 21 379 0 q 381 34 379 26 l 581 780 q 625 814 590 814 l 692 814 q 719 793 719 814 q 717 780 719 787 l 517 34 q 474 0 508 0 l 406 0 m 694 1024 l 928 1024 q 1046 985 1004 1024 q 1084 902 1084 949 q 1078 859 1084 878 q 1050 811 1069 831 q 985 783 1023 783 q 923 809 948 783 q 897 873 897 836 q 923 937 897 910 q 985 962 946 960 l 985 963 l 671 963 q 189 695 418 963 l 180 701 q 694 1024 386 1024 m 351 -54 q 397 -73 381 -54 q 412 -117 412 -91 q 371 -174 412 -155 l 153 -274 l 146 -262 l 288 -85 q 351 -54 313 -54 z "}}}
